<?xml version="1.0" encoding="UTF-8" standalone="no"?>
<!DOCTYPE svg PUBLIC "-//W3C//DTD SVG 1.1//EN" "http://www.w3.org/Graphics/SVG/1.1/DTD/svg11.dtd">
<svg width="100%" height="100%" viewBox="0 0 5143 6891" version="1.1" xmlns="http://www.w3.org/2000/svg" xmlns:xlink="http://www.w3.org/1999/xlink" xml:space="preserve" xmlns:serif="http://www.serif.com/" style="fill-rule:evenodd;clip-rule:evenodd;stroke-linejoin:round;stroke-miterlimit:2;">
    <g transform="matrix(1,0,0,1,-10125,-155)">
        <g id="Artboard2" transform="matrix(1,0,0,1,-0.998333,154.85)">
            <rect x="10126" y="0.15" width="5142.87" height="6890.81" style="fill:none;"/>
            <clipPath id="_clip1">
                <rect x="10126" y="0.15" width="5142.87" height="6890.81"/>
            </clipPath>
            <g clip-path="url(#_clip1)">
                <g transform="matrix(8.33333,0,0,8.33333,10956.5,3136.33)">
                    <path d="M0,39.926C0,39.926 6.298,-75.417 -34.558,-146.398C-75.415,-217.378 -139.002,-273.571 -66.542,-350.467C5.917,-427.362 108.068,-313.498 125.016,-258.784C125.016,-258.784 193.72,-292.346 260.264,-235.638C260.264,-235.638 415.534,-350.467 490.951,-263.22C566.368,-175.973 462.449,-166.188 417.051,-142C362.431,-112.899 309.803,-33.446 280.967,39.926C252.131,113.298 331.244,245.086 375.607,269.68C375.607,269.68 461.375,224.384 493.908,269.68C526.441,314.976 471.727,399.265 409.619,433.277C347.511,467.288 306.431,458.416 228.633,340.114C228.633,340.114 225.148,440.67 156.198,439.192C87.249,437.713 93.833,378.562 93.833,378.562C93.833,378.562 -38.446,391.871 -66.542,292.794C-94.639,193.717 0,168.578 0,39.926" style="fill:#95ceaa;fill-rule:nonzero;"/>
                </g>
                <g transform="matrix(-5.23696,6.48218,6.48218,5.23696,13071.3,3439.04)">
                    <path d="M117.876,-166.223C117.876,-166.223 206.844,-84.232 222.559,-87.695C238.273,-91.158 117.876,61.487 117.876,61.487C117.876,61.487 110.098,-3.804 29.189,-12.476C-42.766,-20.189 117.876,-166.223 117.876,-166.223" style="fill:#fff;fill-rule:nonzero;"/>
                </g>
                <g transform="matrix(8.33333,0,0,8.33333,12695.5,325.708)">
                    <path d="M0,428.133C115.649,103.285 219.186,139.629 228.745,129.009C238.805,117.831 222.038,66.485 125.909,116.785C83.981,138.724 52.831,168.945 27.992,205.174L-119.272,199.705C-119.272,80.953 -212.788,-2.173 -236.539,27.515C-260.289,57.203 -215.757,64.625 -183.101,163.661C-160.272,232.894 -156.303,360.046 -155.982,430.306" style="fill:#fff;fill-rule:nonzero;"/>
                </g>
                <g transform="matrix(8.33333,0,0,8.33333,11395.6,402.682)">
                    <path d="M0,421.069C-5.777,366.375 -10.545,311.883 -18.17,258.143C-22.028,231.331 -26.413,204.585 -33.162,179.008C-34.045,175.839 -34.79,172.583 -35.776,169.486L-38.677,160.16C-40.708,153.92 -43.07,147.68 -45.454,141.54C-50.318,129.271 -55.713,117.274 -61.976,105.772C-68.111,94.162 -75.097,83.204 -82.732,72.001C-86.491,66.294 -90.511,60.655 -94.376,53.447C-96.261,49.821 -98.212,45.651 -99.241,40.327C-100.338,35.051 -99.804,28.686 -97.882,23.685C-96.012,18.651 -93.373,14.656 -90.741,11.424C-87.595,7.444 -82.053,2.877 -76.352,1.542C-70.765,0.019 -65.234,0 -60.746,0.994C-56.049,1.815 -52.071,3.392 -48.261,5.073C-40.774,8.568 -34.478,13.008 -28.676,17.795C-22.9,22.612 -17.67,27.812 -12.884,33.301C-3.217,44.211 4.757,56.222 11.568,68.731C18.358,81.256 23.895,94.361 28.053,107.833C36.251,134.784 39.601,163.051 36.71,190.468C33.746,163.114 27.026,136.686 15.98,112.373C10.571,100.191 4.089,88.566 -3.227,77.632C-10.571,66.729 -18.743,56.43 -27.922,47.461C-32.449,42.921 -37.274,38.765 -42.277,35.149C-47.238,31.515 -52.438,28.313 -57.505,26.31C-62.474,24.251 -67.524,23.816 -69.285,24.619C-69.471,24.747 -69.664,24.822 -69.886,24.854C-70.021,24.998 -70.116,25.147 -70.277,25.215C-70.47,25.216 -70.532,25.503 -70.668,25.648C-70.823,25.878 -70.887,25.712 -71.333,26.419C-72.963,28.53 -73.914,30.483 -74.355,31.887C-74.748,33.325 -74.743,34.021 -74.474,35.458C-74.183,36.87 -73.276,39.016 -71.928,41.402C-69.229,46.217 -65.246,51.73 -61.324,57.343C-53.427,68.676 -45.568,80.778 -38.841,93.348C-32.124,105.956 -26.305,118.994 -21.275,132.247C-18.854,138.924 -16.519,145.549 -14.462,152.373L-11.498,162.725C-10.469,166.171 -9.856,169.637 -9.02,173.091C-2.761,200.729 0.339,228.369 2.3,255.975C5.98,311.181 5.088,366.275 0,421.069" style="fill:#006957;fill-rule:nonzero;"/>
                </g>
                <g transform="matrix(8.33333,0,0,8.33333,12928.7,2879.76)">
                    <path d="M0,-101.313C6.616,-113.419 14.258,-125.026 22.814,-136.033C31.383,-147.033 41.041,-157.246 51.396,-166.801C61.86,-176.227 73.178,-184.805 85.16,-192.386C88.159,-194.269 91.208,-196.085 94.25,-197.906C97.32,-199.645 100.418,-201.35 103.56,-202.997C109.845,-206.287 116.284,-209.388 122.946,-212.165C129.634,-214.884 136.516,-217.335 143.727,-219.229C150.933,-221.128 158.459,-222.512 166.432,-222.748C174.37,-222.959 182.878,-222.153 191.369,-218.7C199.776,-215.312 208.097,-208.667 212.495,-199.123C214.675,-194.379 215.995,-189.087 215.612,-183.077C215.375,-180.063 214.744,-176.817 212.937,-173.294C212.486,-172.419 211.931,-171.522 211.304,-170.64C210.973,-170.192 210.61,-169.744 210.247,-169.31C210.132,-169.157 209.709,-168.715 209.372,-168.389C209.017,-168.044 208.649,-167.712 208.271,-167.395C205.449,-165.177 203.376,-164.541 201.878,-164.011C198.82,-163.055 196.989,-162.812 195.104,-162.447L190.021,-161.566C186.832,-160.995 183.82,-160.373 180.851,-159.618C169.051,-156.596 157.842,-151.53 147.274,-144.731C126.126,-131.11 107.728,-111.95 91.321,-91.202C74.792,-70.43 60.248,-47.707 46.5,-24.421C19.135,22.335 -4.189,71.896 -27.992,121.646C-21.582,94.787 -13.378,68.429 -4.242,42.316C5.007,16.248 15.687,-9.386 28.016,-34.382C40.36,-59.365 54.466,-83.688 71.335,-106.517C88.319,-129.149 108.028,-150.744 133.236,-166.834C145.795,-174.778 159.921,-181.222 174.858,-184.552C178.561,-185.404 182.292,-186.076 185.873,-186.629L190.951,-187.388C192.443,-187.605 194.013,-187.909 194.232,-187.985C194.365,-187.969 193.901,-188.008 192.436,-186.843C192.217,-186.668 192.008,-186.48 191.813,-186.279L191.392,-185.81C191.298,-185.71 191.214,-185.588 191.145,-185.48C191.01,-185.301 190.922,-185.123 190.868,-185.011C190.67,-184.529 190.835,-184.691 190.886,-185.089C191.03,-185.938 190.849,-187.559 190.214,-189.058C188.989,-192.155 186.118,-195 181.96,-196.963C177.805,-198.957 172.398,-199.956 166.653,-200.064C155.059,-200.206 142.357,-197.351 130.077,-193.193C117.73,-189.08 105.44,-183.575 93.571,-177.639C81.734,-171.578 70.284,-164.683 59.319,-156.957C48.315,-149.268 38.029,-140.511 28.088,-131.245C18.234,-121.889 8.964,-111.803 0,-101.313" style="fill:#006957;fill-rule:nonzero;"/>
                </g>
                <g transform="matrix(8.1759,-1.6122,-1.6122,-8.1759,12360.7,2862.18)">
                    <path d="M-16.882,3.801C-40.349,11.809 -59.978,30.223 -68.588,55.511C-83.33,98.809 -60.18,145.858 -16.882,160.6C26.416,175.341 73.465,152.191 88.206,108.893C102.948,65.595 79.798,18.546 36.5,3.805" style="fill:#fff;fill-rule:nonzero;"/>
                </g>
                <g transform="matrix(8.33333,0,0,8.33333,12216.6,1362.95)">
                    <path d="M0,179.446C-19.692,180.03 -40.301,172.098 -55.753,157.608C-63.58,150.43 -69.829,141.543 -74.587,131.813C-79.324,122.067 -82.336,111.29 -83.187,100.255C-84.935,78.178 -78.259,55.266 -64.524,37.199C-50.91,18.92 -30.2,6.426 -7.829,1.854C3.378,-0.33 14.985,-0.584 26.214,1.358C37.418,3.366 48.274,7.248 58.036,13.003C77.613,24.428 92.693,43.118 99.22,64.269C106.002,85.34 104.705,108.548 95.676,127.742C86.83,146.987 70.778,162.125 52.373,169.114C54.204,167.438 56.019,165.807 57.836,164.231C59.642,162.64 61.179,160.729 62.828,159.027C64.539,157.388 65.902,155.4 67.381,153.582C68.093,152.644 68.866,151.774 69.514,150.796L71.396,147.832C76.368,139.979 80.043,131.566 82.172,122.902C86.588,105.587 84.638,87.552 77.74,72.352C74.28,64.756 69.701,57.651 64.001,51.752C58.297,45.868 51.789,40.862 44.576,37.196C37.397,33.503 29.651,30.927 21.692,29.829C13.759,28.565 5.63,28.878 -2.178,30.48C-10.017,31.98 -17.557,34.926 -24.506,38.969C-26.19,40.059 -27.974,41.019 -29.613,42.179L-34.407,45.839L-38.821,49.953C-40.288,51.334 -41.524,52.933 -42.917,54.399C-53.375,66.715 -59.67,82.799 -60.326,99.57C-60.657,107.958 -59.417,116.444 -56.876,124.664C-54.254,132.837 -50.522,140.95 -45.149,148.058C-39.944,155.304 -33.308,161.669 -25.717,167.051C-18.093,172.409 -9.384,176.494 0,179.446" style="fill:#006957;fill-rule:nonzero;"/>
                </g>
                <g transform="matrix(8.33333,0,0,8.33333,11460.2,6644.4)">
                    <path d="M0,-279.758C0,-279.758 -84.019,-230.578 -82.995,-161.945C-81.97,-93.311 27.477,-98.443 55.226,-98.443C82.975,-98.443 74.634,-41.078 101.853,-34.932C129.072,-28.786 105.511,-115.858 97.316,-134.296C89.121,-152.735 60.956,-119.438 2.566,-139.925C-55.824,-160.413 7.161,-216.247 54.282,-237.758C54.282,-237.758 118.848,-215.232 195.676,-135.331C272.505,-55.429 272.992,0 317.04,-32.066C361.088,-64.132 386.678,-82.053 373.361,-102.541C360.044,-123.028 328.825,-72.814 301.167,-91.252C273.509,-109.691 155.287,-270.233 155.287,-270.233" style="fill:#fff;fill-rule:nonzero;"/>
                </g>
                <g transform="matrix(8.33333,0,0,8.33333,11366.6,6545.21)">
                    <path d="M0,-259.024C-24.545,-240.764 -45.672,-217.15 -56.712,-189.998C-62.053,-176.459 -64.534,-161.909 -63.471,-147.983C-62.902,-141.284 -60.932,-135.088 -57.771,-129.655C-54.572,-124.228 -49.988,-119.611 -44.514,-115.815C-33.493,-108.188 -19.41,-104.002 -5.115,-101.165C9.297,-98.422 24.274,-97.328 39.347,-97.058C46.906,-96.954 54.448,-96.927 62.207,-97.023L65.156,-97.044L66.763,-97.039C67.517,-97.009 68.246,-97.019 69.02,-96.923C72.061,-96.639 75.295,-95.839 78.214,-94.384C84.189,-91.482 88.128,-86.704 90.712,-82.49C93.363,-78.184 94.972,-74.002 96.385,-70.015C97.778,-66.022 98.899,-62.18 99.999,-58.481C102.161,-51.137 104.319,-44.124 107.258,-38.979C108.697,-36.407 110.288,-34.485 111.938,-33.315C112.765,-32.707 113.636,-32.268 114.638,-31.942C115.64,-31.615 115.916,-31.663 115.53,-31.543C115.129,-31.379 114.841,-30.897 115.23,-31.299C115.55,-31.682 116.064,-32.688 116.431,-33.962C117.226,-36.548 117.611,-39.979 117.759,-43.435C118.024,-50.449 117.413,-57.93 116.485,-65.362C115.548,-72.814 114.244,-80.302 112.706,-87.75C111.164,-95.195 109.392,-102.631 107.26,-109.89C106.206,-113.481 105.05,-117.186 103.783,-120.363C103.29,-121.58 102.787,-122.244 102.268,-122.622C101.756,-123.021 100.739,-123.337 99.279,-123.387C96.329,-123.489 92.556,-122.681 88.855,-121.895C85.111,-121.085 81.258,-120.219 77.353,-119.503C69.544,-118.034 61.498,-117.224 53.479,-117.295C45.453,-117.292 37.454,-118.244 29.652,-119.897C25.747,-120.715 21.889,-121.719 18.092,-122.894C14.319,-124.07 10.539,-125.369 6.764,-127.052C3.033,-128.754 -0.655,-130.79 -3.963,-133.592C-7.257,-136.356 -10.207,-139.965 -11.846,-144.288C-13.506,-148.596 -13.742,-153.337 -12.995,-157.647C-12.24,-161.979 -10.663,-165.958 -8.805,-169.667C-5.011,-177.071 0.078,-183.418 5.525,-189.263C11.004,-195.096 16.94,-200.391 23.077,-205.406C35.427,-215.36 48.748,-223.988 63.083,-231.163L65.088,-232.166L67.428,-231.364C75.559,-228.576 82.794,-225.372 90.177,-221.86C97.52,-218.4 104.653,-214.583 111.728,-210.651C125.81,-202.688 139.442,-193.945 152.472,-184.386C159.091,-179.731 165.339,-174.619 171.753,-169.69L181.035,-161.902C184.152,-159.328 187.18,-156.656 190.149,-153.92L199.134,-145.789L207.851,-137.383C213.662,-131.791 219.358,-126.01 224.864,-120.051C235.9,-108.162 246.344,-95.695 256.169,-82.838C266.041,-70.056 275.151,-56.624 284.211,-44.097C288.726,-37.935 293.367,-31.836 297.889,-27.691C300.125,-25.641 302.252,-24.268 303.79,-23.744C305.34,-23.227 306.411,-23.187 308.43,-23.597C310.392,-24.015 313.002,-25.179 315.693,-26.784C318.404,-28.373 321.092,-30.41 324.456,-32.873L343.46,-46.872C349.674,-51.541 355.776,-56.253 361.303,-61.095C366.786,-65.851 371.908,-71.042 374.335,-75.393C375.526,-77.556 375.832,-79.025 375.792,-80.064C375.737,-80.621 375.655,-81.213 375.358,-81.982C375.153,-82.378 375.042,-82.778 374.744,-83.241L374.351,-83.936C374.266,-84.044 374.22,-84.161 374.19,-84.187C374.003,-84.396 374.578,-83.836 375.37,-83.618C376.143,-83.407 376.307,-83.626 375.604,-83.489C374.224,-83.295 371.102,-81.939 368.05,-80.249C361.718,-76.817 354.703,-72.161 346.239,-68.428C341.98,-66.59 337.24,-64.953 331.864,-64.19C326.534,-63.402 320.419,-63.721 314.834,-65.692C312.049,-66.65 309.435,-67.958 307.086,-69.474C305.841,-70.226 304.964,-71.026 303.899,-71.814L302.404,-73.003L301.139,-74.144L298.633,-76.431L296.356,-78.7C294.804,-80.211 293.416,-81.73 291.988,-83.247C286.365,-89.334 281.084,-95.438 275.993,-101.685C265.864,-114.18 256.121,-126.817 246.558,-139.572C237.106,-152.411 227.737,-165.274 218.581,-178.286C200.306,-204.334 182.502,-230.678 165.571,-257.638L167.451,-259.023C188.254,-234.97 208.71,-210.69 229.248,-186.542C239.517,-174.469 249.727,-162.367 260.118,-150.45C270.41,-138.462 280.791,-126.565 291.404,-115.054C296.73,-109.338 302.016,-103.602 307.434,-98.299C308.787,-96.988 310.137,-95.637 311.488,-94.446L313.51,-92.602L315.479,-90.97L316.457,-90.158L317.328,-89.547C317.881,-89.19 318.493,-88.658 318.974,-88.424C319.981,-87.83 320.962,-87.402 321.941,-87.111C323.887,-86.529 325.918,-86.445 328.413,-86.891C330.887,-87.33 333.711,-88.325 336.676,-89.735C342.706,-92.52 348.912,-96.757 356.393,-101.103C360.265,-103.224 364.259,-105.623 370.658,-107.136C373.815,-107.833 378.078,-108.197 382.652,-106.793C387.271,-105.436 391.069,-102.253 393.325,-99.369C393.932,-98.634 394.417,-97.909 394.898,-97.205L396.023,-95.341C396.77,-94.119 397.421,-92.674 398.044,-91.276C399.254,-88.371 400.077,-85.062 400.334,-81.669C400.83,-74.743 398.671,-68.343 396.08,-63.576C393.439,-58.757 390.377,-54.947 387.297,-51.532C384.196,-48.135 381.043,-45.124 377.841,-42.309C371.443,-36.684 364.978,-31.694 358.527,-26.817C352.078,-21.963 345.629,-17.262 339.186,-12.631C336.132,-10.442 332.479,-7.685 328.327,-5.282C324.183,-2.901 319.539,-0.602 313.732,0.672C308.027,2.026 300.838,1.673 294.987,-0.723C289.096,-3.051 284.753,-6.535 281.206,-9.875C274.207,-16.679 269.491,-23.517 264.733,-30.193C255.482,-43.571 246.995,-56.555 237.818,-69.153C228.698,-81.743 219.05,-93.876 208.795,-105.51C188.013,-128.525 165.722,-150.577 141.532,-170.161C129.465,-180.002 117.04,-189.448 104.006,-197.963C97.479,-202.191 90.876,-206.324 84.098,-210.097C77.407,-213.889 70.297,-217.533 63.585,-220.347L67.929,-220.549C54.134,-214.748 40.904,-207.044 28.7,-198.128C22.586,-193.676 16.789,-188.798 11.506,-183.489C6.241,-178.191 1.392,-172.439 -2.079,-166.135C-5.552,-159.89 -7.283,-152.78 -5.041,-146.863C-2.857,-140.894 3.117,-136.46 9.678,-133.458C23.293,-127.711 38.558,-124.575 53.413,-124.906C60.886,-125.091 68.286,-126.187 75.634,-127.872C79.317,-128.708 82.986,-129.692 86.773,-130.679C90.603,-131.616 94.405,-132.734 99.22,-132.991C101.606,-133.061 104.574,-132.791 107.401,-131.17C110.239,-129.558 112.104,-126.931 113.193,-124.64C115.046,-120.727 116.405,-117.095 117.782,-113.338C120.458,-105.873 122.849,-98.38 125.033,-90.795C127.201,-83.206 129.141,-75.538 130.726,-67.709C132.286,-59.864 133.579,-51.92 133.901,-43.436C134.007,-39.163 133.972,-34.798 132.921,-29.848C132.346,-27.376 131.52,-24.693 129.747,-21.809C128.057,-18.983 124.677,-15.751 120.509,-14.568C116.387,-13.277 112.654,-13.883 109.949,-14.524C107.21,-15.192 104.485,-16.312 102.061,-17.808C97.141,-20.803 93.614,-24.964 91.017,-28.968C85.892,-37.115 83.515,-45.095 80.952,-52.452C78.519,-59.737 76.088,-66.87 73.118,-71.506C71.651,-73.829 70.214,-75.088 69.141,-75.537C68.587,-75.806 67.991,-75.927 67.184,-75.998C66.998,-76.032 66.754,-76.007 66.542,-76.028L65.246,-76.031L62.387,-76.011C54.661,-75.945 46.713,-75.852 38.789,-76.173C22.916,-76.752 6.9,-78.171 -9.079,-81.508C-17.059,-83.197 -25.055,-85.342 -32.865,-88.461C-40.669,-91.549 -48.373,-95.474 -55.437,-100.792C-62.476,-106.077 -68.854,-112.907 -73.207,-121.039C-77.621,-129.148 -79.617,-138.328 -79.87,-147.076C-80.079,-164.123 -76.105,-180.694 -68.667,-195.36C-65.008,-202.699 -60.633,-209.581 -55.762,-215.999C-50.821,-222.372 -45.4,-228.279 -39.647,-233.765C-28.03,-244.628 -15.215,-253.942 -1.161,-261.05L0,-259.024Z" style="fill:#006957;fill-rule:nonzero;"/>
                </g>
                <g transform="matrix(8.33333,0,0,8.33333,12924.9,4170.34)">
                    <path d="M0,-63.287C12.024,-63.6 24.011,-62.909 36.024,-61.7C48.014,-60.249 59.995,-58.419 71.976,-54.243C74.98,-53.178 77.997,-51.972 81.044,-50.296C84.023,-48.506 87.273,-46.608 90.037,-42.222C91.364,-40.008 92.306,-36.799 91.708,-33.559C91.125,-30.377 89.551,-28.047 88.09,-26.367C85.074,-23.053 82.021,-21.252 79.04,-19.578C67.081,-13.449 55.227,-10.709 43.276,-8.076C19.395,-3.252 -4.612,-1.073 -28.618,-0.393C-52.611,0.313 -76.62,-0.462 -100.45,-3.463C-76.632,-6.483 -52.986,-8.858 -29.461,-11.685C-5.977,-14.65 17.486,-17.671 40.314,-22.357C46.005,-23.536 51.659,-24.817 57.137,-26.385C62.601,-27.894 68.028,-29.663 72.649,-31.912C74.923,-32.988 77.051,-34.334 78.104,-35.4C78.634,-35.918 78.691,-36.211 78.678,-35.968C78.679,-35.668 78.864,-35.535 78.736,-35.9C78.465,-36.703 76.714,-38.437 74.663,-39.739C72.608,-41.14 70.193,-42.43 67.678,-43.598C62.631,-45.958 57.139,-47.827 51.609,-49.642C46.07,-51.474 40.403,-53.085 34.688,-54.578C23.28,-57.751 11.65,-60.325 0,-63.287" style="fill:#006957;fill-rule:nonzero;"/>
                </g>
                <g transform="matrix(8.33333,0,0,8.33333,11563.8,3664.21)">
                    <path d="M0,54.832C-16.762,56.607 -33.546,56.432 -50.308,54.976C-58.688,54.208 -67.057,53.068 -75.415,51.386C-83.779,49.687 -92.098,47.522 -100.478,43.989C-104.647,42.099 -108.876,40.081 -113.168,36.061C-114.224,35.004 -115.283,33.754 -116.225,32.187C-117.138,30.571 -117.987,28.626 -118.168,26.341C-118.461,24.107 -117.975,21.747 -117.19,19.917C-116.411,17.997 -115.337,16.624 -114.277,15.409C-112.128,13.092 -109.937,11.621 -107.804,10.347C-105.669,9.075 -103.537,8.114 -101.423,7.266C-97.203,5.528 -93.003,4.342 -88.805,3.303C-72.025,-0.61 -55.238,-1.775 -38.393,-1.027C-54.372,4.224 -70.425,8.528 -85.4,14.262C-89.106,15.709 -92.759,17.242 -96.073,18.969C-99.329,20.651 -102.535,22.768 -103.807,24.465C-104.408,25.35 -104.153,25.349 -104.096,24.834C-104.161,24.379 -104.078,24.914 -103.13,25.717C-101.344,27.378 -98.057,29.194 -94.659,30.61C-87.776,33.584 -80.042,35.857 -72.278,37.938C-64.489,40.029 -56.533,41.855 -48.538,43.677C-32.528,47.306 -16.303,50.586 0,54.832" style="fill:#006957;fill-rule:nonzero;"/>
                </g>
                <g transform="matrix(8.33333,0,0,8.33333,12332.4,4295.93)">
                    <path d="M0,-37.478L-68.359,-20.275L0,0L0,-37.478Z" style="fill:#006957;fill-rule:nonzero;"/>
                </g>
            </g>
        </g>
    </g>
</svg>
