<?xml version="1.0" encoding="UTF-8" standalone="no"?>
<!DOCTYPE svg PUBLIC "-//W3C//DTD SVG 1.1//EN" "http://www.w3.org/Graphics/SVG/1.1/DTD/svg11.dtd">
<svg width="100%" height="100%" viewBox="0 0 7571 4433" version="1.1" xmlns="http://www.w3.org/2000/svg" xmlns:xlink="http://www.w3.org/1999/xlink" xml:space="preserve" xmlns:serif="http://www.serif.com/" style="fill-rule:evenodd;clip-rule:evenodd;stroke-linejoin:round;stroke-miterlimit:2;">
    <g transform="matrix(1,0,0,1,-25389.5,-5519.41)">
        <g id="Artboard10" transform="matrix(1,0,0,1,-1971.06,1600.49)">
            <rect x="27360.6" y="3918.92" width="7570.79" height="4432.38" style="fill:none;"/>
            <clipPath id="_clip1">
                <rect x="27360.6" y="3918.92" width="7570.79" height="4432.38"/>
            </clipPath>
            <g clip-path="url(#_clip1)">
                <g transform="matrix(8.33333,0,0,8.33333,27894.8,5937.02)">
                    <path d="M0,25.682C0,25.682 4.051,-48.51 -22.229,-94.167C-48.509,-139.824 -89.41,-175.969 -42.802,-225.43C3.806,-274.892 69.513,-201.651 80.414,-166.457C80.414,-166.457 124.606,-188.045 167.41,-151.569C167.41,-151.569 267.284,-225.43 315.794,-169.311C364.305,-113.191 297.461,-106.897 268.26,-91.339C233.126,-72.62 199.274,-21.513 180.726,25.682C162.178,72.877 213.066,157.647 241.602,173.466C241.602,173.466 296.771,144.331 317.697,173.466C338.623,202.602 303.429,256.82 263.479,278.697C223.529,300.574 197.105,294.867 147.064,218.772C147.064,218.772 144.822,283.453 100.471,282.502C56.121,281.55 60.356,243.503 60.356,243.503C60.356,243.503 -24.729,252.064 -42.802,188.334C-60.874,124.605 0,108.435 0,25.682" style="fill:#95ceaa;fill-rule:nonzero;"/>
                </g>
                <g transform="matrix(-5.23698,6.48217,6.48217,5.23698,29255.1,6131.73)">
                    <path d="M75.822,-106.92C75.822,-106.92 133.049,-54.181 143.157,-56.408C153.265,-58.635 75.822,39.55 75.822,39.55C75.822,39.55 70.819,-2.447 18.776,-8.026C-27.508,-12.986 75.822,-106.92 75.822,-106.92" style="fill:#fff;fill-rule:nonzero;"/>
                </g>
                <g transform="matrix(8.33333,0,0,8.33333,29013.3,4129.15)">
                    <path d="M0,275.387C74.389,66.435 140.987,89.813 147.135,82.981C153.606,75.792 142.821,42.764 80.988,75.119C54.019,89.231 33.983,108.669 18.005,131.973L-76.719,128.455C-76.719,52.071 -136.872,-1.398 -152.149,17.698C-167.426,36.794 -138.781,41.568 -117.776,105.271C-103.091,149.804 -100.539,231.592 -100.332,276.785" style="fill:#fff;fill-rule:nonzero;"/>
                </g>
                <g transform="matrix(8.33333,0,0,8.33333,28177.2,4178.65)">
                    <path d="M0,270.845C-3.715,235.664 -6.783,200.613 -11.687,166.046C-14.169,148.799 -16.989,131.596 -21.33,115.144C-21.899,113.105 -22.377,111.011 -23.012,109.019L-24.878,103.02C-26.184,99.007 -27.704,94.993 -29.237,91.043C-32.366,83.151 -35.836,75.435 -39.865,68.036C-43.811,60.568 -48.304,53.52 -53.216,46.314C-55.633,42.643 -58.219,39.016 -60.705,34.379C-61.917,32.047 -63.172,29.365 -63.834,25.94C-64.54,22.546 -64.196,18.452 -62.96,15.235C-61.758,11.997 -60.06,9.428 -58.367,7.349C-56.343,4.789 -52.778,1.851 -49.112,0.992C-45.517,0.012 -41.96,0 -39.073,0.64C-36.052,1.168 -33.493,2.182 -31.042,3.264C-26.226,5.512 -22.176,8.367 -18.444,11.447C-14.729,14.545 -11.365,17.89 -8.287,21.421C-2.069,28.439 3.06,36.165 7.442,44.211C11.809,52.267 15.371,60.696 18.045,69.362C23.319,86.698 25.473,104.88 23.614,122.515C21.707,104.921 17.385,87.921 10.279,72.282C6.8,64.446 2.63,56.969 -2.075,49.936C-6.799,42.923 -12.056,36.298 -17.959,30.529C-20.872,27.609 -23.975,24.936 -27.193,22.609C-30.385,20.272 -33.729,18.212 -36.989,16.924C-40.185,15.6 -43.432,15.32 -44.565,15.836C-44.686,15.918 -44.809,15.967 -44.952,15.988C-45.039,16.08 -45.101,16.176 -45.203,16.219C-45.327,16.22 -45.368,16.405 -45.456,16.498C-45.555,16.646 -45.596,16.54 -45.883,16.994C-46.932,18.352 -47.543,19.608 -47.827,20.511C-48.079,21.436 -48.077,21.884 -47.904,22.808C-47.716,23.716 -47.132,25.097 -46.266,26.631C-44.53,29.729 -41.967,33.274 -39.446,36.885C-34.366,44.175 -29.31,51.96 -24.982,60.045C-20.663,68.154 -16.92,76.541 -13.684,85.066C-12.127,89.361 -10.625,93.622 -9.302,98.012L-7.395,104.67C-6.733,106.887 -6.339,109.116 -5.801,111.338C-1.776,129.116 0.218,146.894 1.48,164.651C3.848,200.162 3.274,235.6 0,270.845" style="fill:#006957;fill-rule:nonzero;"/>
                </g>
                <g transform="matrix(8.33333,0,0,8.33333,29163.4,5771.99)">
                    <path d="M0,-65.167C4.256,-72.954 9.171,-80.42 14.674,-87.5C20.186,-94.575 26.399,-101.145 33.06,-107.291C39.79,-113.354 47.071,-118.872 54.777,-123.748C56.707,-124.959 58.668,-126.127 60.625,-127.299C62.599,-128.417 64.591,-129.514 66.613,-130.573C70.655,-132.69 74.798,-134.684 79.083,-136.47C83.385,-138.219 87.811,-139.796 92.45,-141.014C97.085,-142.235 101.926,-143.126 107.054,-143.277C112.16,-143.414 117.633,-142.895 123.095,-140.674C128.501,-138.494 133.854,-134.22 136.683,-128.082C138.086,-125.03 138.935,-121.626 138.688,-117.76C138.536,-115.821 138.13,-113.733 136.967,-111.467C136.678,-110.904 136.321,-110.327 135.917,-109.76C135.704,-109.472 135.47,-109.184 135.238,-108.905C135.163,-108.806 134.892,-108.522 134.674,-108.312C134.446,-108.091 134.209,-107.877 133.966,-107.673C132.151,-106.247 130.818,-105.837 129.855,-105.496C127.887,-104.881 126.709,-104.725 125.496,-104.49L122.227,-103.923C120.176,-103.556 118.239,-103.157 116.328,-102.67C108.739,-100.727 101.529,-97.468 94.731,-93.095C81.128,-84.334 69.294,-72.009 58.741,-58.663C48.108,-45.302 38.754,-30.686 29.911,-15.708C12.308,14.367 -2.694,46.246 -18.005,78.247C-13.882,60.97 -8.605,44.016 -2.729,27.219C3.22,10.452 10.09,-6.037 18.021,-22.115C25.961,-38.185 35.034,-53.83 45.886,-68.514C56.809,-83.072 69.488,-96.963 85.702,-107.312C93.78,-112.422 102.866,-116.567 112.474,-118.709C114.855,-119.257 117.256,-119.689 119.559,-120.045L122.826,-120.533C123.786,-120.673 124.795,-120.868 124.936,-120.917C125.022,-120.907 124.724,-120.932 123.78,-120.182C123.64,-120.07 123.505,-119.948 123.38,-119.819L123.109,-119.518C123.049,-119.454 122.995,-119.375 122.951,-119.306C122.864,-119.19 122.807,-119.076 122.772,-119.004C122.645,-118.694 122.751,-118.798 122.784,-119.054C122.876,-119.6 122.76,-120.643 122.352,-121.607C121.563,-123.599 119.717,-125.429 117.042,-126.692C114.369,-127.974 110.891,-128.617 107.197,-128.687C99.739,-128.778 91.569,-126.941 83.669,-124.267C75.728,-121.621 67.823,-118.081 60.188,-114.262C52.574,-110.364 45.209,-105.929 38.156,-100.959C31.078,-96.013 24.462,-90.38 18.067,-84.42C11.729,-78.402 5.766,-71.914 0,-65.167" style="fill:#006957;fill-rule:nonzero;"/>
                </g>
                <g transform="matrix(8.1759,-1.61218,-1.61218,-8.1759,28798,5760.68)">
                    <path d="M-10.859,2.445C-25.954,7.595 -38.58,19.441 -44.118,35.707C-53.599,63.557 -38.709,93.82 -10.859,103.302C16.991,112.784 47.255,97.894 56.737,70.044C66.219,42.193 51.329,11.93 23.478,2.448" style="fill:#fff;fill-rule:nonzero;"/>
                </g>
                <g transform="matrix(8.33333,0,0,8.33333,28705.3,4796.33)">
                    <path d="M0,115.425C-12.666,115.801 -25.922,110.699 -35.862,101.379C-40.897,96.762 -44.917,91.045 -47.977,84.786C-51.024,78.517 -52.961,71.585 -53.508,64.487C-54.633,50.287 -50.338,35.549 -41.505,23.927C-32.747,12.17 -19.425,4.133 -5.036,1.192C2.173,-0.212 9.639,-0.376 16.861,0.873C24.069,2.165 31.051,4.663 37.331,8.364C49.923,15.713 59.623,27.735 63.821,41.34C68.183,54.893 67.35,69.821 61.541,82.167C55.851,94.547 45.527,104.284 33.688,108.779C34.866,107.702 36.034,106.652 37.201,105.639C38.364,104.615 39.352,103.386 40.413,102.291C41.513,101.237 42.39,99.958 43.342,98.789C43.799,98.185 44.297,97.625 44.714,96.997L45.924,95.09C49.123,90.039 51.487,84.627 52.855,79.055C55.695,67.917 54.442,56.316 50.004,46.539C47.78,41.653 44.834,37.083 41.168,33.289C37.498,29.504 33.313,26.284 28.673,23.925C24.055,21.55 19.072,19.894 13.953,19.187C8.85,18.374 3.621,18.575 -1.401,19.606C-6.443,20.571 -11.293,22.466 -15.763,25.066C-16.847,25.767 -17.993,26.385 -19.048,27.131L-22.131,29.485L-24.971,32.132C-25.914,33.019 -26.71,34.048 -27.605,34.992C-34.333,42.913 -38.381,53.259 -38.803,64.047C-39.016,69.442 -38.219,74.9 -36.585,80.188C-34.898,85.445 -32.497,90.663 -29.041,95.235C-25.694,99.897 -21.425,103.99 -16.542,107.452C-11.638,110.899 -6.037,113.527 0,115.425" style="fill:#006957;fill-rule:nonzero;"/>
                </g>
                <g transform="matrix(8.33333,0,0,8.33333,28218.8,8193.52)">
                    <path d="M0,-179.949C0,-179.949 -54.044,-148.315 -53.385,-104.168C-52.726,-60.021 17.674,-63.322 35.523,-63.322C53.372,-63.322 48.007,-26.423 65.515,-22.469C83.023,-18.516 67.868,-74.523 62.596,-86.384C57.325,-98.244 39.208,-76.826 1.651,-90.004C-35.907,-103.183 4.606,-139.096 34.916,-152.934C34.916,-152.934 76.447,-138.444 125.865,-87.049C175.283,-35.654 175.596,0 203.93,-20.626C232.263,-41.251 248.723,-52.779 240.157,-65.957C231.591,-79.136 211.51,-46.836 193.72,-58.697C175.929,-70.557 99.885,-173.822 99.885,-173.822" style="fill:#fff;fill-rule:nonzero;"/>
                </g>
                <g transform="matrix(8.33333,0,0,8.33333,28158.6,8129.72)">
                    <path d="M0,-166.612C-15.788,-154.867 -29.378,-139.677 -36.479,-122.213C-39.914,-113.504 -41.51,-104.145 -40.826,-95.187C-40.46,-90.879 -39.193,-86.893 -37.16,-83.398C-35.102,-79.907 -32.153,-76.938 -28.633,-74.496C-21.544,-69.59 -12.485,-66.897 -3.29,-65.073C5.98,-63.308 15.615,-62.605 25.31,-62.431C30.171,-62.364 35.022,-62.347 40.014,-62.408L41.911,-62.421L42.945,-62.419C43.429,-62.399 43.897,-62.406 44.396,-62.344C46.352,-62.162 48.432,-61.647 50.31,-60.711C54.154,-58.844 56.687,-55.771 58.348,-53.06C60.054,-50.29 61.089,-47.6 61.998,-45.036C62.893,-42.468 63.615,-39.996 64.323,-37.617C65.713,-32.893 67.101,-28.382 68.992,-25.073C69.917,-23.418 70.94,-22.182 72.001,-21.429C72.534,-21.039 73.095,-20.756 73.738,-20.546C74.383,-20.336 74.561,-20.367 74.312,-20.29C74.055,-20.185 73.868,-19.874 74.12,-20.133C74.326,-20.379 74.655,-21.026 74.892,-21.846C75.404,-23.509 75.651,-25.716 75.746,-27.939C75.916,-32.45 75.523,-37.263 74.926,-42.043C74.323,-46.836 73.485,-51.653 72.496,-56.444C71.504,-61.233 70.364,-66.015 68.993,-70.685C68.315,-72.995 67.572,-75.378 66.757,-77.421C66.438,-78.204 66.116,-78.631 65.782,-78.874C65.452,-79.131 64.798,-79.334 63.86,-79.366C61.962,-79.432 59.535,-78.912 57.155,-78.407C54.746,-77.886 52.268,-77.329 49.756,-76.868C44.733,-75.924 39.557,-75.402 34.399,-75.448C29.237,-75.446 24.091,-76.059 19.073,-77.121C16.561,-77.647 14.08,-78.293 11.637,-79.049C9.21,-79.806 6.779,-80.641 4.351,-81.724C1.951,-82.819 -0.421,-84.129 -2.549,-85.931C-4.668,-87.708 -6.566,-90.03 -7.62,-92.81C-8.688,-95.581 -8.839,-98.631 -8.359,-101.404C-7.873,-104.19 -6.859,-106.749 -5.664,-109.135C-3.223,-113.898 0.05,-117.98 3.554,-121.74C7.078,-125.492 10.896,-128.898 14.844,-132.124C22.788,-138.526 31.356,-144.076 40.577,-148.691L41.867,-149.336L43.372,-148.82C48.602,-147.027 53.256,-144.966 58.005,-142.707C62.728,-140.481 67.316,-138.026 71.867,-135.497C80.924,-130.375 89.694,-124.751 98.075,-118.602C102.332,-115.608 106.351,-112.32 110.477,-109.15L116.447,-104.14C118.452,-102.485 120.399,-100.766 122.309,-99.006L128.089,-93.777L133.696,-88.369C137.434,-84.772 141.097,-81.054 144.639,-77.22C151.738,-69.573 158.456,-61.554 164.776,-53.284C171.126,-45.063 176.985,-36.422 182.814,-28.365C185.718,-24.401 188.703,-20.478 191.611,-17.812C193.05,-16.493 194.417,-15.61 195.407,-15.273C196.404,-14.941 197.092,-14.914 198.391,-15.178C199.653,-15.447 201.332,-16.196 203.064,-17.228C204.807,-18.251 206.536,-19.561 208.7,-21.145L220.923,-30.149C224.92,-33.153 228.846,-36.184 232.401,-39.298C235.927,-42.357 239.222,-45.697 240.784,-48.496C241.55,-49.887 241.746,-50.832 241.721,-51.5C241.685,-51.858 241.632,-52.239 241.442,-52.733C241.31,-52.988 241.239,-53.246 241.046,-53.544L240.793,-53.99C240.739,-54.06 240.71,-54.135 240.691,-54.151C240.571,-54.286 240.94,-53.926 241.449,-53.785C241.946,-53.65 242.052,-53.791 241.6,-53.703C240.712,-53.578 238.704,-52.706 236.741,-51.619C232.668,-49.411 228.156,-46.417 222.711,-44.015C219.972,-42.833 216.923,-41.78 213.464,-41.289C210.036,-40.782 206.103,-40.988 202.511,-42.255C200.72,-42.871 199.038,-43.713 197.527,-44.688C196.726,-45.172 196.162,-45.686 195.477,-46.193L194.515,-46.958L193.701,-47.692L192.09,-49.163L190.626,-50.622C189.627,-51.595 188.734,-52.571 187.815,-53.547C184.199,-57.463 180.801,-61.389 177.528,-65.407C171.012,-73.444 164.745,-81.573 158.593,-89.777C152.513,-98.035 146.488,-106.309 140.599,-114.679C128.843,-131.434 117.391,-148.379 106.5,-165.721L107.71,-166.611C121.091,-151.14 134.248,-135.522 147.459,-119.989C154.064,-112.224 160.632,-104.439 167.315,-96.774C173.936,-89.063 180.613,-81.411 187.44,-74.006C190.866,-70.33 194.265,-66.64 197.752,-63.229C198.621,-62.386 199.49,-61.517 200.359,-60.751L201.659,-59.565L202.925,-58.515L203.554,-57.992L204.115,-57.6C204.471,-57.37 204.864,-57.028 205.173,-56.877C205.821,-56.495 206.453,-56.22 207.083,-56.033C208.333,-55.659 209.641,-55.604 211.245,-55.891C212.836,-56.173 214.653,-56.813 216.56,-57.721C220.439,-59.512 224.431,-62.237 229.243,-65.033C231.733,-66.397 234.302,-67.94 238.418,-68.913C240.449,-69.362 243.192,-69.595 246.133,-68.693C249.104,-67.82 251.547,-65.773 252.999,-63.918C253.388,-63.445 253.701,-62.978 254.01,-62.525L254.733,-61.327C255.214,-60.541 255.632,-59.611 256.034,-58.712C256.812,-56.843 257.342,-54.714 257.507,-52.532C257.826,-48.077 256.437,-43.961 254.771,-40.894C253.072,-37.795 251.103,-35.344 249.121,-33.147C247.127,-30.962 245.098,-29.025 243.038,-27.215C238.923,-23.597 234.765,-20.387 230.615,-17.25C226.467,-14.127 222.319,-11.103 218.175,-8.125C216.211,-6.717 213.86,-4.943 211.19,-3.398C208.525,-1.866 205.537,-0.388 201.802,0.432C198.132,1.303 193.508,1.076 189.744,-0.465C185.955,-1.963 183.162,-4.204 180.88,-6.352C176.378,-10.729 173.345,-15.127 170.285,-19.421C164.333,-28.027 158.874,-36.378 152.971,-44.481C147.105,-52.58 140.9,-60.384 134.303,-67.867C120.935,-82.672 106.597,-96.856 91.037,-109.453C83.276,-115.783 75.284,-121.859 66.9,-127.336C62.701,-130.055 58.455,-132.714 54.095,-135.141C49.791,-137.58 45.217,-139.924 40.9,-141.734L43.694,-141.864C34.82,-138.133 26.311,-133.177 18.461,-127.442C14.528,-124.579 10.799,-121.441 7.401,-118.026C4.014,-114.618 0.896,-110.918 -1.337,-106.863C-3.572,-102.847 -4.684,-98.273 -3.242,-94.466C-1.838,-90.627 2.005,-87.775 6.225,-85.844C14.982,-82.148 24.802,-80.13 34.357,-80.343C39.163,-80.463 43.924,-81.168 48.65,-82.252C51.019,-82.789 53.379,-83.422 55.815,-84.057C58.279,-84.66 60.725,-85.378 63.821,-85.544C65.356,-85.589 67.265,-85.415 69.083,-84.373C70.908,-83.336 72.108,-81.646 72.809,-80.172C74,-77.656 74.875,-75.319 75.761,-72.902C77.482,-68.101 79.02,-63.281 80.425,-58.402C81.819,-53.521 83.068,-48.588 84.087,-43.552C85.09,-38.507 85.922,-33.397 86.129,-27.939C86.198,-25.191 86.175,-22.383 85.499,-19.2C85.129,-17.609 84.598,-15.883 83.457,-14.029C82.37,-12.211 80.196,-10.132 77.514,-9.371C74.864,-8.54 72.463,-8.93 70.722,-9.343C68.96,-9.772 67.208,-10.493 65.649,-11.455C62.484,-13.381 60.216,-16.058 58.545,-18.633C55.248,-23.874 53.719,-29.007 52.071,-33.739C50.506,-38.425 48.942,-43.013 47.031,-45.995C46.087,-47.489 45.163,-48.299 44.474,-48.588C44.117,-48.761 43.734,-48.838 43.215,-48.884C43.095,-48.906 42.938,-48.89 42.802,-48.904L41.968,-48.906L40.129,-48.893C35.159,-48.851 30.047,-48.791 24.949,-48.997C14.74,-49.369 4.439,-50.282 -5.84,-52.428C-10.972,-53.515 -16.116,-54.895 -21.14,-56.901C-26.16,-58.887 -31.114,-61.412 -35.659,-64.833C-40.186,-68.232 -44.29,-72.625 -47.088,-77.856C-49.927,-83.072 -51.212,-88.977 -51.375,-94.604C-51.509,-105.569 -48.953,-116.228 -44.169,-125.662C-41.815,-130.382 -39.001,-134.81 -35.868,-138.937C-32.69,-143.037 -29.202,-146.836 -25.502,-150.365C-18.029,-157.352 -9.787,-163.343 -0.746,-167.915L0,-166.612Z" style="fill:#006957;fill-rule:nonzero;"/>
                </g>
                <g transform="matrix(8.33333,0,0,8.33333,29160.9,6602.13)">
                    <path d="M0,-40.708C7.734,-40.909 15.445,-40.464 23.172,-39.687C30.883,-38.754 38.59,-37.576 46.297,-34.89C48.23,-34.206 50.169,-33.43 52.13,-32.352C54.045,-31.2 56.137,-29.98 57.914,-27.158C58.767,-25.734 59.374,-23.67 58.99,-21.586C58.614,-19.54 57.602,-18.04 56.663,-16.96C54.722,-14.828 52.758,-13.67 50.841,-12.593C43.149,-8.651 35.524,-6.888 27.836,-5.195C12.476,-2.092 -2.966,-0.69 -18.408,-0.253C-33.841,0.201 -49.284,-0.297 -64.612,-2.227C-49.292,-4.17 -34.083,-5.698 -18.95,-7.516C-3.845,-9.423 11.247,-11.367 25.931,-14.381C29.592,-15.139 33.228,-15.963 36.752,-16.972C40.267,-17.942 43.758,-19.08 46.73,-20.526C48.193,-21.219 49.562,-22.085 50.239,-22.77C50.579,-23.103 50.617,-23.292 50.609,-23.135C50.609,-22.942 50.728,-22.857 50.645,-23.092C50.471,-23.608 49.344,-24.723 48.025,-25.561C46.703,-26.462 45.15,-27.292 43.533,-28.043C40.286,-29.562 36.753,-30.764 33.196,-31.931C29.634,-33.11 25.989,-34.146 22.312,-35.106C14.975,-37.147 7.493,-38.802 0,-40.708" style="fill:#006957;fill-rule:nonzero;"/>
                </g>
                <g transform="matrix(8.33333,0,0,8.33333,28285.4,6276.57)">
                    <path d="M0,35.269C-10.783,36.411 -21.579,36.298 -32.359,35.361C-37.75,34.868 -43.134,34.134 -48.509,33.052C-53.89,31.96 -59.24,30.568 -64.631,28.295C-67.312,27.079 -70.033,25.781 -72.793,23.195C-73.473,22.516 -74.154,21.711 -74.76,20.704C-75.347,19.664 -75.894,18.412 -76.01,16.943C-76.198,15.506 -75.885,13.988 -75.38,12.811C-74.879,11.576 -74.188,10.692 -73.506,9.911C-72.124,8.421 -70.715,7.474 -69.343,6.655C-67.969,5.837 -66.598,5.219 -65.239,4.673C-62.524,3.556 -59.823,2.792 -57.122,2.124C-46.328,-0.393 -35.531,-1.142 -24.696,-0.661C-34.974,2.717 -45.3,5.485 -54.933,9.173C-57.316,10.104 -59.666,11.09 -61.798,12.201C-63.892,13.283 -65.954,14.644 -66.772,15.736C-67.159,16.305 -66.995,16.305 -66.957,15.974C-67,15.681 -66.946,16.025 -66.337,16.541C-65.187,17.61 -63.073,18.778 -60.888,19.689C-56.461,21.602 -51.486,23.064 -46.492,24.402C-41.482,25.747 -36.364,26.922 -31.222,28.094C-20.923,30.428 -10.487,32.538 0,35.269" style="fill:#006957;fill-rule:nonzero;"/>
                </g>
                <g transform="matrix(8.33333,0,0,8.33333,28779.8,6682.91)">
                    <path d="M0,-24.107L-43.971,-13.042L0,0L0,-24.107Z" style="fill:#006957;fill-rule:nonzero;"/>
                </g>
                <g transform="matrix(8.33333,0,0,8.33333,26672.6,1910.67)">
                    <path d="M429.398,466.896L450.133,466.896L450.133,470.521L435.053,470.521C432.008,470.521 429.833,471.101 428.528,472.261C427.223,473.276 426.498,475.451 426.498,478.496L426.498,509.526C426.498,512.571 427.223,514.746 428.673,515.906C429.978,517.211 432.153,517.936 435.198,517.936L450.133,517.936L450.133,520.981L430.848,520.981C428.528,520.981 426.933,521.416 426.208,522.286C425.338,523.156 424.903,524.896 424.903,527.651L424.903,529.971C424.903,532.001 425.338,533.451 426.208,534.466C426.933,535.481 428.528,536.061 430.848,536.061L450.133,536.061L450.133,539.106L429.978,539.106C427.658,539.106 426.208,539.541 425.338,540.411C424.468,541.281 424.033,543.021 424.033,545.776L424.033,548.096C424.033,550.126 424.468,551.576 425.338,552.591C426.208,553.606 427.658,554.186 429.978,554.186L490.298,554.186C492.763,554.186 494.358,553.606 495.228,552.591C496.098,551.576 496.533,550.126 496.533,548.096L496.533,545.776C496.388,543.021 495.808,541.281 495.083,540.411C494.358,539.541 492.763,539.106 490.298,539.106L470.578,539.106L470.578,536.061L489.428,536.061C491.893,536.061 493.488,535.481 494.358,534.466C495.228,533.451 495.663,532.001 495.663,529.971L495.663,527.651C495.518,524.896 494.938,523.156 494.213,522.286C493.488,521.416 491.893,520.981 489.428,520.981L470.578,520.981L470.578,517.936L484.933,517.936C487.543,517.936 489.573,517.211 491.023,515.906C492.473,514.601 493.198,512.426 493.198,509.381L493.198,478.786C493.198,475.451 492.473,473.131 491.023,472.116C489.428,471.101 487.398,470.521 484.788,470.521L470.578,470.521L470.578,466.896L489.138,466.896C491.603,466.896 493.198,466.461 494.068,465.446C494.938,464.431 495.373,462.836 495.373,460.806L495.373,458.486C495.373,455.731 494.938,453.991 494.068,453.121C493.198,452.251 491.603,451.816 489.138,451.816L470.578,451.816L470.578,448.191L472.608,448.191C480.293,448.191 485.803,447.031 488.848,444.711C491.893,442.246 493.343,438.331 493.198,432.676L493.198,430.501C493.198,429.051 492.763,427.601 491.748,426.441C490.733,425.281 489.428,424.701 487.833,424.701L475.653,424.701C474.348,424.701 473.043,425.281 472.028,426.441C471.013,427.601 470.433,428.761 470.578,429.921C470.578,431.081 470.143,431.951 469.128,432.386C468.113,432.966 466.518,433.256 464.053,433.256L432.443,433.256C430.848,433.256 429.543,433.836 428.528,434.706C427.513,435.721 426.933,436.881 426.933,438.476L426.933,442.971C426.933,444.421 427.513,445.726 428.528,446.596C429.543,447.611 430.848,448.046 432.443,448.191L450.133,448.191L450.133,451.816L429.398,451.816C427.078,451.816 425.628,452.251 424.758,453.121C423.888,453.991 423.453,455.731 423.453,458.486L423.453,460.806C423.453,462.836 423.888,464.431 424.758,465.446C425.628,466.461 427.078,466.896 429.398,466.896ZM445.348,483.861L450.133,483.861L450.133,487.486L445.348,487.486L445.348,483.861ZM445.348,500.826L450.133,500.826L450.133,504.451L445.348,504.451L445.348,500.826ZM475.218,487.486L470.578,487.486L470.578,483.861L475.218,483.861L475.218,487.486ZM475.218,504.451L470.578,504.451L470.578,500.826L475.218,500.826L475.218,504.451ZM513.063,426.586C511.613,426.586 510.453,427.166 509.438,428.326C508.423,429.486 507.843,430.791 507.843,432.386L507.843,454.861L503.203,454.861C500.883,454.861 499.288,455.296 498.563,456.166C497.693,457.036 497.258,458.776 497.258,461.531L497.258,472.406C497.258,474.436 497.693,476.031 498.563,477.046C499.288,478.061 500.883,478.496 503.203,478.496L507.843,478.496L507.843,492.561C507.988,501.551 507.408,508.511 506.393,513.151C505.378,517.791 503.928,521.416 502.188,524.171C500.448,526.926 499.288,528.666 498.418,529.536C497.693,530.261 497.258,531.566 497.258,533.016L497.258,548.821C497.258,550.416 497.693,551.576 498.853,552.591C499.868,553.461 501.028,554.041 502.623,554.186C507.553,554.186 513.208,548.676 519.298,537.946C525.388,527.071 528.433,514.456 528.433,499.811L528.433,478.496L535.683,478.496L535.683,527.651C535.683,529.681 534.813,530.696 532.928,530.696C530.608,530.696 529.158,531.131 528.288,531.856C527.418,532.581 526.983,534.176 526.983,536.351L526.983,549.691C526.983,551.431 527.418,552.591 528.288,553.316C529.158,554.041 530.608,554.331 532.928,554.331L550.183,554.331C552.648,554.331 554.243,554.041 555.113,553.316C555.838,552.591 556.273,551.431 556.273,549.691L556.273,461.531C556.273,458.776 555.838,457.036 554.968,456.166C554.098,455.296 552.503,454.861 550.038,454.861L528.433,454.861L528.433,432.386C528.433,430.791 527.853,429.486 526.838,428.326C525.823,427.166 524.518,426.586 523.068,426.586L513.063,426.586Z" style="fill:#004033;fill-rule:nonzero;"/>
                    <path d="M618.623,441.086L618.623,432.676C618.478,431.226 617.898,429.921 616.883,428.906C615.868,427.891 614.418,427.311 612.823,427.311L601.803,427.311C600.353,427.311 599.048,427.891 598.033,428.906C596.873,429.921 596.293,431.226 596.148,432.676C596.148,442.971 594.118,453.556 590.203,464.431C586.288,475.306 581.068,481.106 574.688,481.831C572.658,482.701 571.208,483.861 570.193,485.311C569.178,486.761 568.743,488.791 568.743,491.256L568.743,502.856C568.743,505.756 569.178,507.641 570.193,508.511C571.063,509.526 572.658,509.816 574.688,509.671C579.328,509.816 583.388,508.221 586.723,505.031L586.723,548.531C586.723,550.851 587.158,552.301 588.028,553.171C588.898,553.896 590.203,554.331 591.798,554.331L605.428,554.331C607.168,554.186 608.328,553.751 609.198,553.026C609.923,552.301 610.358,550.851 610.358,548.531L610.358,478.061C614.853,468.636 617.608,456.311 618.623,441.086ZM670.533,554.331C672.998,554.331 674.593,554.041 675.463,553.316C676.188,552.591 676.623,551.431 676.623,549.691L676.623,531.421L689.818,531.421C692.283,531.421 693.878,530.986 694.748,529.971C695.618,528.956 696.053,527.506 696.053,525.331L696.053,515.181C696.053,512.426 695.618,510.686 694.748,509.816C693.878,508.946 692.283,508.511 689.818,508.511L676.623,508.511L676.623,498.651L689.818,498.651C692.283,498.651 693.878,498.071 694.748,497.056C695.618,496.186 696.053,494.591 696.053,492.561L696.053,482.266C696.053,479.656 695.618,477.771 694.748,476.901C693.878,476.031 692.283,475.741 689.818,475.741L676.623,475.741L676.623,465.736L694.893,465.736C697.358,465.736 698.953,465.301 699.823,464.286C700.693,463.271 701.128,461.676 701.128,459.646L701.128,449.496C701.128,446.741 700.693,445.001 699.823,444.131C698.953,443.261 697.358,442.826 694.893,442.826L647.768,442.826L647.768,434.706C647.768,432.676 647.188,430.936 646.173,429.486C645.013,428.036 643.273,427.311 640.808,427.311L635.733,427.311C633.123,427.311 631.238,428.036 630.078,429.486C629.063,430.936 628.483,432.676 628.483,434.561L628.483,471.536C628.338,474.581 627.033,476.031 624.568,476.031L621.523,476.031C619.058,476.031 617.318,476.756 616.448,477.916C615.433,479.076 614.853,480.816 614.853,483.281L614.853,490.821C614.853,493.431 615.433,495.171 616.593,496.331C617.753,497.491 619.638,498.071 622.103,498.071L630.513,498.071C636.603,497.926 640.953,496.476 643.708,493.576C646.318,490.531 647.623,485.601 647.768,478.641L647.768,465.736L652.408,465.736L652.408,549.691C652.408,551.431 652.843,552.591 653.713,553.316C654.583,554.041 656.033,554.331 658.353,554.331L670.533,554.331Z" style="fill:#004033;fill-rule:nonzero;"/>
                    <path d="M823.653,449.931L823.653,453.556L819.593,453.556L819.593,449.931L823.653,449.931ZM823.653,468.636L823.653,472.261L819.593,472.261L819.593,468.636L823.653,468.636ZM770.148,436.011L750.573,436.011L750.573,432.096C750.428,430.646 749.848,429.341 748.978,428.326C747.963,427.311 746.658,426.876 745.208,426.876L738.103,426.876C736.653,426.876 735.493,427.311 734.623,428.326C733.608,429.341 733.028,430.646 733.028,432.096C732.883,442.101 731.143,451.961 727.663,461.676C724.183,471.391 721.283,477.191 718.963,479.076C717.223,481.106 715.918,482.701 715.048,484.296C714.178,485.746 713.743,487.631 713.743,490.096L713.743,501.696C713.743,504.596 714.178,506.481 714.903,507.351C715.773,508.366 717.078,508.656 718.963,508.511C721.283,508.511 723.168,507.351 724.618,505.031L724.618,548.531C724.618,550.851 725.053,552.301 725.778,553.171C726.503,553.896 727.663,554.331 728.968,554.331L738.683,554.331C740.278,554.186 741.438,553.751 742.018,553.026C742.743,552.301 743.033,550.851 743.033,548.531L743.033,476.901C745.498,471.246 747.383,464.286 748.688,456.456L760.868,456.456L753.328,475.016C753.038,476.031 752.603,476.466 751.878,476.466L750.863,476.466C749.703,476.611 748.688,477.191 747.963,478.061C747.238,479.076 746.803,480.236 746.803,481.686L746.803,492.851C746.803,494.301 747.238,495.606 747.963,496.476C748.688,497.491 749.703,497.926 750.863,498.071L760.868,498.071C760.868,502.711 760.723,506.916 760.433,510.686C760.143,510.396 759.853,510.396 759.273,510.396L750.863,510.396C749.703,510.396 748.688,510.976 747.963,512.136C747.238,513.296 747.963,517.211 749.993,524.026C750.863,527.071 752.313,530.116 754.198,533.161C753.763,533.596 753.328,533.741 752.893,533.741L750.863,533.741C749.703,533.886 748.688,534.321 747.963,535.336C747.238,536.206 746.803,537.511 746.803,538.961L746.803,548.821C746.803,550.416 747.238,551.576 747.963,552.591C748.688,553.461 749.703,554.041 750.863,554.186L753.473,554.186C758.838,554.186 763.043,551.721 766.088,546.501C772.033,551.286 778.123,553.896 784.358,554.186L841.778,554.186C842.938,554.041 843.808,553.461 844.678,552.591C845.548,551.576 845.983,550.416 845.983,548.821L845.983,535.046C845.983,533.451 845.548,532.291 844.678,531.276C843.808,530.406 842.938,529.826 841.778,529.826L819.593,529.826L819.593,524.606L841.053,524.606C842.938,524.606 844.243,524.171 844.968,523.156C845.693,522.141 845.983,520.256 845.983,517.501C845.983,514.021 845.693,511.846 844.968,510.976C844.243,510.106 842.938,509.671 841.053,509.671L819.593,509.671L819.593,505.901L837.138,505.901C839.023,505.901 840.183,505.466 840.908,504.451C841.488,503.436 841.923,501.551 841.923,498.796C841.923,495.316 841.488,493.141 840.908,492.271C840.183,491.401 839.023,490.966 837.138,490.966L819.593,490.966L819.593,487.341L835.978,487.341C837.138,487.341 838.153,486.471 839.023,485.021C839.748,483.571 840.183,481.976 840.183,480.526L840.183,468.636L841.053,468.636C842.938,468.636 844.243,468.056 844.968,467.041C845.693,466.171 845.983,464.141 845.983,461.386C845.983,457.906 845.693,455.731 844.968,454.861C844.243,453.991 842.938,453.556 841.053,453.556L840.183,453.556L840.183,440.361C840.183,439.056 839.748,437.751 839.023,436.591C838.153,435.431 837.138,434.851 835.978,434.851L819.593,434.851L819.593,432.966C819.593,431.516 819.303,430.211 818.578,429.051C817.708,427.891 816.693,427.311 815.388,427.311L806.108,427.311C804.658,427.311 803.498,427.891 802.628,429.051C801.758,430.211 801.323,431.516 801.178,432.966L801.178,434.851L788.418,434.851C786.678,434.851 785.518,435.286 784.793,436.156C784.213,437.026 783.778,439.201 783.778,442.681C783.778,445.436 784.213,447.466 784.793,448.481C785.518,449.351 786.678,449.931 788.418,449.931L801.178,449.931L801.178,453.556L779.718,453.556C777.978,453.556 776.673,453.991 776.093,454.861C775.368,455.731 775.078,457.906 775.078,461.386C775.078,464.141 775.368,466.171 776.093,467.041C776.673,468.056 777.978,468.636 779.718,468.636L801.178,468.636L801.178,472.261L788.418,472.261C786.678,472.261 785.518,472.696 784.793,473.566C784.213,474.436 783.778,476.611 783.778,480.091C783.778,482.846 784.213,484.731 784.793,485.746C785.518,486.761 786.678,487.341 788.418,487.341L801.178,487.341L801.178,490.966L783.633,490.966C781.893,490.966 780.733,491.401 780.008,492.271C779.283,493.141 778.993,495.316 778.993,498.796C778.993,501.551 779.283,503.436 780.008,504.451C780.733,505.466 781.893,505.901 783.633,505.901L801.178,505.901L801.178,509.671L779.718,509.671C777.978,509.671 776.673,510.106 776.093,510.976C775.368,511.846 775.078,514.021 775.078,517.501C775.078,520.256 775.368,522.141 776.093,523.156C776.673,524.171 777.978,524.606 779.718,524.606L801.178,524.606L801.178,529.826L782.908,529.826C778.848,529.826 775.368,528.521 772.178,526.056C773.483,518.081 774.063,508.511 774.208,497.636L774.208,483.136C774.208,481.686 773.773,480.381 773.048,479.221C772.178,478.061 771.163,477.481 770.148,477.336L766.813,477.336L773.773,457.761C774.063,456.891 774.208,455.731 774.208,454.426L774.208,441.811C774.208,440.361 773.773,439.056 773.048,437.896C772.178,436.736 771.163,436.156 770.148,436.011Z" style="fill:#004033;fill-rule:nonzero;"/>
                    <path d="M896.733,514.021L896.733,488.936L929.068,488.936L929.068,492.706L906.593,492.706C904.273,492.706 902.678,493.141 901.808,493.866C900.938,494.736 900.503,496.911 900.503,500.391C900.503,503.291 900.938,505.176 901.808,506.191C902.678,507.206 904.273,507.641 906.593,507.641L929.068,507.641L929.068,548.676C929.213,550.271 929.793,551.576 930.953,552.736C932.113,553.896 933.563,554.331 935.448,554.331L949.078,554.331C950.818,554.331 952.268,553.896 953.428,552.736C954.443,551.576 955.023,550.271 955.023,548.676L955.023,507.641L977.788,507.641C979.528,507.641 980.978,507.061 981.993,505.901C983.153,504.886 983.588,503.581 983.588,501.986L983.588,488.936L984.603,488.936C987.213,488.936 988.953,488.501 989.823,487.486C990.693,486.471 991.128,484.586 991.128,481.686C991.128,478.206 990.693,476.031 989.823,475.306C988.953,474.436 987.213,474.001 984.603,474.001L983.588,474.001L983.588,460.806C983.588,459.356 983.153,458.051 981.993,457.036C980.978,455.876 979.528,455.296 977.788,455.296L955.023,455.296L955.023,451.091L982.573,451.091C985.038,451.091 986.778,450.511 987.648,449.496C988.373,448.481 988.808,447.031 988.808,445.001L988.808,440.941C988.808,438.186 988.373,436.446 987.648,435.576C986.778,434.706 985.038,434.271 982.573,434.271L946.468,434.271L946.468,430.791C946.468,429.341 945.888,428.036 944.728,427.021C943.568,425.861 942.118,425.281 940.378,425.281L928.198,425.281C926.313,425.281 924.863,425.861 923.848,427.021C922.688,428.036 922.108,429.341 921.963,430.791L921.963,434.271L881.508,434.271C879.333,434.271 877.738,434.706 876.868,435.576C875.998,436.446 875.563,438.186 875.563,440.941L875.563,510.686C875.563,517.501 874.838,522.431 873.243,525.476C871.648,528.521 869.473,530.116 866.428,530.261C864.833,530.406 863.528,530.986 862.513,531.856C861.498,532.871 861.063,534.031 861.063,535.626L861.063,549.401C861.063,550.996 861.498,552.156 862.513,553.171C863.528,554.041 864.833,554.621 866.428,554.621C875.563,554.766 882.813,551.431 888.468,544.906C893.978,538.236 896.733,527.941 896.733,514.021ZM961.258,470.231L961.258,474.001L955.023,474.001L955.023,470.231L961.258,470.231ZM961.258,488.936L961.258,492.706L955.023,492.706L955.023,488.936L961.258,488.936ZM906.448,553.461L918.918,547.806C921.093,546.646 922.688,545.921 923.848,545.196C924.863,544.616 925.443,543.166 925.443,540.991L925.443,523.446C925.443,521.126 924.863,519.676 923.848,519.096C922.688,518.516 921.093,517.646 918.918,516.631L906.448,510.976C904.708,510.251 903.113,510.396 901.953,511.411C900.648,512.426 900.068,514.166 900.068,516.631L900.068,521.996C899.923,524.171 900.358,525.766 901.228,526.491C902.098,527.216 903.838,528.231 906.448,529.681L911.233,532.146L906.448,534.756C903.838,536.061 902.098,537.076 901.228,537.801C900.358,538.526 899.923,540.121 900.068,542.296L900.068,547.806C900.068,550.271 900.648,551.866 901.953,552.881C903.113,553.896 904.708,554.041 906.448,553.461ZM977.063,553.461C978.803,554.041 980.253,553.896 981.558,552.881C982.863,551.866 983.443,550.271 983.443,547.806L983.443,542.296C983.443,540.121 983.153,538.526 982.283,537.801C981.413,537.076 979.818,536.061 977.063,534.756L972.278,532.146L977.063,529.681C979.818,528.231 981.413,527.216 982.283,526.491C983.153,525.766 983.443,524.171 983.443,521.996L983.443,516.631C983.443,514.166 982.863,512.426 981.558,511.411C980.253,510.396 978.803,510.251 977.063,510.976L964.738,516.631C962.563,517.646 960.968,518.516 959.953,519.096C958.938,519.676 958.358,521.126 958.358,523.446L958.358,540.991C958.358,543.166 958.938,544.616 959.953,545.196C960.968,545.921 962.563,546.646 964.738,547.806L977.063,553.461ZM896.733,451.091L929.068,451.091L929.068,455.296L906.593,455.296C904.273,455.296 902.678,455.731 901.808,456.601C900.938,457.471 900.503,459.646 900.503,463.126C900.503,465.881 900.938,467.766 901.808,468.781C902.678,469.796 904.273,470.231 906.593,470.231L929.068,470.231L929.068,474.001L896.733,474.001L896.733,451.091Z" style="fill:#004033;fill-rule:nonzero;"/>
                    <path d="M737.268,617.756L737.268,615.446C737.268,611.156 739.468,608.956 743.758,608.956L769.498,608.956C773.788,608.956 775.988,611.156 775.988,615.446L775.988,620.726C775.988,625.016 773.788,627.106 769.498,627.106L748.048,627.106C745.188,627.106 743.758,628.426 743.758,631.066L743.758,643.276C743.758,645.916 745.188,647.236 748.048,647.236L769.498,647.236C773.788,647.236 775.988,649.326 775.988,653.616L775.988,658.786C775.988,663.076 773.788,665.276 769.498,665.276L743.758,665.276C739.468,665.276 737.268,663.076 737.268,658.786L737.268,656.476C737.268,653.836 735.838,652.516 732.978,652.516L716.258,652.516C713.398,652.516 711.968,653.836 711.968,656.476L711.968,663.846C711.968,678.146 719.118,685.406 733.418,685.406L779.838,685.406C794.028,685.406 801.178,678.146 801.288,663.846L801.288,652.296C801.178,645.806 799.088,640.856 794.798,637.226C799.088,633.596 801.178,628.646 801.288,622.156L801.288,610.386C801.178,596.086 794.028,588.936 779.838,588.936L733.418,588.936C719.118,588.936 711.968,596.086 711.968,610.386L711.968,617.756C711.968,620.396 713.398,621.716 716.258,621.716L732.978,621.716C735.838,621.716 737.268,620.396 737.268,617.756Z" style="fill:#004033;fill-rule:nonzero;"/>
                    <path d="M830.988,658.786L830.988,653.286C830.988,648.886 833.188,646.796 837.478,646.796L863.218,646.796C867.508,646.796 869.708,648.886 869.708,653.286L869.708,658.786C869.708,663.076 867.508,665.276 863.218,665.276L837.478,665.276C833.188,665.276 830.988,663.076 830.988,658.786ZM805.688,610.386L805.688,663.846C805.688,678.146 812.838,685.406 827.138,685.406L873.558,685.406C887.748,685.406 894.898,678.146 895.008,663.846L895.008,648.226C894.898,633.816 887.748,626.666 873.558,626.666L833.188,626.666C831.758,626.666 830.988,626.006 830.988,624.576L830.988,615.446C830.988,611.156 833.188,608.956 837.478,608.956L863.218,608.956C867.508,608.956 869.708,611.156 869.708,615.446L869.708,615.666C869.708,618.306 871.138,619.626 873.998,619.626L890.718,619.626C893.578,619.626 895.008,618.306 895.008,615.666L895.008,610.386C894.898,596.086 887.748,588.936 873.558,588.936L827.138,588.936C812.838,588.936 805.688,596.086 805.688,610.386Z" style="fill:#004033;fill-rule:nonzero;"/>
                    <path d="M963.428,658.786C963.428,663.076 961.228,665.276 956.938,665.276L931.198,665.276C926.908,665.276 924.708,663.076 924.708,658.786L924.708,615.446C924.708,611.156 926.908,608.956 931.198,608.956L956.938,608.956C961.228,608.956 963.428,611.156 963.428,615.446L963.428,658.786ZM899.408,663.846C899.408,678.146 906.558,685.406 920.858,685.406L967.278,685.406C981.468,685.406 988.618,678.146 988.728,663.846L988.728,610.386C988.618,596.086 981.468,588.936 967.278,588.936L920.858,588.936C906.558,588.936 899.408,596.086 899.408,610.386L899.408,663.846Z" style="fill:#004033;fill-rule:nonzero;"/>
                </g>
            </g>
        </g>
    </g>
</svg>
