<?xml version="1.0" encoding="UTF-8" standalone="no"?>
<!DOCTYPE svg PUBLIC "-//W3C//DTD SVG 1.1//EN" "http://www.w3.org/Graphics/SVG/1.1/DTD/svg11.dtd">
<svg width="100%" height="100%" viewBox="0 0 4731 7159" version="1.1" xmlns="http://www.w3.org/2000/svg" xmlns:xlink="http://www.w3.org/1999/xlink" xml:space="preserve" xmlns:serif="http://www.serif.com/" style="fill-rule:evenodd;clip-rule:evenodd;stroke-linejoin:round;stroke-miterlimit:2;">
    <g transform="matrix(1,0,0,1,-20237,0)">
        <g id="Artboard3" transform="matrix(1,0,0,1,-0.723572,155)">
            <rect x="20237.7" y="-155" width="4730.62" height="7158.13" style="fill:none;"/>
            <clipPath id="_clip1">
                <rect x="20237.7" y="-155" width="4730.62" height="7158.13"/>
            </clipPath>
            <g clip-path="url(#_clip1)">
                <g transform="matrix(8.33333,0,0,8.33333,18132.4,-1039.28)">
                    <g opacity="0.5">
                        <g transform="matrix(1,0,0,1,408.517,365.517)">
                            <path d="M0,27.521C0,27.521 4.341,-51.986 -23.821,-100.913C-51.984,-149.841 -95.815,-188.575 -45.868,-241.58C4.079,-294.584 74.492,-216.097 86.174,-178.382C86.174,-178.382 133.532,-201.516 179.402,-162.427C179.402,-162.427 286.43,-241.58 338.416,-181.44C390.401,-121.3 318.769,-114.555 287.476,-97.882C249.826,-77.822 213.549,-23.055 193.672,27.521C173.795,78.097 228.329,168.939 258.909,185.892C258.909,185.892 318.029,154.669 340.454,185.892C362.879,217.115 325.164,275.216 282.353,298.66C239.542,322.105 211.225,315.989 157.598,234.443C157.598,234.443 155.196,303.757 107.668,302.737C60.141,301.718 64.68,260.945 64.68,260.945C64.68,260.945 -26.501,270.119 -45.868,201.825C-65.235,133.53 0,116.202 0,27.521" style="fill:#fff;fill-rule:nonzero;"/>
                        </g>
                    </g>
                </g>
                <g transform="matrix(8.33333,0,0,8.33333,21536.7,2006.69)">
                    <path d="M0,27.521C0,27.521 4.341,-51.986 -23.821,-100.913C-51.984,-149.841 -95.815,-188.575 -45.868,-241.58C4.079,-294.584 74.492,-216.097 86.174,-178.382C86.174,-178.382 133.532,-201.516 179.402,-162.427C179.402,-162.427 286.43,-241.58 338.416,-181.44C390.401,-121.3 318.769,-114.555 287.476,-97.882C249.826,-77.822 213.549,-23.055 193.672,27.521C173.795,78.097 228.329,168.939 258.909,185.892C258.909,185.892 318.029,154.669 340.454,185.892C362.879,217.115 325.164,275.216 282.353,298.66C239.542,322.105 211.225,315.989 157.598,234.443C157.598,234.443 155.196,303.757 107.668,302.737C60.141,301.718 64.68,260.945 64.68,260.945C64.68,260.945 -26.501,270.119 -45.868,201.825C-65.235,133.53 0,116.202 0,27.521" style="fill:#95ceaa;fill-rule:nonzero;"/>
                </g>
                <g transform="matrix(-5.23697,6.48217,6.48217,5.23697,22994.4,2215.35)">
                    <path d="M81.253,-114.579C81.253,-114.579 142.579,-58.062 153.411,-60.449C164.243,-62.835 81.253,42.383 81.253,42.383C81.253,42.383 75.89,-2.622 20.12,-8.6C-29.479,-13.917 81.253,-114.579 81.253,-114.579" style="fill:#fff;fill-rule:nonzero;"/>
                </g>
                <g transform="matrix(8.33333,0,0,8.33333,22735.4,69.3075)">
                    <path d="M0,295.115C79.718,71.195 151.087,96.247 157.675,88.927C164.61,81.222 153.052,45.829 86.79,80.501C57.889,95.623 36.417,116.455 19.295,141.428L-82.215,137.658C-82.215,55.802 -146.677,-1.498 -163.048,18.966C-179.419,39.43 -148.723,44.546 -126.212,112.813C-110.476,160.535 -107.741,248.182 -107.519,296.613" style="fill:#fff;fill-rule:nonzero;"/>
                </g>
                <g transform="matrix(8.33333,0,0,8.33333,21839.4,122.366)">
                    <path d="M0,290.246C-3.982,252.545 -7.269,214.983 -12.524,177.939C-15.184,159.458 -18.206,141.022 -22.858,123.392C-23.467,121.207 -23.98,118.962 -24.661,116.828L-26.66,110.399C-28.06,106.098 -29.688,101.797 -31.331,97.564C-34.684,89.107 -38.403,80.838 -42.72,72.909C-46.949,64.907 -51.764,57.353 -57.027,49.631C-59.618,45.697 -62.389,41.81 -65.053,36.842C-66.353,34.342 -67.698,31.468 -68.407,27.798C-69.163,24.161 -68.795,19.774 -67.47,16.326C-66.181,12.856 -64.362,10.103 -62.547,7.875C-60.379,5.131 -56.559,1.983 -52.63,1.063C-48.778,0.013 -44.966,0 -41.871,0.685C-38.634,1.251 -35.893,2.338 -33.266,3.497C-28.105,5.906 -23.765,8.966 -19.766,12.266C-15.784,15.587 -12.18,19.171 -8.881,22.954C-2.216,30.475 3.279,38.755 7.975,47.377C12.655,56.01 16.472,65.043 19.337,74.33C24.989,92.907 27.298,112.392 25.305,131.291C23.262,112.436 18.63,94.219 11.016,77.46C7.287,69.062 2.818,61.049 -2.224,53.512C-7.286,45.997 -12.919,38.897 -19.246,32.715C-22.367,29.586 -25.692,26.721 -29.141,24.228C-32.561,21.724 -36.145,19.516 -39.638,18.136C-43.063,16.717 -46.544,16.417 -47.758,16.97C-47.886,17.058 -48.019,17.11 -48.172,17.132C-48.266,17.231 -48.331,17.334 -48.442,17.381C-48.575,17.382 -48.617,17.58 -48.711,17.679C-48.818,17.838 -48.862,17.724 -49.169,18.211C-50.293,19.666 -50.949,21.012 -51.253,21.98C-51.524,22.971 -51.521,23.451 -51.335,24.442C-51.135,25.415 -50.509,26.894 -49.58,28.539C-47.72,31.858 -44.974,35.657 -42.271,39.527C-36.828,47.339 -31.41,55.681 -26.772,64.346C-22.143,73.036 -18.132,82.023 -14.664,91.159C-12.996,95.761 -11.386,100.328 -9.968,105.032L-7.925,112.168C-7.216,114.543 -6.793,116.932 -6.217,119.313C-1.902,138.364 0.234,157.416 1.585,176.445C4.123,214.5 3.508,252.476 0,290.246" style="fill:#006957;fill-rule:nonzero;"/>
                </g>
                <g transform="matrix(8.33333,0,0,8.33333,22896.2,1829.83)">
                    <path d="M0,-69.835C4.561,-78.179 9.828,-86.18 15.725,-93.768C21.632,-101.35 28.29,-108.39 35.428,-114.976C42.641,-121.474 50.443,-127.387 58.701,-132.612C60.769,-133.91 62.871,-135.162 64.968,-136.417C67.083,-137.616 69.218,-138.791 71.384,-139.927C75.717,-142.194 80.156,-144.332 84.748,-146.246C89.358,-148.12 94.101,-149.81 99.072,-151.115C104.04,-152.424 109.227,-153.378 114.722,-153.541C120.194,-153.687 126.059,-153.131 131.912,-150.751C137.708,-148.415 143.443,-143.835 146.474,-137.257C147.977,-133.986 148.887,-130.338 148.623,-126.195C148.46,-124.117 148.025,-121.881 146.779,-119.452C146.469,-118.849 146.086,-118.23 145.653,-117.622C145.425,-117.314 145.176,-117.005 144.925,-116.706C144.845,-116.6 144.555,-116.296 144.322,-116.071C144.077,-115.834 143.823,-115.604 143.562,-115.385C141.617,-113.857 140.189,-113.418 139.156,-113.053C137.048,-112.394 135.786,-112.226 134.486,-111.975L130.983,-111.368C128.784,-110.974 126.709,-110.546 124.661,-110.025C116.528,-107.942 108.802,-104.45 101.517,-99.763C86.939,-90.375 74.258,-77.167 62.948,-62.865C51.554,-48.547 41.53,-32.884 32.053,-16.833C13.189,15.396 -2.887,49.559 -19.295,83.852C-14.876,65.338 -9.222,47.17 -2.925,29.169C3.451,11.201 10.813,-6.469 19.312,-23.699C27.82,-40.92 37.544,-57.686 49.173,-73.422C60.879,-89.022 74.465,-103.908 91.841,-114.999C100.498,-120.475 110.235,-124.917 120.53,-127.213C123.083,-127.799 125.656,-128.263 128.123,-128.644L131.625,-129.167C132.653,-129.317 133.735,-129.526 133.886,-129.578C133.977,-129.567 133.658,-129.594 132.647,-128.791C132.497,-128.671 132.353,-128.541 132.218,-128.402L131.928,-128.079C131.863,-128.01 131.805,-127.926 131.758,-127.852C131.665,-127.728 131.604,-127.606 131.567,-127.528C131.43,-127.196 131.544,-127.308 131.579,-127.582C131.678,-128.167 131.554,-129.285 131.117,-130.318C130.271,-132.453 128.292,-134.414 125.427,-135.767C122.562,-137.142 118.835,-137.83 114.876,-137.905C106.884,-138.003 98.128,-136.034 89.663,-133.168C81.152,-130.333 72.681,-126.539 64.5,-122.447C56.34,-118.269 48.448,-113.517 40.889,-108.191C33.304,-102.891 26.214,-96.854 19.361,-90.468C12.57,-84.018 6.179,-77.066 0,-69.835" style="fill:#006957;fill-rule:nonzero;"/>
                </g>
                <g transform="matrix(8.1759,-1.61219,-1.61219,-8.1759,22504.6,1817.72)">
                    <path d="M-11.637,2.62C-27.813,8.14 -41.343,20.833 -47.278,38.265C-57.439,68.109 -41.483,100.541 -11.637,110.703C18.209,120.864 50.64,104.906 60.801,75.061C70.962,45.216 55.006,12.784 25.16,2.623" style="fill:#fff;fill-rule:nonzero;"/>
                </g>
                <g transform="matrix(8.33333,0,0,8.33333,22405.3,784.285)">
                    <path d="M0,123.693C-13.574,124.096 -27.779,118.629 -38.431,108.641C-43.826,103.693 -48.134,97.566 -51.413,90.859C-54.679,84.141 -56.755,76.713 -57.341,69.106C-58.547,53.889 -53.944,38.095 -44.477,25.641C-35.093,13.042 -20.817,4.429 -5.396,1.277C2.328,-0.228 10.33,-0.403 18.069,0.936C25.792,2.32 33.275,4.996 40.005,8.963C53.499,16.838 63.894,29.722 68.393,44.301C73.068,58.825 72.174,74.823 65.95,88.053C59.852,101.319 48.788,111.754 36.101,116.571C37.363,115.416 38.615,114.292 39.866,113.205C41.112,112.108 42.171,110.792 43.308,109.618C44.487,108.489 45.427,107.118 46.446,105.865C46.937,105.218 47.47,104.618 47.917,103.944L49.214,101.901C52.641,96.488 55.175,90.689 56.642,84.717C59.685,72.782 58.342,60.35 53.587,49.873C51.202,44.637 48.046,39.739 44.117,35.673C40.185,31.617 35.699,28.166 30.727,25.639C25.778,23.094 20.438,21.318 14.953,20.561C9.484,19.69 3.88,19.906 -1.501,21.01C-6.904,22.044 -12.102,24.074 -16.892,26.861C-18.053,27.613 -19.282,28.274 -20.412,29.074L-23.717,31.597L-26.759,34.433C-27.77,35.385 -28.623,36.487 -29.583,37.498C-36.792,45.987 -41.131,57.074 -41.583,68.634C-41.811,74.416 -40.957,80.266 -39.205,85.931C-37.398,91.566 -34.825,97.157 -31.121,102.057C-27.534,107.052 -22.959,111.439 -17.727,115.149C-12.471,118.843 -6.468,121.659 0,123.693" style="fill:#006957;fill-rule:nonzero;"/>
                </g>
                <g transform="matrix(8.33333,0,0,8.33333,21883.9,4424.82)">
                    <path d="M0,-192.839C0,-192.839 -57.915,-158.939 -57.209,-111.629C-56.503,-64.32 18.94,-67.857 38.067,-67.857C57.195,-67.857 51.446,-28.315 70.208,-24.079C88.97,-19.842 72.729,-79.861 67.08,-92.571C61.431,-105.281 42.017,-82.329 1.769,-96.451C-38.48,-110.574 4.936,-149.06 37.417,-163.888C37.417,-163.888 81.923,-148.361 134.881,-93.284C187.839,-38.208 188.175,0 218.538,-22.103C248.9,-44.206 266.539,-56.559 257.36,-70.682C248.18,-84.804 226.661,-50.191 207.596,-62.901C188.531,-75.611 107.041,-186.273 107.041,-186.273" style="fill:#fff;fill-rule:nonzero;"/>
                </g>
                <g transform="matrix(8.33333,0,0,8.33333,21819.4,4356.45)">
                    <path d="M0,-178.546C-16.919,-165.96 -31.483,-149.682 -39.092,-130.966C-42.773,-121.634 -44.484,-111.604 -43.751,-102.005C-43.358,-97.388 -42.001,-93.116 -39.822,-89.371C-37.617,-85.63 -34.457,-82.448 -30.684,-79.831C-23.087,-74.574 -13.379,-71.688 -3.526,-69.733C6.408,-67.842 16.733,-67.088 27.123,-66.902C32.332,-66.83 37.531,-66.812 42.88,-66.878L44.913,-66.892L46.021,-66.889C46.54,-66.868 47.042,-66.875 47.576,-66.809C49.673,-66.613 51.902,-66.062 53.914,-65.058C58.033,-63.058 60.748,-59.765 62.528,-56.86C64.356,-53.892 65.464,-51.009 66.439,-48.261C67.399,-45.509 68.172,-42.86 68.93,-40.31C70.421,-35.248 71.908,-30.414 73.934,-26.868C74.926,-25.095 76.022,-23.77 77.16,-22.963C77.729,-22.545 78.331,-22.242 79.021,-22.017C79.711,-21.792 79.902,-21.825 79.635,-21.742C79.359,-21.629 79.161,-21.297 79.429,-21.574C79.65,-21.838 80.004,-22.531 80.257,-23.41C80.805,-25.192 81.07,-27.557 81.172,-29.94C81.354,-34.774 80.933,-39.931 80.294,-45.053C79.647,-50.191 78.749,-55.352 77.689,-60.486C76.626,-65.618 75.404,-70.743 73.936,-75.747C73.208,-78.223 72.412,-80.776 71.539,-82.966C71.198,-83.805 70.852,-84.263 70.494,-84.524C70.141,-84.799 69.44,-85.016 68.434,-85.05C66.401,-85.121 63.799,-84.564 61.249,-84.022C58.667,-83.464 56.012,-82.867 53.32,-82.374C47.938,-81.361 42.391,-80.802 36.863,-80.852C31.331,-80.849 25.817,-81.506 20.439,-82.645C17.748,-83.209 15.088,-83.901 12.47,-84.711C9.87,-85.522 7.265,-86.417 4.662,-87.577C2.09,-88.751 -0.451,-90.154 -2.732,-92.085C-5.002,-93.99 -7.036,-96.478 -8.166,-99.458C-9.31,-102.427 -9.472,-105.695 -8.958,-108.667C-8.437,-111.652 -7.35,-114.395 -6.069,-116.952C-3.454,-122.056 0.054,-126.43 3.809,-130.46C7.585,-134.48 11.677,-138.13 15.908,-141.588C24.42,-148.448 33.603,-154.396 43.483,-159.341L44.866,-160.033L46.479,-159.48C52.083,-157.558 57.071,-155.35 62.16,-152.929C67.221,-150.544 72.138,-147.913 77.015,-145.202C86.721,-139.714 96.119,-133.687 105.1,-127.097C109.662,-123.889 113.969,-120.365 118.391,-116.968L124.788,-111.599C126.938,-109.825 129.025,-107.983 131.071,-106.098L137.264,-100.493L143.274,-94.698C147.279,-90.844 151.204,-86.859 155,-82.751C162.607,-74.556 169.807,-65.963 176.58,-57.1C183.385,-48.29 189.664,-39.03 195.909,-30.396C199.021,-26.148 202.22,-21.944 205.337,-19.087C206.878,-17.673 208.344,-16.728 209.405,-16.366C210.473,-16.01 211.211,-15.982 212.603,-16.265C213.955,-16.553 215.754,-17.355 217.61,-18.461C219.479,-19.557 221.33,-20.961 223.65,-22.659L236.749,-32.308C241.032,-35.527 245.239,-38.775 249.049,-42.112C252.828,-45.39 256.358,-48.969 258.032,-51.969C258.853,-53.459 259.064,-54.472 259.036,-55.188C258.998,-55.572 258.941,-55.98 258.737,-56.509C258.595,-56.783 258.52,-57.059 258.313,-57.378L258.042,-57.857C257.984,-57.932 257.953,-58.012 257.932,-58.029C257.803,-58.174 258.199,-57.788 258.745,-57.637C259.278,-57.492 259.391,-57.643 258.907,-57.549C257.955,-57.415 255.803,-56.48 253.7,-55.315C249.334,-52.95 244.499,-49.741 238.665,-47.167C235.729,-45.9 232.462,-44.772 228.755,-44.245C225.082,-43.703 220.867,-43.923 217.018,-45.281C215.098,-45.942 213.295,-46.844 211.677,-47.888C210.818,-48.407 210.214,-48.958 209.48,-49.501L208.448,-50.321L207.577,-51.107L205.85,-52.683L204.281,-54.247C203.21,-55.29 202.253,-56.337 201.269,-57.382C197.394,-61.578 193.753,-65.785 190.245,-70.091C183.262,-78.704 176.546,-87.415 169.953,-96.207C163.438,-105.057 156.981,-113.924 150.67,-122.893C138.073,-140.848 125.8,-159.007 114.129,-177.591L115.426,-178.545C129.765,-161.966 143.865,-145.23 158.022,-128.584C165.1,-120.262 172.138,-111.92 179.301,-103.706C186.396,-95.442 193.551,-87.242 200.867,-79.306C204.538,-75.367 208.181,-71.413 211.917,-67.758C212.848,-66.854 213.78,-65.922 214.711,-65.101L216.104,-63.83L217.462,-62.706L218.137,-62.145L218.737,-61.725C219.118,-61.479 219.54,-61.112 219.871,-60.951C220.565,-60.541 221.242,-60.246 221.917,-60.045C223.257,-59.645 224.658,-59.586 226.377,-59.894C228.082,-60.196 230.03,-60.882 232.073,-61.855C236.229,-63.774 240.508,-66.695 245.664,-69.691C248.333,-71.152 251.086,-72.806 255.497,-73.849C257.673,-74.329 260.612,-74.58 263.765,-73.613C266.949,-72.677 269.567,-70.483 271.122,-68.495C271.54,-67.989 271.874,-67.489 272.206,-67.003L272.981,-65.719C273.496,-64.877 273.944,-63.88 274.375,-62.917C275.208,-60.914 275.776,-58.633 275.953,-56.294C276.295,-51.52 274.807,-47.109 273.021,-43.822C271.2,-40.501 269.09,-37.875 266.966,-35.521C264.83,-33.179 262.656,-31.103 260.448,-29.163C256.038,-25.286 251.582,-21.846 247.135,-18.485C242.689,-15.138 238.244,-11.898 233.804,-8.706C231.698,-7.197 229.18,-5.296 226.318,-3.64C223.462,-1.999 220.26,-0.414 216.257,0.464C212.325,1.397 207.37,1.154 203.336,-0.498C199.276,-2.103 196.282,-4.504 193.837,-6.806C189.013,-11.496 185.762,-16.21 182.483,-20.811C176.105,-30.033 170.255,-38.983 163.929,-47.667C157.643,-56.346 150.993,-64.709 143.924,-72.728C129.598,-88.593 114.233,-103.793 97.558,-117.293C89.241,-124.076 80.677,-130.587 71.692,-136.457C67.192,-139.371 62.642,-142.22 57.97,-144.82C53.357,-147.435 48.456,-149.946 43.829,-151.887L46.823,-152.025C37.315,-148.027 28.196,-142.716 19.783,-136.57C15.569,-133.502 11.573,-130.139 7.931,-126.479C4.302,-122.828 0.96,-118.863 -1.432,-114.517C-3.827,-110.213 -5.02,-105.311 -3.475,-101.233C-1.97,-97.119 2.148,-94.062 6.671,-91.993C16.055,-88.031 26.578,-85.869 36.818,-86.097C41.969,-86.226 47.07,-86.981 52.135,-88.143C54.674,-88.718 57.202,-89.397 59.814,-90.077C62.453,-90.723 65.074,-91.493 68.393,-91.671C70.037,-91.719 72.084,-91.533 74.032,-90.416C75.988,-89.305 77.274,-87.494 78.024,-85.914C79.302,-83.217 80.239,-80.713 81.188,-78.124C83.032,-72.979 84.681,-67.814 86.186,-62.584C87.68,-57.354 89.018,-52.068 90.111,-46.671C91.185,-41.264 92.077,-35.788 92.298,-29.94C92.372,-26.994 92.348,-23.985 91.624,-20.574C91.227,-18.87 90.658,-17.02 89.436,-15.033C88.271,-13.084 85.941,-10.856 83.067,-10.041C80.227,-9.151 77.654,-9.569 75.788,-10.011C73.9,-10.471 72.023,-11.244 70.352,-12.275C66.96,-14.339 64.529,-17.208 62.738,-19.967C59.206,-25.583 57.568,-31.084 55.801,-36.155C54.124,-41.177 52.448,-46.093 50.4,-49.289C49.389,-50.89 48.398,-51.758 47.66,-52.067C47.277,-52.253 46.867,-52.336 46.311,-52.385C46.182,-52.409 46.014,-52.391 45.868,-52.406L44.975,-52.408L43.004,-52.394C37.677,-52.349 32.2,-52.285 26.737,-52.506C15.796,-52.905 4.757,-53.883 -6.258,-56.183C-11.758,-57.348 -17.271,-58.826 -22.654,-60.976C-28.033,-63.105 -33.343,-65.81 -38.213,-69.476C-43.065,-73.119 -47.462,-77.826 -50.461,-83.433C-53.504,-89.022 -54.88,-95.35 -55.055,-101.38C-55.198,-113.13 -52.459,-124.553 -47.333,-134.662C-44.811,-139.721 -41.794,-144.465 -38.437,-148.889C-35.031,-153.282 -31.294,-157.353 -27.329,-161.135C-19.321,-168.623 -10.488,-175.043 -0.8,-179.943L0,-178.546Z" style="fill:#006957;fill-rule:nonzero;"/>
                </g>
                <g transform="matrix(8.33333,0,0,8.33333,22893.5,2719.44)">
                    <path d="M0,-43.624C8.289,-43.84 16.551,-43.363 24.832,-42.53C33.096,-41.53 41.355,-40.268 49.614,-37.39C51.685,-36.656 53.763,-35.825 55.865,-34.669C57.918,-33.435 60.159,-32.127 62.063,-29.104C62.977,-27.578 63.627,-25.366 63.216,-23.132C62.813,-20.939 61.729,-19.332 60.722,-18.175C58.642,-15.89 56.538,-14.649 54.483,-13.495C46.24,-9.27 38.069,-7.382 29.83,-5.567C13.369,-2.242 -3.179,-0.739 -19.726,-0.271C-36.265,0.216 -52.814,-0.318 -69.241,-2.387C-52.823,-4.469 -36.524,-6.106 -20.307,-8.054C-4.12,-10.098 12.053,-12.181 27.789,-15.411C31.712,-16.224 35.609,-17.107 39.385,-18.187C43.152,-19.227 46.893,-20.447 50.077,-21.996C51.645,-22.739 53.112,-23.667 53.838,-24.401C54.202,-24.758 54.243,-24.961 54.234,-24.793C54.234,-24.586 54.362,-24.494 54.273,-24.746C54.086,-25.299 52.88,-26.494 51.466,-27.392C50.049,-28.358 48.385,-29.248 46.652,-30.052C43.172,-31.679 39.387,-32.968 35.574,-34.219C31.757,-35.481 27.851,-36.592 23.91,-37.62C16.047,-39.808 8.03,-41.582 0,-43.624" style="fill:#006957;fill-rule:nonzero;"/>
                </g>
                <g transform="matrix(8.33333,0,0,8.33333,21955.3,2370.56)">
                    <path d="M0,37.796C-11.555,39.02 -23.125,38.899 -34.677,37.895C-40.454,37.366 -46.223,36.58 -51.985,35.421C-57.75,34.249 -63.484,32.758 -69.26,30.322C-72.134,29.019 -75.049,27.628 -78.008,24.857C-78.736,24.129 -79.466,23.267 -80.115,22.187C-80.745,21.073 -81.33,19.732 -81.454,18.157C-81.656,16.617 -81.321,14.991 -80.78,13.729C-80.243,12.406 -79.503,11.459 -78.772,10.622C-77.291,9.025 -75.781,8.01 -74.311,7.132C-72.839,6.255 -71.369,5.593 -69.912,5.009C-67.003,3.811 -64.108,2.993 -61.214,2.277C-49.647,-0.42 -38.076,-1.224 -26.465,-0.708C-37.479,2.912 -48.545,5.879 -58.867,9.831C-61.422,10.829 -63.94,11.885 -66.224,13.076C-68.469,14.235 -70.678,15.694 -71.555,16.864C-71.969,17.474 -71.794,17.473 -71.754,17.118C-71.799,16.805 -71.742,17.174 -71.089,17.726C-69.857,18.872 -67.592,20.124 -65.249,21.099C-60.505,23.15 -55.174,24.717 -49.822,26.151C-44.453,27.592 -38.969,28.851 -33.458,30.107C-22.422,32.608 -11.239,34.869 0,37.796" style="fill:#006957;fill-rule:nonzero;"/>
                </g>
                <g transform="matrix(8.33333,0,0,8.33333,22485.1,2806.01)">
                    <path d="M0,-25.834L-47.12,-13.976L0,0L0,-25.834Z" style="fill:#006957;fill-rule:nonzero;"/>
                </g>
                <g transform="matrix(8.33333,0,0,8.33333,18132.4,-1039.28)">
                    <path d="M258.675,746.58L279.41,746.58L279.41,750.205L264.33,750.205C261.285,750.205 259.11,750.785 257.805,751.945C256.5,752.96 255.775,755.135 255.775,758.18L255.775,789.21C255.775,792.255 256.5,794.43 257.95,795.59C259.255,796.895 261.43,797.62 264.475,797.62L279.41,797.62L279.41,800.665L260.125,800.665C257.805,800.665 256.21,801.1 255.485,801.97C254.615,802.84 254.18,804.58 254.18,807.335L254.18,809.655C254.18,811.685 254.615,813.135 255.485,814.15C256.21,815.165 257.805,815.745 260.125,815.745L279.41,815.745L279.41,818.79L259.255,818.79C256.935,818.79 255.485,819.225 254.615,820.095C253.745,820.965 253.31,822.705 253.31,825.46L253.31,827.78C253.31,829.81 253.745,831.26 254.615,832.275C255.485,833.29 256.935,833.87 259.255,833.87L319.575,833.87C322.04,833.87 323.635,833.29 324.505,832.275C325.375,831.26 325.81,829.81 325.81,827.78L325.81,825.46C325.665,822.705 325.085,820.965 324.36,820.095C323.635,819.225 322.04,818.79 319.575,818.79L299.855,818.79L299.855,815.745L318.705,815.745C321.17,815.745 322.765,815.165 323.635,814.15C324.505,813.135 324.94,811.685 324.94,809.655L324.94,807.335C324.795,804.58 324.215,802.84 323.49,801.97C322.765,801.1 321.17,800.665 318.705,800.665L299.855,800.665L299.855,797.62L314.21,797.62C316.82,797.62 318.85,796.895 320.3,795.59C321.75,794.285 322.475,792.11 322.475,789.065L322.475,758.47C322.475,755.135 321.75,752.815 320.3,751.8C318.705,750.785 316.675,750.205 314.065,750.205L299.855,750.205L299.855,746.58L318.415,746.58C320.88,746.58 322.475,746.145 323.345,745.13C324.215,744.115 324.65,742.52 324.65,740.49L324.65,738.17C324.65,735.415 324.215,733.675 323.345,732.805C322.475,731.935 320.88,731.5 318.415,731.5L299.855,731.5L299.855,727.875L301.885,727.875C309.57,727.875 315.08,726.715 318.125,724.395C321.17,721.93 322.62,718.015 322.475,712.36L322.475,710.185C322.475,708.735 322.04,707.285 321.025,706.125C320.01,704.965 318.705,704.385 317.11,704.385L304.93,704.385C303.625,704.385 302.32,704.965 301.305,706.125C300.29,707.285 299.71,708.445 299.855,709.605C299.855,710.765 299.42,711.635 298.405,712.07C297.39,712.65 295.795,712.94 293.33,712.94L261.72,712.94C260.125,712.94 258.82,713.52 257.805,714.39C256.79,715.405 256.21,716.565 256.21,718.16L256.21,722.655C256.21,724.105 256.79,725.41 257.805,726.28C258.82,727.295 260.125,727.73 261.72,727.875L279.41,727.875L279.41,731.5L258.675,731.5C256.355,731.5 254.905,731.935 254.035,732.805C253.165,733.675 252.73,735.415 252.73,738.17L252.73,740.49C252.73,742.52 253.165,744.115 254.035,745.13C254.905,746.145 256.355,746.58 258.675,746.58ZM274.625,763.545L279.41,763.545L279.41,767.17L274.625,767.17L274.625,763.545ZM274.625,780.51L279.41,780.51L279.41,784.135L274.625,784.135L274.625,780.51ZM304.495,767.17L299.855,767.17L299.855,763.545L304.495,763.545L304.495,767.17ZM304.495,784.135L299.855,784.135L299.855,780.51L304.495,780.51L304.495,784.135ZM342.34,706.27C340.89,706.27 339.73,706.85 338.715,708.01C337.7,709.17 337.12,710.475 337.12,712.07L337.12,734.545L332.48,734.545C330.16,734.545 328.565,734.98 327.84,735.85C326.97,736.72 326.535,738.46 326.535,741.215L326.535,752.09C326.535,754.12 326.97,755.715 327.84,756.73C328.565,757.745 330.16,758.18 332.48,758.18L337.12,758.18L337.12,772.245C337.265,781.235 336.685,788.195 335.67,792.835C334.655,797.475 333.205,801.1 331.465,803.855C329.725,806.61 328.565,808.35 327.695,809.22C326.97,809.945 326.535,811.25 326.535,812.7L326.535,828.505C326.535,830.1 326.97,831.26 328.13,832.275C329.145,833.145 330.305,833.725 331.9,833.87C336.83,833.87 342.485,828.36 348.575,817.63C354.665,806.755 357.71,794.14 357.71,779.495L357.71,758.18L364.96,758.18L364.96,807.335C364.96,809.365 364.09,810.38 362.205,810.38C359.885,810.38 358.435,810.815 357.565,811.54C356.695,812.265 356.26,813.86 356.26,816.035L356.26,829.375C356.26,831.115 356.695,832.275 357.565,833C358.435,833.725 359.885,834.015 362.205,834.015L379.46,834.015C381.925,834.015 383.52,833.725 384.39,833C385.115,832.275 385.55,831.115 385.55,829.375L385.55,741.215C385.55,738.46 385.115,736.72 384.245,735.85C383.375,734.98 381.78,734.545 379.315,734.545L357.71,734.545L357.71,712.07C357.71,710.475 357.13,709.17 356.115,708.01C355.1,706.85 353.795,706.27 352.345,706.27L342.34,706.27Z" style="fill:#004033;fill-rule:nonzero;"/>
                    <path d="M447.9,720.77L447.9,712.36C447.755,710.91 447.175,709.605 446.16,708.59C445.145,707.575 443.695,706.995 442.1,706.995L431.08,706.995C429.63,706.995 428.325,707.575 427.31,708.59C426.15,709.605 425.57,710.91 425.425,712.36C425.425,722.655 423.395,733.24 419.48,744.115C415.565,754.99 410.345,760.79 403.965,761.515C401.935,762.385 400.485,763.545 399.47,764.995C398.455,766.445 398.02,768.475 398.02,770.94L398.02,782.54C398.02,785.44 398.455,787.325 399.47,788.195C400.34,789.21 401.935,789.5 403.965,789.355C408.605,789.5 412.665,787.905 416,784.715L416,828.215C416,830.535 416.435,831.985 417.305,832.855C418.175,833.58 419.48,834.015 421.075,834.015L434.705,834.015C436.445,833.87 437.605,833.435 438.475,832.71C439.2,831.985 439.635,830.535 439.635,828.215L439.635,757.745C444.13,748.32 446.885,735.995 447.9,720.77ZM499.81,834.015C502.275,834.015 503.87,833.725 504.74,833C505.465,832.275 505.9,831.115 505.9,829.375L505.9,811.105L519.095,811.105C521.56,811.105 523.155,810.67 524.025,809.655C524.895,808.64 525.33,807.19 525.33,805.015L525.33,794.865C525.33,792.11 524.895,790.37 524.025,789.5C523.155,788.63 521.56,788.195 519.095,788.195L505.9,788.195L505.9,778.335L519.095,778.335C521.56,778.335 523.155,777.755 524.025,776.74C524.895,775.87 525.33,774.275 525.33,772.245L525.33,761.95C525.33,759.34 524.895,757.455 524.025,756.585C523.155,755.715 521.56,755.425 519.095,755.425L505.9,755.425L505.9,745.42L524.17,745.42C526.635,745.42 528.23,744.985 529.1,743.97C529.97,742.955 530.405,741.36 530.405,739.33L530.405,729.18C530.405,726.425 529.97,724.685 529.1,723.815C528.23,722.945 526.635,722.51 524.17,722.51L477.045,722.51L477.045,714.39C477.045,712.36 476.465,710.62 475.45,709.17C474.29,707.72 472.55,706.995 470.085,706.995L465.01,706.995C462.4,706.995 460.515,707.72 459.355,709.17C458.34,710.62 457.76,712.36 457.76,714.245L457.76,751.22C457.615,754.265 456.31,755.715 453.845,755.715L450.8,755.715C448.335,755.715 446.595,756.44 445.725,757.6C444.71,758.76 444.13,760.5 444.13,762.965L444.13,770.505C444.13,773.115 444.71,774.855 445.87,776.015C447.03,777.175 448.915,777.755 451.38,777.755L459.79,777.755C465.88,777.61 470.23,776.16 472.985,773.26C475.595,770.215 476.9,765.285 477.045,758.325L477.045,745.42L481.685,745.42L481.685,829.375C481.685,831.115 482.12,832.275 482.99,833C483.86,833.725 485.31,834.015 487.63,834.015L499.81,834.015Z" style="fill:#004033;fill-rule:nonzero;"/>
                    <path d="M652.93,729.615L652.93,733.24L648.87,733.24L648.87,729.615L652.93,729.615ZM652.93,748.32L652.93,751.945L648.87,751.945L648.87,748.32L652.93,748.32ZM599.425,715.695L579.85,715.695L579.85,711.78C579.705,710.33 579.125,709.025 578.255,708.01C577.24,706.995 575.935,706.56 574.485,706.56L567.38,706.56C565.93,706.56 564.77,706.995 563.9,708.01C562.885,709.025 562.305,710.33 562.305,711.78C562.16,721.785 560.42,731.645 556.94,741.36C553.46,751.075 550.56,756.875 548.24,758.76C546.5,760.79 545.195,762.385 544.325,763.98C543.455,765.43 543.02,767.315 543.02,769.78L543.02,781.38C543.02,784.28 543.455,786.165 544.18,787.035C545.05,788.05 546.355,788.34 548.24,788.195C550.56,788.195 552.445,787.035 553.895,784.715L553.895,828.215C553.895,830.535 554.33,831.985 555.055,832.855C555.78,833.58 556.94,834.015 558.245,834.015L567.96,834.015C569.555,833.87 570.715,833.435 571.295,832.71C572.02,831.985 572.31,830.535 572.31,828.215L572.31,756.585C574.775,750.93 576.66,743.97 577.965,736.14L590.145,736.14L582.605,754.7C582.315,755.715 581.88,756.15 581.155,756.15L580.14,756.15C578.98,756.295 577.965,756.875 577.24,757.745C576.515,758.76 576.08,759.92 576.08,761.37L576.08,772.535C576.08,773.985 576.515,775.29 577.24,776.16C577.965,777.175 578.98,777.61 580.14,777.755L590.145,777.755C590.145,782.395 590,786.6 589.71,790.37C589.42,790.08 589.13,790.08 588.55,790.08L580.14,790.08C578.98,790.08 577.965,790.66 577.24,791.82C576.515,792.98 577.24,796.895 579.27,803.71C580.14,806.755 581.59,809.8 583.475,812.845C583.04,813.28 582.605,813.425 582.17,813.425L580.14,813.425C578.98,813.57 577.965,814.005 577.24,815.02C576.515,815.89 576.08,817.195 576.08,818.645L576.08,828.505C576.08,830.1 576.515,831.26 577.24,832.275C577.965,833.145 578.98,833.725 580.14,833.87L582.75,833.87C588.115,833.87 592.32,831.405 595.365,826.185C601.31,830.97 607.4,833.58 613.635,833.87L671.055,833.87C672.215,833.725 673.085,833.145 673.955,832.275C674.825,831.26 675.26,830.1 675.26,828.505L675.26,814.73C675.26,813.135 674.825,811.975 673.955,810.96C673.085,810.09 672.215,809.51 671.055,809.51L648.87,809.51L648.87,804.29L670.33,804.29C672.215,804.29 673.52,803.855 674.245,802.84C674.97,801.825 675.26,799.94 675.26,797.185C675.26,793.705 674.97,791.53 674.245,790.66C673.52,789.79 672.215,789.355 670.33,789.355L648.87,789.355L648.87,785.585L666.415,785.585C668.3,785.585 669.46,785.15 670.185,784.135C670.765,783.12 671.2,781.235 671.2,778.48C671.2,775 670.765,772.825 670.185,771.955C669.46,771.085 668.3,770.65 666.415,770.65L648.87,770.65L648.87,767.025L665.255,767.025C666.415,767.025 667.43,766.155 668.3,764.705C669.025,763.255 669.46,761.66 669.46,760.21L669.46,748.32L670.33,748.32C672.215,748.32 673.52,747.74 674.245,746.725C674.97,745.855 675.26,743.825 675.26,741.07C675.26,737.59 674.97,735.415 674.245,734.545C673.52,733.675 672.215,733.24 670.33,733.24L669.46,733.24L669.46,720.045C669.46,718.74 669.025,717.435 668.3,716.275C667.43,715.115 666.415,714.535 665.255,714.535L648.87,714.535L648.87,712.65C648.87,711.2 648.58,709.895 647.855,708.735C646.985,707.575 645.97,706.995 644.665,706.995L635.385,706.995C633.935,706.995 632.775,707.575 631.905,708.735C631.035,709.895 630.6,711.2 630.455,712.65L630.455,714.535L617.695,714.535C615.955,714.535 614.795,714.97 614.07,715.84C613.49,716.71 613.055,718.885 613.055,722.365C613.055,725.12 613.49,727.15 614.07,728.165C614.795,729.035 615.955,729.615 617.695,729.615L630.455,729.615L630.455,733.24L608.995,733.24C607.255,733.24 605.95,733.675 605.37,734.545C604.645,735.415 604.355,737.59 604.355,741.07C604.355,743.825 604.645,745.855 605.37,746.725C605.95,747.74 607.255,748.32 608.995,748.32L630.455,748.32L630.455,751.945L617.695,751.945C615.955,751.945 614.795,752.38 614.07,753.25C613.49,754.12 613.055,756.295 613.055,759.775C613.055,762.53 613.49,764.415 614.07,765.43C614.795,766.445 615.955,767.025 617.695,767.025L630.455,767.025L630.455,770.65L612.91,770.65C611.17,770.65 610.01,771.085 609.285,771.955C608.56,772.825 608.27,775 608.27,778.48C608.27,781.235 608.56,783.12 609.285,784.135C610.01,785.15 611.17,785.585 612.91,785.585L630.455,785.585L630.455,789.355L608.995,789.355C607.255,789.355 605.95,789.79 605.37,790.66C604.645,791.53 604.355,793.705 604.355,797.185C604.355,799.94 604.645,801.825 605.37,802.84C605.95,803.855 607.255,804.29 608.995,804.29L630.455,804.29L630.455,809.51L612.185,809.51C608.125,809.51 604.645,808.205 601.455,805.74C602.76,797.765 603.34,788.195 603.485,777.32L603.485,762.82C603.485,761.37 603.05,760.065 602.325,758.905C601.455,757.745 600.44,757.165 599.425,757.02L596.09,757.02L603.05,737.445C603.34,736.575 603.485,735.415 603.485,734.11L603.485,721.495C603.485,720.045 603.05,718.74 602.325,717.58C601.455,716.42 600.44,715.84 599.425,715.695Z" style="fill:#004033;fill-rule:nonzero;"/>
                    <path d="M726.01,793.705L726.01,768.62L758.345,768.62L758.345,772.39L735.87,772.39C733.55,772.39 731.955,772.825 731.085,773.55C730.215,774.42 729.78,776.595 729.78,780.075C729.78,782.975 730.215,784.86 731.085,785.875C731.955,786.89 733.55,787.325 735.87,787.325L758.345,787.325L758.345,828.36C758.49,829.955 759.07,831.26 760.23,832.42C761.39,833.58 762.84,834.015 764.725,834.015L778.355,834.015C780.095,834.015 781.545,833.58 782.705,832.42C783.72,831.26 784.3,829.955 784.3,828.36L784.3,787.325L807.065,787.325C808.805,787.325 810.255,786.745 811.27,785.585C812.43,784.57 812.865,783.265 812.865,781.67L812.865,768.62L813.88,768.62C816.49,768.62 818.23,768.185 819.1,767.17C819.97,766.155 820.405,764.27 820.405,761.37C820.405,757.89 819.97,755.715 819.1,754.99C818.23,754.12 816.49,753.685 813.88,753.685L812.865,753.685L812.865,740.49C812.865,739.04 812.43,737.735 811.27,736.72C810.255,735.56 808.805,734.98 807.065,734.98L784.3,734.98L784.3,730.775L811.85,730.775C814.315,730.775 816.055,730.195 816.925,729.18C817.65,728.165 818.085,726.715 818.085,724.685L818.085,720.625C818.085,717.87 817.65,716.13 816.925,715.26C816.055,714.39 814.315,713.955 811.85,713.955L775.745,713.955L775.745,710.475C775.745,709.025 775.165,707.72 774.005,706.705C772.845,705.545 771.395,704.965 769.655,704.965L757.475,704.965C755.59,704.965 754.14,705.545 753.125,706.705C751.965,707.72 751.385,709.025 751.24,710.475L751.24,713.955L710.785,713.955C708.61,713.955 707.015,714.39 706.145,715.26C705.275,716.13 704.84,717.87 704.84,720.625L704.84,790.37C704.84,797.185 704.115,802.115 702.52,805.16C700.925,808.205 698.75,809.8 695.705,809.945C694.11,810.09 692.805,810.67 691.79,811.54C690.775,812.555 690.34,813.715 690.34,815.31L690.34,829.085C690.34,830.68 690.775,831.84 691.79,832.855C692.805,833.725 694.11,834.305 695.705,834.305C704.84,834.45 712.09,831.115 717.745,824.59C723.255,817.92 726.01,807.625 726.01,793.705ZM790.535,749.915L790.535,753.685L784.3,753.685L784.3,749.915L790.535,749.915ZM790.535,768.62L790.535,772.39L784.3,772.39L784.3,768.62L790.535,768.62ZM735.725,833.145L748.195,827.49C750.37,826.33 751.965,825.605 753.125,824.88C754.14,824.3 754.72,822.85 754.72,820.675L754.72,803.13C754.72,800.81 754.14,799.36 753.125,798.78C751.965,798.2 750.37,797.33 748.195,796.315L735.725,790.66C733.985,789.935 732.39,790.08 731.23,791.095C729.925,792.11 729.345,793.85 729.345,796.315L729.345,801.68C729.2,803.855 729.635,805.45 730.505,806.175C731.375,806.9 733.115,807.915 735.725,809.365L740.51,811.83L735.725,814.44C733.115,815.745 731.375,816.76 730.505,817.485C729.635,818.21 729.2,819.805 729.345,821.98L729.345,827.49C729.345,829.955 729.925,831.55 731.23,832.565C732.39,833.58 733.985,833.725 735.725,833.145ZM806.34,833.145C808.08,833.725 809.53,833.58 810.835,832.565C812.14,831.55 812.72,829.955 812.72,827.49L812.72,821.98C812.72,819.805 812.43,818.21 811.56,817.485C810.69,816.76 809.095,815.745 806.34,814.44L801.555,811.83L806.34,809.365C809.095,807.915 810.69,806.9 811.56,806.175C812.43,805.45 812.72,803.855 812.72,801.68L812.72,796.315C812.72,793.85 812.14,792.11 810.835,791.095C809.53,790.08 808.08,789.935 806.34,790.66L794.015,796.315C791.84,797.33 790.245,798.2 789.23,798.78C788.215,799.36 787.635,800.81 787.635,803.13L787.635,820.675C787.635,822.85 788.215,824.3 789.23,824.88C790.245,825.605 791.84,826.33 794.015,827.49L806.34,833.145ZM726.01,730.775L758.345,730.775L758.345,734.98L735.87,734.98C733.55,734.98 731.955,735.415 731.085,736.285C730.215,737.155 729.78,739.33 729.78,742.81C729.78,745.565 730.215,747.45 731.085,748.465C731.955,749.48 733.55,749.915 735.87,749.915L758.345,749.915L758.345,753.685L726.01,753.685L726.01,730.775Z" style="fill:#004033;fill-rule:nonzero;"/>
                    <path d="M417.122,897.44L417.122,895.13C417.122,890.84 419.322,888.64 423.612,888.64L449.352,888.64C453.642,888.64 455.842,890.84 455.842,895.13L455.842,900.41C455.842,904.7 453.642,906.79 449.352,906.79L427.902,906.79C425.042,906.79 423.612,908.11 423.612,910.75L423.612,922.96C423.612,925.6 425.042,926.92 427.902,926.92L449.352,926.92C453.642,926.92 455.842,929.01 455.842,933.3L455.842,938.47C455.842,942.76 453.642,944.96 449.352,944.96L423.612,944.96C419.322,944.96 417.122,942.76 417.122,938.47L417.122,936.16C417.122,933.52 415.692,932.2 412.832,932.2L396.112,932.2C393.252,932.2 391.822,933.52 391.822,936.16L391.822,943.53C391.822,957.83 398.972,965.09 413.272,965.09L459.692,965.09C473.882,965.09 481.032,957.83 481.142,943.53L481.142,931.98C481.032,925.49 478.942,920.54 474.652,916.91C478.942,913.28 481.032,908.33 481.142,901.84L481.142,890.07C481.032,875.77 473.882,868.62 459.692,868.62L413.272,868.62C398.972,868.62 391.822,875.77 391.822,890.07L391.822,897.44C391.822,900.08 393.252,901.4 396.112,901.4L412.832,901.4C415.692,901.4 417.122,900.08 417.122,897.44Z" style="fill:#004033;fill-rule:nonzero;"/>
                    <path d="M510.842,938.47L510.842,932.97C510.842,928.57 513.042,926.48 517.332,926.48L543.072,926.48C547.362,926.48 549.562,928.57 549.562,932.97L549.562,938.47C549.562,942.76 547.362,944.96 543.072,944.96L517.332,944.96C513.042,944.96 510.842,942.76 510.842,938.47ZM485.542,890.07L485.542,943.53C485.542,957.83 492.692,965.09 506.992,965.09L553.412,965.09C567.602,965.09 574.752,957.83 574.862,943.53L574.862,927.91C574.752,913.5 567.602,906.35 553.412,906.35L513.042,906.35C511.612,906.35 510.842,905.69 510.842,904.26L510.842,895.13C510.842,890.84 513.042,888.64 517.332,888.64L543.072,888.64C547.362,888.64 549.562,890.84 549.562,895.13L549.562,895.35C549.562,897.99 550.992,899.31 553.852,899.31L570.572,899.31C573.432,899.31 574.862,897.99 574.862,895.35L574.862,890.07C574.752,875.77 567.602,868.62 553.412,868.62L506.992,868.62C492.692,868.62 485.542,875.77 485.542,890.07Z" style="fill:#004033;fill-rule:nonzero;"/>
                    <path d="M643.282,938.47C643.282,942.76 641.082,944.96 636.792,944.96L611.052,944.96C606.762,944.96 604.562,942.76 604.562,938.47L604.562,895.13C604.562,890.84 606.762,888.64 611.052,888.64L636.792,888.64C641.082,888.64 643.282,890.84 643.282,895.13L643.282,938.47ZM579.262,943.53C579.262,957.83 586.412,965.09 600.712,965.09L647.132,965.09C661.322,965.09 668.472,957.83 668.582,943.53L668.582,890.07C668.472,875.77 661.322,868.62 647.132,868.62L600.712,868.62C586.412,868.62 579.262,875.77 579.262,890.07L579.262,943.53Z" style="fill:#004033;fill-rule:nonzero;"/>
                </g>
            </g>
        </g>
    </g>
</svg>
