<svg width="169" height="210" viewBox="0 0 169 210" fill="none" xmlns="http://www.w3.org/2000/svg">
<path d="M112.69 26.3696C112.69 26.3696 106.69 1.57956 80.2102 1.00956C53.7302 0.43956 39.7502 25.5296 38.0602 30.6396C36.3702 35.7496 2.44018 50.2996 5.86018 66.5396C9.28018 82.7796 23.2402 71.9496 23.8602 78.5396C24.4802 85.1296 11.8602 100.47 19.3002 113.86C26.7402 127.25 34.1202 135.8 52.3502 127.26C70.5802 118.72 78.5702 109.02 84.5502 114.15C90.5302 119.28 93.9502 126.97 115.61 120.7C137.27 114.43 129.28 97.0496 127.29 85.9396C125.3 74.8296 144.38 66.2796 138.4 49.4696C132.42 32.6596 119.52 22.9496 112.69 26.3696Z" fill="#263238" stroke="#263238" stroke-miterlimit="10"/>
<path d="M65.11 114.97L68.81 129.22C68.81 129.22 49.72 139.76 37.18 144.89C30.1479 147.862 22.7805 149.967 15.24 151.16L1 209.28H168.24C168.24 209.28 145.17 156 143.46 151.73C141.75 147.46 140.89 145.18 140.89 145.18C140.89 145.18 114.68 139.18 106.99 135.18C99.3 131.18 97.87 128.92 97.87 128.92L97.06 95.0298L65.11 114.97Z" fill="#97CFAC" stroke="#263238" stroke-linecap="round" stroke-linejoin="round"/>
<path d="M108.42 135.88C107.89 135.65 107.42 135.42 106.99 135.2C99.3002 131.2 97.8702 128.94 97.8702 128.94L97.0602 95.0298L65.1502 114.97L68.8502 129.22C68.8502 129.22 64.0802 131.85 57.7502 135.12L51.4702 169.68L97.6302 171.68L108.42 135.88Z" fill="white" stroke="#263238" stroke-miterlimit="10"/>
<path d="M91.5999 104.719L95.5799 95.9194L65.1099 114.969L68.8099 129.219L71.3699 140.049L91.5999 104.719Z" fill="#263238" stroke="#263238" stroke-miterlimit="10"/>
<path d="M20.0898 209.279L28.0699 169.959" stroke="#263238" stroke-miterlimit="10"/>
<path d="M120.95 209.569L130.64 163.689" stroke="#263238" stroke-miterlimit="10"/>
<path d="M62.4901 48.8294C60.0826 51.6646 57.4032 54.257 54.4901 56.5695C50.3601 59.6595 40.8101 60.6895 40.8101 60.6895C40.8101 60.6895 42.1001 83.6895 44.6801 94.7495C47.2601 105.809 58.6201 118.229 61.2001 119.529C63.7801 120.829 85.46 111.019 91.39 106.889C97.32 102.759 100.68 92.1795 100.68 92.1795C103.999 90.9869 107 89.0469 109.45 86.5095C113.84 82.1195 112.55 71.0295 112.55 71.0295C112.55 71.0295 106.61 77.2195 103.78 77.7295C100.95 78.2395 97.3201 69.9895 97.3201 69.9895C97.3201 69.9895 85.7101 69.2195 82.8801 63.5395C80.0501 57.8595 86.2301 47.5395 80.8101 40.5395C75.3901 33.5395 62.4901 48.8294 62.4901 48.8294Z" fill="white" stroke="#263238" stroke-miterlimit="10"/>
<path d="M53.4599 68.4395C54.2144 71.0545 54.7331 73.7319 55.0099 76.4395C55.2699 80.0595 51.3999 94.2495 51.3999 94.2495H60.9499" stroke="#263238" stroke-miterlimit="10"/>
<path d="M55.79 100.94C59.6247 102.309 63.8153 102.309 67.65 100.94C73.85 98.6195 78.75 88.0396 78.75 88.0396" stroke="#263238" stroke-miterlimit="10"/>
<path d="M60.9702 102.009C60.9702 102.009 61.9702 111.259 67.1402 108.429C72.3102 105.599 73.0602 96.8193 73.0602 96.8193C69.8748 100.08 65.5278 101.946 60.9702 102.009Z" fill="#263238" stroke="#263238" stroke-miterlimit="10"/>
<path d="M69.6898 78.1394C70.7116 78.1394 71.5399 76.6396 71.5399 74.7895C71.5399 72.9393 70.7116 71.4395 69.6898 71.4395C68.6681 71.4395 67.8398 72.9393 67.8398 74.7895C67.8398 76.6396 68.6681 78.1394 69.6898 78.1394Z" fill="#263238" stroke="#263238" stroke-miterlimit="10"/>
<path d="M51.06 72.5294C51.06 74.3794 50.31 75.8794 49.39 75.8794C48.47 75.8794 47.71 74.3794 47.71 72.5294C47.71 70.6794 48.46 69.1694 49.39 69.1694C50.32 69.1694 51.06 70.6394 51.06 72.5294Z" fill="#263238" stroke="#263238" stroke-miterlimit="10"/>
<path d="M63.77 64.7298C63.77 64.7298 71.54 57.6698 77.54 67.5598" stroke="#263238" stroke-miterlimit="10"/>
<path d="M52.66 64.9096C52.66 64.9096 45.07 60.6696 43.48 67.9096" stroke="#263238" stroke-miterlimit="10"/>
</svg>
