<?xml version="1.0" encoding="UTF-8" standalone="no"?>
<!DOCTYPE svg PUBLIC "-//W3C//DTD SVG 1.1//EN" "http://www.w3.org/Graphics/SVG/1.1/DTD/svg11.dtd">
<svg width="100%" height="100%" viewBox="0 0 898 335" version="1.1" xmlns="http://www.w3.org/2000/svg" xmlns:xlink="http://www.w3.org/1999/xlink" xml:space="preserve" xmlns:serif="http://www.serif.com/" style="fill-rule:evenodd;clip-rule:evenodd;stroke-linejoin:round;stroke-miterlimit:2;">
    <g transform="matrix(1,0,0,1,-31389,0)">
        <g id="Artboard16" transform="matrix(1,0,0,1,-0.696888,384.151)">
            <rect x="31389.7" y="-384.151" width="897.741" height="334.313" style="fill:none;"/>
            <clipPath id="_clip1">
                <rect x="31389.7" y="-384.151" width="897.741" height="334.313"/>
            </clipPath>
            <g clip-path="url(#_clip1)">
                <g transform="matrix(1.53191,0,0,0.639083,-15886.4,197.104)">
                    <path d="M30861.2,-845.595L31447.3,-845.595L31447.3,-908.185L30861.2,-908.185L30861.2,-845.595Z" style="fill:white;"/>
                </g>
                <g transform="matrix(1.53191,0,0,0.639083,-15886.4,344.26)">
                    <path d="M30861.2,-845.595L31447.3,-845.595L31447.3,-908.185L30861.2,-908.185L30861.2,-845.595Z" style="fill:white;"/>
                </g>
                <g transform="matrix(1.53191,0,0,0.639083,-15886.4,491.417)">
                    <path d="M30861.2,-845.595L31447.3,-845.595L31447.3,-908.185L30861.2,-908.185L30861.2,-845.595Z" style="fill:white;"/>
                </g>
            </g>
        </g>
    </g>
</svg>
