<?xml version="1.0" encoding="UTF-8" standalone="no"?>
<!DOCTYPE svg PUBLIC "-//W3C//DTD SVG 1.1//EN" "http://www.w3.org/Graphics/SVG/1.1/DTD/svg11.dtd">
<svg width="100%" height="100%" viewBox="0 0 4731 2173" version="1.1" xmlns="http://www.w3.org/2000/svg" xmlns:xlink="http://www.w3.org/1999/xlink" xml:space="preserve" xmlns:serif="http://www.serif.com/" style="fill-rule:evenodd;clip-rule:evenodd;stroke-linejoin:round;stroke-miterlimit:2;">
    <g transform="matrix(1,0,0,1,-35576,0)">
        <g id="Artboard9" transform="matrix(1,0,0,1,-0.948764,71.1954)">
            <rect x="35576.9" y="-71.195" width="4730.62" height="2172.54" style="fill:none;"/>
            <clipPath id="_clip1">
                <rect x="35576.9" y="-71.195" width="4730.62" height="2172.54"/>
            </clipPath>
            <g clip-path="url(#_clip1)">
                <g transform="matrix(8.33333,0,0,8.33333,32049.1,-3609.57)">
                    <path d="M429.398,466.896L450.133,466.896L450.133,470.521L435.053,470.521C432.008,470.521 429.833,471.101 428.528,472.261C427.223,473.276 426.498,475.451 426.498,478.496L426.498,509.526C426.498,512.571 427.223,514.746 428.673,515.906C429.978,517.211 432.153,517.936 435.198,517.936L450.133,517.936L450.133,520.981L430.848,520.981C428.528,520.981 426.933,521.416 426.208,522.286C425.338,523.156 424.903,524.896 424.903,527.651L424.903,529.971C424.903,532.001 425.338,533.451 426.208,534.466C426.933,535.481 428.528,536.061 430.848,536.061L450.133,536.061L450.133,539.106L429.978,539.106C427.658,539.106 426.208,539.541 425.338,540.411C424.468,541.281 424.033,543.021 424.033,545.776L424.033,548.096C424.033,550.126 424.468,551.576 425.338,552.591C426.208,553.606 427.658,554.186 429.978,554.186L490.298,554.186C492.763,554.186 494.358,553.606 495.228,552.591C496.098,551.576 496.533,550.126 496.533,548.096L496.533,545.776C496.388,543.021 495.808,541.281 495.083,540.411C494.358,539.541 492.763,539.106 490.298,539.106L470.578,539.106L470.578,536.061L489.428,536.061C491.893,536.061 493.488,535.481 494.358,534.466C495.228,533.451 495.663,532.001 495.663,529.971L495.663,527.651C495.518,524.896 494.938,523.156 494.213,522.286C493.488,521.416 491.893,520.981 489.428,520.981L470.578,520.981L470.578,517.936L484.933,517.936C487.543,517.936 489.573,517.211 491.023,515.906C492.473,514.601 493.198,512.426 493.198,509.381L493.198,478.786C493.198,475.451 492.473,473.131 491.023,472.116C489.428,471.101 487.398,470.521 484.788,470.521L470.578,470.521L470.578,466.896L489.138,466.896C491.603,466.896 493.198,466.461 494.068,465.446C494.938,464.431 495.373,462.836 495.373,460.806L495.373,458.486C495.373,455.731 494.938,453.991 494.068,453.121C493.198,452.251 491.603,451.816 489.138,451.816L470.578,451.816L470.578,448.191L472.608,448.191C480.293,448.191 485.803,447.031 488.848,444.711C491.893,442.246 493.343,438.331 493.198,432.676L493.198,430.501C493.198,429.051 492.763,427.601 491.748,426.441C490.733,425.281 489.428,424.701 487.833,424.701L475.653,424.701C474.348,424.701 473.043,425.281 472.028,426.441C471.013,427.601 470.433,428.761 470.578,429.921C470.578,431.081 470.143,431.951 469.128,432.386C468.113,432.966 466.518,433.256 464.053,433.256L432.443,433.256C430.848,433.256 429.543,433.836 428.528,434.706C427.513,435.721 426.933,436.881 426.933,438.476L426.933,442.971C426.933,444.421 427.513,445.726 428.528,446.596C429.543,447.611 430.848,448.046 432.443,448.191L450.133,448.191L450.133,451.816L429.398,451.816C427.078,451.816 425.628,452.251 424.758,453.121C423.888,453.991 423.453,455.731 423.453,458.486L423.453,460.806C423.453,462.836 423.888,464.431 424.758,465.446C425.628,466.461 427.078,466.896 429.398,466.896ZM445.348,483.861L450.133,483.861L450.133,487.486L445.348,487.486L445.348,483.861ZM445.348,500.826L450.133,500.826L450.133,504.451L445.348,504.451L445.348,500.826ZM475.218,487.486L470.578,487.486L470.578,483.861L475.218,483.861L475.218,487.486ZM475.218,504.451L470.578,504.451L470.578,500.826L475.218,500.826L475.218,504.451ZM513.063,426.586C511.613,426.586 510.453,427.166 509.438,428.326C508.423,429.486 507.843,430.791 507.843,432.386L507.843,454.861L503.203,454.861C500.883,454.861 499.288,455.296 498.563,456.166C497.693,457.036 497.258,458.776 497.258,461.531L497.258,472.406C497.258,474.436 497.693,476.031 498.563,477.046C499.288,478.061 500.883,478.496 503.203,478.496L507.843,478.496L507.843,492.561C507.988,501.551 507.408,508.511 506.393,513.151C505.378,517.791 503.928,521.416 502.188,524.171C500.448,526.926 499.288,528.666 498.418,529.536C497.693,530.261 497.258,531.566 497.258,533.016L497.258,548.821C497.258,550.416 497.693,551.576 498.853,552.591C499.868,553.461 501.028,554.041 502.623,554.186C507.553,554.186 513.208,548.676 519.298,537.946C525.388,527.071 528.433,514.456 528.433,499.811L528.433,478.496L535.683,478.496L535.683,527.651C535.683,529.681 534.813,530.696 532.928,530.696C530.608,530.696 529.158,531.131 528.288,531.856C527.418,532.581 526.983,534.176 526.983,536.351L526.983,549.691C526.983,551.431 527.418,552.591 528.288,553.316C529.158,554.041 530.608,554.331 532.928,554.331L550.183,554.331C552.648,554.331 554.243,554.041 555.113,553.316C555.838,552.591 556.273,551.431 556.273,549.691L556.273,461.531C556.273,458.776 555.838,457.036 554.968,456.166C554.098,455.296 552.503,454.861 550.038,454.861L528.433,454.861L528.433,432.386C528.433,430.791 527.853,429.486 526.838,428.326C525.823,427.166 524.518,426.586 523.068,426.586L513.063,426.586Z" style="fill:#fff;fill-rule:nonzero;"/>
                    <path d="M618.623,441.086L618.623,432.676C618.478,431.226 617.898,429.921 616.883,428.906C615.868,427.891 614.418,427.311 612.823,427.311L601.803,427.311C600.353,427.311 599.048,427.891 598.033,428.906C596.873,429.921 596.293,431.226 596.148,432.676C596.148,442.971 594.118,453.556 590.203,464.431C586.288,475.306 581.068,481.106 574.688,481.831C572.658,482.701 571.208,483.861 570.193,485.311C569.178,486.761 568.743,488.791 568.743,491.256L568.743,502.856C568.743,505.756 569.178,507.641 570.193,508.511C571.063,509.526 572.658,509.816 574.688,509.671C579.328,509.816 583.388,508.221 586.723,505.031L586.723,548.531C586.723,550.851 587.158,552.301 588.028,553.171C588.898,553.896 590.203,554.331 591.798,554.331L605.428,554.331C607.168,554.186 608.328,553.751 609.198,553.026C609.923,552.301 610.358,550.851 610.358,548.531L610.358,478.061C614.853,468.636 617.608,456.311 618.623,441.086ZM670.533,554.331C672.998,554.331 674.593,554.041 675.463,553.316C676.188,552.591 676.623,551.431 676.623,549.691L676.623,531.421L689.818,531.421C692.283,531.421 693.878,530.986 694.748,529.971C695.618,528.956 696.053,527.506 696.053,525.331L696.053,515.181C696.053,512.426 695.618,510.686 694.748,509.816C693.878,508.946 692.283,508.511 689.818,508.511L676.623,508.511L676.623,498.651L689.818,498.651C692.283,498.651 693.878,498.071 694.748,497.056C695.618,496.186 696.053,494.591 696.053,492.561L696.053,482.266C696.053,479.656 695.618,477.771 694.748,476.901C693.878,476.031 692.283,475.741 689.818,475.741L676.623,475.741L676.623,465.736L694.893,465.736C697.358,465.736 698.953,465.301 699.823,464.286C700.693,463.271 701.128,461.676 701.128,459.646L701.128,449.496C701.128,446.741 700.693,445.001 699.823,444.131C698.953,443.261 697.358,442.826 694.893,442.826L647.768,442.826L647.768,434.706C647.768,432.676 647.188,430.936 646.173,429.486C645.013,428.036 643.273,427.311 640.808,427.311L635.733,427.311C633.123,427.311 631.238,428.036 630.078,429.486C629.063,430.936 628.483,432.676 628.483,434.561L628.483,471.536C628.338,474.581 627.033,476.031 624.568,476.031L621.523,476.031C619.058,476.031 617.318,476.756 616.448,477.916C615.433,479.076 614.853,480.816 614.853,483.281L614.853,490.821C614.853,493.431 615.433,495.171 616.593,496.331C617.753,497.491 619.638,498.071 622.103,498.071L630.513,498.071C636.603,497.926 640.953,496.476 643.708,493.576C646.318,490.531 647.623,485.601 647.768,478.641L647.768,465.736L652.408,465.736L652.408,549.691C652.408,551.431 652.843,552.591 653.713,553.316C654.583,554.041 656.033,554.331 658.353,554.331L670.533,554.331Z" style="fill:#fff;fill-rule:nonzero;"/>
                    <path d="M823.653,449.931L823.653,453.556L819.593,453.556L819.593,449.931L823.653,449.931ZM823.653,468.636L823.653,472.261L819.593,472.261L819.593,468.636L823.653,468.636ZM770.148,436.011L750.573,436.011L750.573,432.096C750.428,430.646 749.848,429.341 748.978,428.326C747.963,427.311 746.658,426.876 745.208,426.876L738.103,426.876C736.653,426.876 735.493,427.311 734.623,428.326C733.608,429.341 733.028,430.646 733.028,432.096C732.883,442.101 731.143,451.961 727.663,461.676C724.183,471.391 721.283,477.191 718.963,479.076C717.223,481.106 715.918,482.701 715.048,484.296C714.178,485.746 713.743,487.631 713.743,490.096L713.743,501.696C713.743,504.596 714.178,506.481 714.903,507.351C715.773,508.366 717.078,508.656 718.963,508.511C721.283,508.511 723.168,507.351 724.618,505.031L724.618,548.531C724.618,550.851 725.053,552.301 725.778,553.171C726.503,553.896 727.663,554.331 728.968,554.331L738.683,554.331C740.278,554.186 741.438,553.751 742.018,553.026C742.743,552.301 743.033,550.851 743.033,548.531L743.033,476.901C745.498,471.246 747.383,464.286 748.688,456.456L760.868,456.456L753.328,475.016C753.038,476.031 752.603,476.466 751.878,476.466L750.863,476.466C749.703,476.611 748.688,477.191 747.963,478.061C747.238,479.076 746.803,480.236 746.803,481.686L746.803,492.851C746.803,494.301 747.238,495.606 747.963,496.476C748.688,497.491 749.703,497.926 750.863,498.071L760.868,498.071C760.868,502.711 760.723,506.916 760.433,510.686C760.143,510.396 759.853,510.396 759.273,510.396L750.863,510.396C749.703,510.396 748.688,510.976 747.963,512.136C747.238,513.296 747.963,517.211 749.993,524.026C750.863,527.071 752.313,530.116 754.198,533.161C753.763,533.596 753.328,533.741 752.893,533.741L750.863,533.741C749.703,533.886 748.688,534.321 747.963,535.336C747.238,536.206 746.803,537.511 746.803,538.961L746.803,548.821C746.803,550.416 747.238,551.576 747.963,552.591C748.688,553.461 749.703,554.041 750.863,554.186L753.473,554.186C758.838,554.186 763.043,551.721 766.088,546.501C772.033,551.286 778.123,553.896 784.358,554.186L841.778,554.186C842.938,554.041 843.808,553.461 844.678,552.591C845.548,551.576 845.983,550.416 845.983,548.821L845.983,535.046C845.983,533.451 845.548,532.291 844.678,531.276C843.808,530.406 842.938,529.826 841.778,529.826L819.593,529.826L819.593,524.606L841.053,524.606C842.938,524.606 844.243,524.171 844.968,523.156C845.693,522.141 845.983,520.256 845.983,517.501C845.983,514.021 845.693,511.846 844.968,510.976C844.243,510.106 842.938,509.671 841.053,509.671L819.593,509.671L819.593,505.901L837.138,505.901C839.023,505.901 840.183,505.466 840.908,504.451C841.488,503.436 841.923,501.551 841.923,498.796C841.923,495.316 841.488,493.141 840.908,492.271C840.183,491.401 839.023,490.966 837.138,490.966L819.593,490.966L819.593,487.341L835.978,487.341C837.138,487.341 838.153,486.471 839.023,485.021C839.748,483.571 840.183,481.976 840.183,480.526L840.183,468.636L841.053,468.636C842.938,468.636 844.243,468.056 844.968,467.041C845.693,466.171 845.983,464.141 845.983,461.386C845.983,457.906 845.693,455.731 844.968,454.861C844.243,453.991 842.938,453.556 841.053,453.556L840.183,453.556L840.183,440.361C840.183,439.056 839.748,437.751 839.023,436.591C838.153,435.431 837.138,434.851 835.978,434.851L819.593,434.851L819.593,432.966C819.593,431.516 819.303,430.211 818.578,429.051C817.708,427.891 816.693,427.311 815.388,427.311L806.108,427.311C804.658,427.311 803.498,427.891 802.628,429.051C801.758,430.211 801.323,431.516 801.178,432.966L801.178,434.851L788.418,434.851C786.678,434.851 785.518,435.286 784.793,436.156C784.213,437.026 783.778,439.201 783.778,442.681C783.778,445.436 784.213,447.466 784.793,448.481C785.518,449.351 786.678,449.931 788.418,449.931L801.178,449.931L801.178,453.556L779.718,453.556C777.978,453.556 776.673,453.991 776.093,454.861C775.368,455.731 775.078,457.906 775.078,461.386C775.078,464.141 775.368,466.171 776.093,467.041C776.673,468.056 777.978,468.636 779.718,468.636L801.178,468.636L801.178,472.261L788.418,472.261C786.678,472.261 785.518,472.696 784.793,473.566C784.213,474.436 783.778,476.611 783.778,480.091C783.778,482.846 784.213,484.731 784.793,485.746C785.518,486.761 786.678,487.341 788.418,487.341L801.178,487.341L801.178,490.966L783.633,490.966C781.893,490.966 780.733,491.401 780.008,492.271C779.283,493.141 778.993,495.316 778.993,498.796C778.993,501.551 779.283,503.436 780.008,504.451C780.733,505.466 781.893,505.901 783.633,505.901L801.178,505.901L801.178,509.671L779.718,509.671C777.978,509.671 776.673,510.106 776.093,510.976C775.368,511.846 775.078,514.021 775.078,517.501C775.078,520.256 775.368,522.141 776.093,523.156C776.673,524.171 777.978,524.606 779.718,524.606L801.178,524.606L801.178,529.826L782.908,529.826C778.848,529.826 775.368,528.521 772.178,526.056C773.483,518.081 774.063,508.511 774.208,497.636L774.208,483.136C774.208,481.686 773.773,480.381 773.048,479.221C772.178,478.061 771.163,477.481 770.148,477.336L766.813,477.336L773.773,457.761C774.063,456.891 774.208,455.731 774.208,454.426L774.208,441.811C774.208,440.361 773.773,439.056 773.048,437.896C772.178,436.736 771.163,436.156 770.148,436.011Z" style="fill:#fff;fill-rule:nonzero;"/>
                    <path d="M896.733,514.021L896.733,488.936L929.068,488.936L929.068,492.706L906.593,492.706C904.273,492.706 902.678,493.141 901.808,493.866C900.938,494.736 900.503,496.911 900.503,500.391C900.503,503.291 900.938,505.176 901.808,506.191C902.678,507.206 904.273,507.641 906.593,507.641L929.068,507.641L929.068,548.676C929.213,550.271 929.793,551.576 930.953,552.736C932.113,553.896 933.563,554.331 935.448,554.331L949.078,554.331C950.818,554.331 952.268,553.896 953.428,552.736C954.443,551.576 955.023,550.271 955.023,548.676L955.023,507.641L977.788,507.641C979.528,507.641 980.978,507.061 981.993,505.901C983.153,504.886 983.588,503.581 983.588,501.986L983.588,488.936L984.603,488.936C987.213,488.936 988.953,488.501 989.823,487.486C990.693,486.471 991.128,484.586 991.128,481.686C991.128,478.206 990.693,476.031 989.823,475.306C988.953,474.436 987.213,474.001 984.603,474.001L983.588,474.001L983.588,460.806C983.588,459.356 983.153,458.051 981.993,457.036C980.978,455.876 979.528,455.296 977.788,455.296L955.023,455.296L955.023,451.091L982.573,451.091C985.038,451.091 986.778,450.511 987.648,449.496C988.373,448.481 988.808,447.031 988.808,445.001L988.808,440.941C988.808,438.186 988.373,436.446 987.648,435.576C986.778,434.706 985.038,434.271 982.573,434.271L946.468,434.271L946.468,430.791C946.468,429.341 945.888,428.036 944.728,427.021C943.568,425.861 942.118,425.281 940.378,425.281L928.198,425.281C926.313,425.281 924.863,425.861 923.848,427.021C922.688,428.036 922.108,429.341 921.963,430.791L921.963,434.271L881.508,434.271C879.333,434.271 877.738,434.706 876.868,435.576C875.998,436.446 875.563,438.186 875.563,440.941L875.563,510.686C875.563,517.501 874.838,522.431 873.243,525.476C871.648,528.521 869.473,530.116 866.428,530.261C864.833,530.406 863.528,530.986 862.513,531.856C861.498,532.871 861.063,534.031 861.063,535.626L861.063,549.401C861.063,550.996 861.498,552.156 862.513,553.171C863.528,554.041 864.833,554.621 866.428,554.621C875.563,554.766 882.813,551.431 888.468,544.906C893.978,538.236 896.733,527.941 896.733,514.021ZM961.258,470.231L961.258,474.001L955.023,474.001L955.023,470.231L961.258,470.231ZM961.258,488.936L961.258,492.706L955.023,492.706L955.023,488.936L961.258,488.936ZM906.448,553.461L918.918,547.806C921.093,546.646 922.688,545.921 923.848,545.196C924.863,544.616 925.443,543.166 925.443,540.991L925.443,523.446C925.443,521.126 924.863,519.676 923.848,519.096C922.688,518.516 921.093,517.646 918.918,516.631L906.448,510.976C904.708,510.251 903.113,510.396 901.953,511.411C900.648,512.426 900.068,514.166 900.068,516.631L900.068,521.996C899.923,524.171 900.358,525.766 901.228,526.491C902.098,527.216 903.838,528.231 906.448,529.681L911.233,532.146L906.448,534.756C903.838,536.061 902.098,537.076 901.228,537.801C900.358,538.526 899.923,540.121 900.068,542.296L900.068,547.806C900.068,550.271 900.648,551.866 901.953,552.881C903.113,553.896 904.708,554.041 906.448,553.461ZM977.063,553.461C978.803,554.041 980.253,553.896 981.558,552.881C982.863,551.866 983.443,550.271 983.443,547.806L983.443,542.296C983.443,540.121 983.153,538.526 982.283,537.801C981.413,537.076 979.818,536.061 977.063,534.756L972.278,532.146L977.063,529.681C979.818,528.231 981.413,527.216 982.283,526.491C983.153,525.766 983.443,524.171 983.443,521.996L983.443,516.631C983.443,514.166 982.863,512.426 981.558,511.411C980.253,510.396 978.803,510.251 977.063,510.976L964.738,516.631C962.563,517.646 960.968,518.516 959.953,519.096C958.938,519.676 958.358,521.126 958.358,523.446L958.358,540.991C958.358,543.166 958.938,544.616 959.953,545.196C960.968,545.921 962.563,546.646 964.738,547.806L977.063,553.461ZM896.733,451.091L929.068,451.091L929.068,455.296L906.593,455.296C904.273,455.296 902.678,455.731 901.808,456.601C900.938,457.471 900.503,459.646 900.503,463.126C900.503,465.881 900.938,467.766 901.808,468.781C902.678,469.796 904.273,470.231 906.593,470.231L929.068,470.231L929.068,474.001L896.733,474.001L896.733,451.091Z" style="fill:#fff;fill-rule:nonzero;"/>
                    <path d="M737.268,617.756L737.268,615.446C737.268,611.156 739.468,608.956 743.758,608.956L769.498,608.956C773.788,608.956 775.988,611.156 775.988,615.446L775.988,620.726C775.988,625.016 773.788,627.106 769.498,627.106L748.048,627.106C745.188,627.106 743.758,628.426 743.758,631.066L743.758,643.276C743.758,645.916 745.188,647.236 748.048,647.236L769.498,647.236C773.788,647.236 775.988,649.326 775.988,653.616L775.988,658.786C775.988,663.076 773.788,665.276 769.498,665.276L743.758,665.276C739.468,665.276 737.268,663.076 737.268,658.786L737.268,656.476C737.268,653.836 735.838,652.516 732.978,652.516L716.258,652.516C713.398,652.516 711.968,653.836 711.968,656.476L711.968,663.846C711.968,678.146 719.118,685.406 733.418,685.406L779.838,685.406C794.028,685.406 801.178,678.146 801.288,663.846L801.288,652.296C801.178,645.806 799.088,640.856 794.798,637.226C799.088,633.596 801.178,628.646 801.288,622.156L801.288,610.386C801.178,596.086 794.028,588.936 779.838,588.936L733.418,588.936C719.118,588.936 711.968,596.086 711.968,610.386L711.968,617.756C711.968,620.396 713.398,621.716 716.258,621.716L732.978,621.716C735.838,621.716 737.268,620.396 737.268,617.756Z" style="fill:#fff;fill-rule:nonzero;"/>
                    <path d="M830.988,658.786L830.988,653.286C830.988,648.886 833.188,646.796 837.478,646.796L863.218,646.796C867.508,646.796 869.708,648.886 869.708,653.286L869.708,658.786C869.708,663.076 867.508,665.276 863.218,665.276L837.478,665.276C833.188,665.276 830.988,663.076 830.988,658.786ZM805.688,610.386L805.688,663.846C805.688,678.146 812.838,685.406 827.138,685.406L873.558,685.406C887.748,685.406 894.898,678.146 895.008,663.846L895.008,648.226C894.898,633.816 887.748,626.666 873.558,626.666L833.188,626.666C831.758,626.666 830.988,626.006 830.988,624.576L830.988,615.446C830.988,611.156 833.188,608.956 837.478,608.956L863.218,608.956C867.508,608.956 869.708,611.156 869.708,615.446L869.708,615.666C869.708,618.306 871.138,619.626 873.998,619.626L890.718,619.626C893.578,619.626 895.008,618.306 895.008,615.666L895.008,610.386C894.898,596.086 887.748,588.936 873.558,588.936L827.138,588.936C812.838,588.936 805.688,596.086 805.688,610.386Z" style="fill:#fff;fill-rule:nonzero;"/>
                    <path d="M963.428,658.786C963.428,663.076 961.228,665.276 956.938,665.276L931.198,665.276C926.908,665.276 924.708,663.076 924.708,658.786L924.708,615.446C924.708,611.156 926.908,608.956 931.198,608.956L956.938,608.956C961.228,608.956 963.428,611.156 963.428,615.446L963.428,658.786ZM899.408,663.846C899.408,678.146 906.558,685.406 920.858,685.406L967.278,685.406C981.468,685.406 988.618,678.146 988.728,663.846L988.728,610.386C988.618,596.086 981.468,588.936 967.278,588.936L920.858,588.936C906.558,588.936 899.408,596.086 899.408,610.386L899.408,663.846Z" style="fill:#fff;fill-rule:nonzero;"/>
                </g>
            </g>
        </g>
    </g>
</svg>
