<?xml version="1.0" encoding="UTF-8" standalone="no"?>
<!DOCTYPE svg PUBLIC "-//W3C//DTD SVG 1.1//EN" "http://www.w3.org/Graphics/SVG/1.1/DTD/svg11.dtd">
<svg width="100%" height="100%" viewBox="0 0 7290 3958" version="1.1" xmlns="http://www.w3.org/2000/svg" xmlns:xlink="http://www.w3.org/1999/xlink" xml:space="preserve" xmlns:serif="http://www.serif.com/" style="fill-rule:evenodd;clip-rule:evenodd;stroke-linejoin:round;stroke-miterlimit:2;">
    <g transform="matrix(1,0,0,1,-38450,-4403)">
        <g id="Artboard11" transform="matrix(1,0,0,1,-0.236969,-0.545563)">
            <rect x="38450.2" y="4403.55" width="7289.77" height="3957.2" style="fill:none;"/>
            <clipPath id="_clip1">
                <rect x="38450.2" y="4403.55" width="7289.77" height="3957.2"/>
            </clipPath>
            <g clip-path="url(#_clip1)">
                <g transform="matrix(-5.23698,6.48217,6.48217,5.23698,40063.3,6355.5)">
                    <path d="M75.822,-106.92C75.822,-106.92 133.049,-54.181 143.157,-56.408C153.265,-58.635 75.822,39.55 75.822,39.55C75.822,39.55 70.819,-2.447 18.776,-8.026C-27.508,-12.986 75.822,-106.92 75.822,-106.92" style="fill:#fff;fill-rule:nonzero;"/>
                </g>
                <g transform="matrix(8.33333,0,0,8.33333,39821.5,4352.92)">
                    <path d="M0,275.387C74.389,66.435 140.987,89.813 147.135,82.981C153.606,75.792 142.821,42.764 80.988,75.119C54.019,89.231 33.983,108.669 18.005,131.973L-76.719,128.455C-76.719,52.071 -136.872,-1.398 -152.149,17.698C-167.426,36.794 -138.781,41.568 -117.776,105.271C-103.092,149.804 -100.539,231.592 -100.332,276.785" style="fill:#fff;fill-rule:nonzero;"/>
                </g>
                <g transform="matrix(8.33333,0,0,8.33333,38985.4,4402.42)">
                    <path d="M0,270.845C-3.716,235.664 -6.783,200.613 -11.687,166.046C-14.169,148.799 -16.989,131.596 -21.33,115.144C-21.899,113.105 -22.377,111.011 -23.013,109.019L-24.878,103.02C-26.184,99.007 -27.704,94.993 -29.237,91.043C-32.366,83.151 -35.837,75.435 -39.865,68.036C-43.811,60.568 -48.304,53.52 -53.216,46.314C-55.633,42.643 -58.219,39.016 -60.705,34.379C-61.917,32.047 -63.172,29.365 -63.834,25.94C-64.54,22.546 -64.196,18.452 -62.96,15.235C-61.758,11.997 -60.06,9.428 -58.367,7.349C-56.343,4.789 -52.778,1.851 -49.112,0.992C-45.517,0.012 -41.96,0 -39.073,0.64C-36.052,1.168 -33.493,2.182 -31.042,3.264C-26.227,5.512 -22.177,8.367 -18.444,11.447C-14.729,14.545 -11.366,17.89 -8.287,21.421C-2.069,28.439 3.06,36.165 7.442,44.211C11.809,52.267 15.371,60.696 18.045,69.362C23.319,86.698 25.473,104.88 23.614,122.515C21.707,104.921 17.385,87.921 10.279,72.282C6.8,64.446 2.63,56.969 -2.076,49.936C-6.799,42.923 -12.056,36.298 -17.96,30.529C-20.872,27.609 -23.975,24.936 -27.193,22.609C-30.385,20.272 -33.729,18.212 -36.989,16.924C-40.185,15.6 -43.432,15.32 -44.566,15.836C-44.686,15.918 -44.809,15.967 -44.952,15.988C-45.04,16.08 -45.101,16.176 -45.204,16.219C-45.327,16.22 -45.368,16.405 -45.456,16.498C-45.555,16.646 -45.596,16.54 -45.883,16.994C-46.932,18.352 -47.543,19.608 -47.827,20.511C-48.079,21.436 -48.077,21.884 -47.904,22.808C-47.716,23.716 -47.132,25.097 -46.266,26.631C-44.53,29.729 -41.968,33.274 -39.446,36.885C-34.366,44.175 -29.31,51.96 -24.983,60.045C-20.663,68.154 -16.92,76.541 -13.684,85.066C-12.127,89.361 -10.625,93.622 -9.302,98.012L-7.395,104.67C-6.733,106.887 -6.339,109.116 -5.801,111.338C-1.776,129.116 0.218,146.894 1.479,164.651C3.847,200.162 3.274,235.6 0,270.845" style="fill:#006957;fill-rule:nonzero;"/>
                </g>
                <g transform="matrix(8.33333,0,0,8.33333,39971.6,5995.75)">
                    <path d="M0,-65.167C4.256,-72.954 9.171,-80.42 14.674,-87.5C20.186,-94.575 26.399,-101.145 33.06,-107.291C39.79,-113.354 47.071,-118.872 54.777,-123.748C56.707,-124.959 58.668,-126.127 60.625,-127.299C62.599,-128.417 64.591,-129.514 66.613,-130.573C70.655,-132.69 74.798,-134.684 79.083,-136.47C83.385,-138.219 87.811,-139.796 92.449,-141.014C97.084,-142.235 101.926,-143.126 107.054,-143.277C112.16,-143.414 117.633,-142.895 123.094,-140.674C128.501,-138.494 133.854,-134.22 136.683,-128.082C138.086,-125.03 138.935,-121.626 138.688,-117.76C138.536,-115.821 138.13,-113.733 136.967,-111.467C136.678,-110.904 136.321,-110.327 135.917,-109.76C135.704,-109.472 135.47,-109.184 135.238,-108.905C135.163,-108.806 134.892,-108.522 134.674,-108.312C134.446,-108.091 134.209,-107.877 133.966,-107.673C132.151,-106.247 130.818,-105.837 129.854,-105.496C127.887,-104.881 126.709,-104.725 125.496,-104.49L122.227,-103.923C120.176,-103.556 118.239,-103.157 116.328,-102.67C108.739,-100.727 101.529,-97.468 94.731,-93.095C81.128,-84.334 69.294,-72.009 58.741,-58.663C48.108,-45.302 38.753,-30.686 29.911,-15.708C12.308,14.367 -2.694,46.246 -18.005,78.247C-13.882,60.97 -8.605,44.016 -2.729,27.219C3.22,10.452 10.09,-6.037 18.021,-22.115C25.961,-38.185 35.034,-53.83 45.885,-68.514C56.809,-83.072 69.488,-96.963 85.701,-107.312C93.78,-112.422 102.866,-116.567 112.473,-118.709C114.855,-119.257 117.256,-119.689 119.559,-120.045L122.826,-120.533C123.786,-120.673 124.795,-120.868 124.936,-120.917C125.021,-120.907 124.724,-120.932 123.78,-120.182C123.64,-120.07 123.505,-119.948 123.38,-119.819L123.109,-119.518C123.049,-119.454 122.995,-119.375 122.951,-119.306C122.864,-119.19 122.807,-119.076 122.772,-119.004C122.645,-118.694 122.751,-118.798 122.784,-119.054C122.876,-119.6 122.76,-120.643 122.352,-121.607C121.563,-123.599 119.717,-125.429 117.042,-126.692C114.369,-127.974 110.891,-128.617 107.197,-128.687C99.739,-128.778 91.569,-126.941 83.669,-124.267C75.728,-121.621 67.823,-118.081 60.188,-114.262C52.574,-110.364 45.209,-105.929 38.156,-100.959C31.078,-96.013 24.462,-90.38 18.067,-84.42C11.729,-78.402 5.766,-71.914 0,-65.167" style="fill:#006957;fill-rule:nonzero;"/>
                </g>
                <g transform="matrix(8.1759,-1.61218,-1.61218,-8.1759,39606.2,5984.45)">
                    <path d="M-10.859,2.445C-25.954,7.595 -38.579,19.441 -44.118,35.707C-53.599,63.557 -38.709,93.82 -10.859,103.302C16.991,112.784 47.255,97.894 56.737,70.044C66.219,42.193 51.328,11.93 23.478,2.448" style="fill:#fff;fill-rule:nonzero;"/>
                </g>
                <g transform="matrix(8.33333,0,0,8.33333,39513.5,5020.09)">
                    <path d="M0,115.425C-12.666,115.801 -25.922,110.699 -35.862,101.379C-40.897,96.762 -44.917,91.045 -47.977,84.786C-51.024,78.517 -52.961,71.585 -53.508,64.487C-54.633,50.287 -50.338,35.549 -41.505,23.927C-32.747,12.17 -19.425,4.133 -5.035,1.192C2.173,-0.212 9.639,-0.376 16.861,0.873C24.069,2.165 31.051,4.663 37.331,8.364C49.923,15.713 59.623,27.735 63.821,41.34C68.183,54.893 67.35,69.821 61.542,82.167C55.851,94.547 45.527,104.284 33.688,108.779C34.866,107.702 36.034,106.652 37.202,105.639C38.364,104.615 39.352,103.386 40.413,102.291C41.513,101.237 42.39,99.958 43.342,98.789C43.799,98.185 44.297,97.625 44.714,96.997L45.924,95.09C49.123,90.039 51.487,84.627 52.855,79.055C55.696,67.917 54.442,56.316 50.004,46.539C47.78,41.653 44.834,37.083 41.168,33.289C37.499,29.504 33.313,26.284 28.673,23.925C24.055,21.55 19.073,19.894 13.954,19.187C8.85,18.374 3.621,18.575 -1.401,19.606C-6.443,20.571 -11.293,22.466 -15.763,25.066C-16.846,25.767 -17.993,26.385 -19.047,27.131L-22.131,29.485L-24.97,32.132C-25.914,33.019 -26.709,34.048 -27.605,34.992C-34.333,42.913 -38.381,53.259 -38.803,64.047C-39.016,69.442 -38.219,74.9 -36.584,80.188C-34.898,85.445 -32.497,90.663 -29.041,95.235C-25.694,99.897 -21.425,103.99 -16.542,107.452C-11.638,110.899 -6.037,113.527 0,115.425" style="fill:#006957;fill-rule:nonzero;"/>
                </g>
                <g transform="matrix(8.33333,0,0,8.33333,39027,8417.28)">
                    <path d="M0,-179.949C0,-179.949 -54.044,-148.315 -53.385,-104.168C-52.726,-60.021 17.674,-63.322 35.523,-63.322C53.372,-63.322 48.007,-26.423 65.515,-22.469C83.023,-18.516 67.868,-74.523 62.597,-86.384C57.325,-98.244 39.208,-76.826 1.651,-90.004C-35.907,-103.183 4.606,-139.096 34.916,-152.934C34.916,-152.934 76.446,-138.444 125.865,-87.049C175.283,-35.654 175.596,0 203.93,-20.626C232.263,-41.251 248.723,-52.779 240.157,-65.957C231.591,-79.136 211.51,-46.836 193.72,-58.697C175.929,-70.557 99.885,-173.822 99.885,-173.822" style="fill:#fff;fill-rule:nonzero;"/>
                </g>
                <g transform="matrix(8.33333,0,0,8.33333,38966.8,8353.48)">
                    <path d="M0,-166.612C-15.788,-154.867 -29.378,-139.677 -36.479,-122.213C-39.914,-113.504 -41.51,-104.145 -40.826,-95.187C-40.46,-90.879 -39.193,-86.893 -37.16,-83.398C-35.102,-79.907 -32.153,-76.938 -28.633,-74.496C-21.544,-69.59 -12.485,-66.897 -3.29,-65.073C5.98,-63.308 15.615,-62.605 25.31,-62.431C30.171,-62.364 35.022,-62.347 40.014,-62.408L41.911,-62.421L42.945,-62.419C43.429,-62.399 43.897,-62.406 44.396,-62.344C46.352,-62.162 48.432,-61.647 50.31,-60.711C54.154,-58.844 56.687,-55.771 58.348,-53.06C60.054,-50.29 61.089,-47.6 61.998,-45.036C62.894,-42.468 63.615,-39.996 64.323,-37.617C65.713,-32.893 67.101,-28.382 68.991,-25.073C69.917,-23.418 70.94,-22.182 72.001,-21.429C72.534,-21.039 73.095,-20.756 73.738,-20.546C74.383,-20.336 74.561,-20.367 74.312,-20.29C74.055,-20.185 73.869,-19.874 74.12,-20.133C74.326,-20.379 74.655,-21.026 74.892,-21.846C75.404,-23.509 75.651,-25.716 75.746,-27.939C75.917,-32.45 75.523,-37.263 74.927,-42.043C74.323,-46.836 73.485,-51.653 72.496,-56.444C71.504,-61.233 70.364,-66.015 68.993,-70.685C68.315,-72.995 67.572,-75.378 66.757,-77.421C66.438,-78.204 66.116,-78.631 65.782,-78.874C65.452,-79.131 64.799,-79.334 63.86,-79.366C61.962,-79.432 59.535,-78.912 57.155,-78.407C54.746,-77.886 52.268,-77.329 49.756,-76.868C44.733,-75.924 39.557,-75.402 34.399,-75.448C29.237,-75.446 24.091,-76.059 19.073,-77.121C16.562,-77.647 14.08,-78.293 11.637,-79.049C9.21,-79.806 6.779,-80.641 4.351,-81.724C1.951,-82.819 -0.421,-84.129 -2.549,-85.931C-4.668,-87.708 -6.566,-90.03 -7.62,-92.81C-8.688,-95.581 -8.839,-98.631 -8.359,-101.404C-7.873,-104.19 -6.859,-106.749 -5.663,-109.135C-3.223,-113.898 0.05,-117.98 3.554,-121.74C7.078,-125.492 10.896,-128.898 14.844,-132.124C22.788,-138.526 31.356,-144.076 40.577,-148.691L41.867,-149.336L43.372,-148.82C48.602,-147.027 53.256,-144.966 58.005,-142.707C62.728,-140.481 67.316,-138.026 71.867,-135.497C80.925,-130.375 89.694,-124.751 98.074,-118.602C102.332,-115.608 106.351,-112.32 110.477,-109.15L116.447,-104.14C118.452,-102.485 120.399,-100.766 122.309,-99.006L128.089,-93.777L133.697,-88.369C137.434,-84.772 141.097,-81.054 144.639,-77.22C151.738,-69.573 158.456,-61.554 164.776,-53.284C171.126,-45.063 176.985,-36.422 182.813,-28.365C185.718,-24.401 188.703,-20.478 191.611,-17.812C193.05,-16.493 194.417,-15.61 195.407,-15.273C196.404,-14.941 197.093,-14.914 198.391,-15.178C199.653,-15.447 201.332,-16.196 203.064,-17.228C204.808,-18.251 206.536,-19.561 208.7,-21.145L220.924,-30.149C224.92,-33.153 228.846,-36.184 232.401,-39.298C235.927,-42.357 239.222,-45.697 240.784,-48.496C241.55,-49.887 241.746,-50.832 241.721,-51.5C241.686,-51.858 241.632,-52.239 241.442,-52.733C241.31,-52.988 241.239,-53.246 241.046,-53.544L240.793,-53.99C240.739,-54.06 240.71,-54.135 240.691,-54.151C240.571,-54.286 240.94,-53.926 241.449,-53.785C241.946,-53.65 242.052,-53.791 241.6,-53.703C240.712,-53.578 238.704,-52.706 236.741,-51.619C232.668,-49.411 228.156,-46.417 222.711,-44.015C219.972,-42.833 216.923,-41.78 213.464,-41.289C210.037,-40.782 206.103,-40.988 202.511,-42.255C200.72,-42.871 199.038,-43.713 197.527,-44.688C196.726,-45.172 196.162,-45.686 195.477,-46.193L194.515,-46.958L193.701,-47.692L192.09,-49.163L190.626,-50.622C189.627,-51.595 188.734,-52.571 187.815,-53.547C184.199,-57.463 180.801,-61.389 177.528,-65.407C171.012,-73.444 164.745,-81.573 158.593,-89.777C152.513,-98.035 146.488,-106.309 140.599,-114.679C128.844,-131.434 117.391,-148.379 106.5,-165.721L107.71,-166.611C121.091,-151.14 134.248,-135.522 147.459,-119.989C154.064,-112.224 160.632,-104.439 167.315,-96.774C173.936,-89.063 180.614,-81.411 187.44,-74.006C190.866,-70.33 194.265,-66.64 197.751,-63.229C198.621,-62.386 199.49,-61.517 200.359,-60.751L201.659,-59.565L202.926,-58.515L203.554,-57.992L204.115,-57.6C204.471,-57.37 204.865,-57.028 205.173,-56.877C205.822,-56.495 206.453,-56.22 207.083,-56.033C208.333,-55.659 209.641,-55.604 211.245,-55.891C212.836,-56.173 214.653,-56.813 216.56,-57.721C220.438,-59.512 224.431,-62.237 229.243,-65.033C231.733,-66.397 234.302,-67.94 238.418,-68.913C240.449,-69.362 243.192,-69.595 246.133,-68.693C249.104,-67.82 251.548,-65.773 252.999,-63.918C253.388,-63.445 253.701,-62.978 254.01,-62.525L254.733,-61.327C255.214,-60.541 255.632,-59.611 256.034,-58.712C256.812,-56.843 257.342,-54.714 257.507,-52.532C257.826,-48.077 256.437,-43.961 254.771,-40.894C253.072,-37.795 251.103,-35.344 249.121,-33.147C247.127,-30.962 245.098,-29.025 243.039,-27.215C238.923,-23.597 234.765,-20.387 230.615,-17.25C226.467,-14.127 222.319,-11.103 218.175,-8.125C216.211,-6.717 213.86,-4.943 211.19,-3.398C208.525,-1.866 205.537,-0.388 201.802,0.432C198.132,1.303 193.508,1.076 189.744,-0.465C185.955,-1.963 183.162,-4.204 180.88,-6.352C176.378,-10.729 173.345,-15.127 170.285,-19.421C164.333,-28.027 158.874,-36.378 152.971,-44.481C147.105,-52.58 140.9,-60.384 134.303,-67.867C120.935,-82.672 106.597,-96.856 91.037,-109.453C83.276,-115.783 75.284,-121.859 66.9,-127.336C62.701,-130.055 58.455,-132.714 54.095,-135.141C49.791,-137.58 45.217,-139.924 40.9,-141.734L43.694,-141.864C34.82,-138.133 26.311,-133.177 18.461,-127.442C14.528,-124.579 10.799,-121.441 7.401,-118.026C4.014,-114.618 0.896,-110.918 -1.337,-106.863C-3.572,-102.847 -4.684,-98.273 -3.242,-94.466C-1.838,-90.627 2.005,-87.775 6.225,-85.844C14.982,-82.148 24.802,-80.13 34.357,-80.343C39.163,-80.463 43.924,-81.168 48.65,-82.252C51.019,-82.789 53.379,-83.422 55.815,-84.057C58.279,-84.66 60.725,-85.378 63.821,-85.544C65.356,-85.589 67.265,-85.415 69.083,-84.373C70.908,-83.336 72.108,-81.646 72.809,-80.172C74,-77.656 74.875,-75.319 75.761,-72.902C77.482,-68.101 79.021,-63.281 80.425,-58.402C81.819,-53.521 83.068,-48.588 84.087,-43.552C85.09,-38.507 85.923,-33.397 86.129,-27.939C86.198,-25.191 86.176,-22.383 85.499,-19.2C85.129,-17.609 84.598,-15.883 83.458,-14.029C82.37,-12.211 80.196,-10.132 77.514,-9.371C74.864,-8.54 72.463,-8.93 70.722,-9.343C68.96,-9.772 67.208,-10.493 65.649,-11.455C62.484,-13.381 60.216,-16.058 58.545,-18.633C55.248,-23.874 53.719,-29.007 52.071,-33.739C50.506,-38.425 48.942,-43.013 47.031,-45.995C46.087,-47.489 45.163,-48.299 44.474,-48.588C44.117,-48.761 43.734,-48.838 43.215,-48.884C43.095,-48.906 42.938,-48.89 42.802,-48.904L41.969,-48.906L40.13,-48.893C35.159,-48.851 30.047,-48.791 24.949,-48.997C14.74,-49.369 4.439,-50.282 -5.839,-52.428C-10.972,-53.515 -16.116,-54.895 -21.14,-56.901C-26.16,-58.887 -31.114,-61.412 -35.659,-64.833C-40.186,-68.232 -44.29,-72.625 -47.088,-77.856C-49.927,-83.072 -51.212,-88.977 -51.375,-94.604C-51.509,-105.569 -48.953,-116.228 -44.169,-125.662C-41.815,-130.382 -39.001,-134.81 -35.868,-138.937C-32.69,-143.037 -29.202,-146.836 -25.502,-150.365C-18.029,-157.352 -9.787,-163.343 -0.746,-167.915L0,-166.612Z" style="fill:#006957;fill-rule:nonzero;"/>
                </g>
                <g transform="matrix(8.33333,0,0,8.33333,39969.1,6825.89)">
                    <path d="M0,-40.708C7.734,-40.909 15.445,-40.464 23.172,-39.687C30.884,-38.754 38.59,-37.576 46.297,-34.89C48.23,-34.206 50.169,-33.43 52.13,-32.352C54.045,-31.2 56.137,-29.98 57.914,-27.158C58.768,-25.734 59.374,-23.67 58.99,-21.586C58.614,-19.54 57.602,-18.04 56.663,-16.96C54.722,-14.828 52.758,-13.67 50.842,-12.593C43.149,-8.651 35.524,-6.888 27.836,-5.195C12.476,-2.092 -2.966,-0.69 -18.408,-0.253C-33.841,0.201 -49.284,-0.297 -64.612,-2.227C-49.292,-4.17 -34.083,-5.698 -18.949,-7.516C-3.845,-9.423 11.247,-11.367 25.931,-14.381C29.592,-15.139 33.229,-15.963 36.752,-16.972C40.267,-17.942 43.758,-19.08 46.73,-20.526C48.193,-21.219 49.562,-22.085 50.239,-22.77C50.579,-23.103 50.617,-23.292 50.609,-23.135C50.609,-22.942 50.728,-22.857 50.645,-23.092C50.471,-23.608 49.344,-24.723 48.025,-25.561C46.703,-26.462 45.15,-27.292 43.533,-28.043C40.286,-29.562 36.753,-30.764 33.197,-31.931C29.634,-33.11 25.989,-34.146 22.312,-35.106C14.975,-37.147 7.493,-38.802 0,-40.708" style="fill:#006957;fill-rule:nonzero;"/>
                </g>
                <g transform="matrix(8.33333,0,0,8.33333,39093.7,6500.34)">
                    <path d="M0,35.269C-10.782,36.411 -21.579,36.298 -32.359,35.361C-37.75,34.868 -43.134,34.134 -48.509,33.052C-53.89,31.96 -59.24,30.568 -64.631,28.295C-67.312,27.079 -70.033,25.781 -72.793,23.195C-73.473,22.516 -74.154,21.711 -74.76,20.704C-75.347,19.664 -75.894,18.412 -76.01,16.943C-76.198,15.506 -75.885,13.988 -75.38,12.811C-74.879,11.576 -74.188,10.692 -73.506,9.911C-72.124,8.421 -70.715,7.474 -69.343,6.655C-67.969,5.837 -66.598,5.219 -65.24,4.673C-62.524,3.556 -59.823,2.792 -57.122,2.124C-46.328,-0.393 -35.531,-1.142 -24.696,-0.661C-34.974,2.717 -45.3,5.485 -54.933,9.173C-57.316,10.104 -59.666,11.09 -61.798,12.201C-63.892,13.283 -65.954,14.644 -66.772,15.736C-67.159,16.305 -66.995,16.305 -66.957,15.974C-67,15.681 -66.946,16.025 -66.337,16.541C-65.187,17.61 -63.073,18.778 -60.888,19.689C-56.461,21.602 -51.486,23.064 -46.492,24.402C-41.482,25.747 -36.364,26.922 -31.222,28.094C-20.923,30.428 -10.487,32.538 0,35.269" style="fill:#006957;fill-rule:nonzero;"/>
                </g>
                <g transform="matrix(8.33333,0,0,8.33333,39588,6906.68)">
                    <path d="M0,-24.107L-43.971,-13.042L0,0L0,-24.107Z" style="fill:#006957;fill-rule:nonzero;"/>
                </g>
                <g transform="matrix(8.33333,0,0,8.33333,37480.8,2134.44)">
                    <path d="M429.401,466.898L450.136,466.898L450.136,470.523L435.056,470.523C432.011,470.523 429.836,471.103 428.531,472.263C427.226,473.278 426.501,475.453 426.501,478.498L426.501,509.528C426.501,512.573 427.226,514.748 428.676,515.908C429.981,517.213 432.156,517.938 435.201,517.938L450.136,517.938L450.136,520.983L430.851,520.983C428.531,520.983 426.936,521.418 426.211,522.288C425.341,523.158 424.906,524.898 424.906,527.653L424.906,529.973C424.906,532.003 425.341,533.453 426.211,534.468C426.936,535.483 428.531,536.063 430.851,536.063L450.136,536.063L450.136,539.108L429.981,539.108C427.661,539.108 426.211,539.543 425.341,540.413C424.471,541.283 424.036,543.023 424.036,545.778L424.036,548.098C424.036,550.128 424.471,551.578 425.341,552.593C426.211,553.608 427.661,554.188 429.981,554.188L490.301,554.188C492.766,554.188 494.361,553.608 495.231,552.593C496.101,551.578 496.536,550.128 496.536,548.098L496.536,545.778C496.391,543.023 495.811,541.283 495.086,540.413C494.361,539.543 492.766,539.108 490.301,539.108L470.581,539.108L470.581,536.063L489.431,536.063C491.896,536.063 493.491,535.483 494.361,534.468C495.231,533.453 495.666,532.003 495.666,529.973L495.666,527.653C495.521,524.898 494.941,523.158 494.216,522.288C493.491,521.418 491.896,520.983 489.431,520.983L470.581,520.983L470.581,517.938L484.936,517.938C487.546,517.938 489.576,517.213 491.026,515.908C492.476,514.603 493.201,512.428 493.201,509.383L493.201,478.788C493.201,475.453 492.476,473.133 491.026,472.118C489.431,471.103 487.401,470.523 484.791,470.523L470.581,470.523L470.581,466.898L489.141,466.898C491.606,466.898 493.201,466.463 494.071,465.448C494.941,464.433 495.376,462.838 495.376,460.808L495.376,458.488C495.376,455.733 494.941,453.993 494.071,453.123C493.201,452.253 491.606,451.818 489.141,451.818L470.581,451.818L470.581,448.193L472.611,448.193C480.296,448.193 485.806,447.033 488.851,444.713C491.896,442.248 493.346,438.333 493.201,432.678L493.201,430.503C493.201,429.053 492.766,427.603 491.751,426.443C490.736,425.283 489.431,424.703 487.836,424.703L475.656,424.703C474.351,424.703 473.046,425.283 472.031,426.443C471.016,427.603 470.436,428.763 470.581,429.923C470.581,431.083 470.146,431.953 469.131,432.388C468.116,432.968 466.521,433.258 464.056,433.258L432.446,433.258C430.851,433.258 429.546,433.838 428.531,434.708C427.516,435.723 426.936,436.883 426.936,438.478L426.936,442.973C426.936,444.423 427.516,445.728 428.531,446.598C429.546,447.613 430.851,448.048 432.446,448.193L450.136,448.193L450.136,451.818L429.401,451.818C427.081,451.818 425.631,452.253 424.761,453.123C423.891,453.993 423.456,455.733 423.456,458.488L423.456,460.808C423.456,462.838 423.891,464.433 424.761,465.448C425.631,466.463 427.081,466.898 429.401,466.898ZM445.351,483.863L450.136,483.863L450.136,487.488L445.351,487.488L445.351,483.863ZM445.351,500.828L450.136,500.828L450.136,504.453L445.351,504.453L445.351,500.828ZM475.221,487.488L470.581,487.488L470.581,483.863L475.221,483.863L475.221,487.488ZM475.221,504.453L470.581,504.453L470.581,500.828L475.221,500.828L475.221,504.453ZM513.066,426.588C511.616,426.588 510.456,427.168 509.441,428.328C508.426,429.488 507.846,430.793 507.846,432.388L507.846,454.863L503.206,454.863C500.886,454.863 499.291,455.298 498.566,456.168C497.696,457.038 497.261,458.778 497.261,461.533L497.261,472.408C497.261,474.438 497.696,476.033 498.566,477.048C499.291,478.063 500.886,478.498 503.206,478.498L507.846,478.498L507.846,492.563C507.991,501.553 507.411,508.513 506.396,513.153C505.381,517.793 503.931,521.418 502.191,524.173C500.451,526.928 499.291,528.668 498.421,529.538C497.696,530.263 497.261,531.568 497.261,533.018L497.261,548.823C497.261,550.418 497.696,551.578 498.856,552.593C499.871,553.463 501.031,554.043 502.626,554.188C507.556,554.188 513.211,548.678 519.301,537.948C525.391,527.073 528.436,514.458 528.436,499.813L528.436,478.498L535.686,478.498L535.686,527.653C535.686,529.683 534.816,530.698 532.931,530.698C530.611,530.698 529.161,531.133 528.291,531.858C527.421,532.583 526.986,534.178 526.986,536.353L526.986,549.693C526.986,551.433 527.421,552.593 528.291,553.318C529.161,554.043 530.611,554.333 532.931,554.333L550.186,554.333C552.651,554.333 554.246,554.043 555.116,553.318C555.841,552.593 556.276,551.433 556.276,549.693L556.276,461.533C556.276,458.778 555.841,457.038 554.971,456.168C554.101,455.298 552.506,454.863 550.041,454.863L528.436,454.863L528.436,432.388C528.436,430.793 527.856,429.488 526.841,428.328C525.826,427.168 524.521,426.588 523.071,426.588L513.066,426.588Z" style="fill:#004033;fill-rule:nonzero;"/>
                    <path d="M618.626,441.088L618.626,432.678C618.481,431.228 617.901,429.923 616.886,428.908C615.871,427.893 614.421,427.313 612.826,427.313L601.806,427.313C600.356,427.313 599.051,427.893 598.036,428.908C596.876,429.923 596.296,431.228 596.151,432.678C596.151,442.973 594.121,453.558 590.206,464.433C586.291,475.308 581.071,481.108 574.691,481.833C572.661,482.703 571.211,483.863 570.196,485.313C569.181,486.763 568.746,488.793 568.746,491.258L568.746,502.858C568.746,505.758 569.181,507.643 570.196,508.513C571.066,509.528 572.661,509.818 574.691,509.673C579.331,509.818 583.391,508.223 586.726,505.033L586.726,548.533C586.726,550.853 587.161,552.303 588.031,553.173C588.901,553.898 590.206,554.333 591.801,554.333L605.431,554.333C607.171,554.188 608.331,553.753 609.201,553.028C609.926,552.303 610.361,550.853 610.361,548.533L610.361,478.063C614.856,468.638 617.611,456.313 618.626,441.088ZM670.536,554.333C673.001,554.333 674.596,554.043 675.466,553.318C676.191,552.593 676.626,551.433 676.626,549.693L676.626,531.423L689.821,531.423C692.286,531.423 693.881,530.988 694.751,529.973C695.621,528.958 696.056,527.508 696.056,525.333L696.056,515.183C696.056,512.428 695.621,510.688 694.751,509.818C693.881,508.948 692.286,508.513 689.821,508.513L676.626,508.513L676.626,498.653L689.821,498.653C692.286,498.653 693.881,498.073 694.751,497.058C695.621,496.188 696.056,494.593 696.056,492.563L696.056,482.268C696.056,479.658 695.621,477.773 694.751,476.903C693.881,476.033 692.286,475.743 689.821,475.743L676.626,475.743L676.626,465.738L694.896,465.738C697.361,465.738 698.956,465.303 699.826,464.288C700.696,463.273 701.131,461.678 701.131,459.648L701.131,449.498C701.131,446.743 700.696,445.003 699.826,444.133C698.956,443.263 697.361,442.828 694.896,442.828L647.771,442.828L647.771,434.708C647.771,432.678 647.191,430.938 646.176,429.488C645.016,428.038 643.276,427.313 640.811,427.313L635.736,427.313C633.126,427.313 631.241,428.038 630.081,429.488C629.066,430.938 628.486,432.678 628.486,434.563L628.486,471.538C628.341,474.583 627.036,476.033 624.571,476.033L621.526,476.033C619.061,476.033 617.321,476.758 616.451,477.918C615.436,479.078 614.856,480.818 614.856,483.283L614.856,490.823C614.856,493.433 615.436,495.173 616.596,496.333C617.756,497.493 619.641,498.073 622.106,498.073L630.516,498.073C636.606,497.928 640.956,496.478 643.711,493.578C646.321,490.533 647.626,485.603 647.771,478.643L647.771,465.738L652.411,465.738L652.411,549.693C652.411,551.433 652.846,552.593 653.716,553.318C654.586,554.043 656.036,554.333 658.356,554.333L670.536,554.333Z" style="fill:#004033;fill-rule:nonzero;"/>
                    <path d="M823.656,449.933L823.656,453.558L819.596,453.558L819.596,449.933L823.656,449.933ZM823.656,468.638L823.656,472.263L819.596,472.263L819.596,468.638L823.656,468.638ZM770.151,436.013L750.576,436.013L750.576,432.098C750.431,430.648 749.851,429.343 748.981,428.328C747.966,427.313 746.661,426.878 745.211,426.878L738.106,426.878C736.656,426.878 735.496,427.313 734.626,428.328C733.611,429.343 733.031,430.648 733.031,432.098C732.886,442.103 731.146,451.963 727.666,461.678C724.186,471.393 721.286,477.193 718.966,479.078C717.226,481.108 715.921,482.703 715.051,484.298C714.181,485.748 713.746,487.633 713.746,490.098L713.746,501.698C713.746,504.598 714.181,506.483 714.906,507.353C715.776,508.368 717.081,508.658 718.966,508.513C721.286,508.513 723.171,507.353 724.621,505.033L724.621,548.533C724.621,550.853 725.056,552.303 725.781,553.173C726.506,553.898 727.666,554.333 728.971,554.333L738.686,554.333C740.281,554.188 741.441,553.753 742.021,553.028C742.746,552.303 743.036,550.853 743.036,548.533L743.036,476.903C745.501,471.248 747.386,464.288 748.691,456.458L760.871,456.458L753.331,475.018C753.041,476.033 752.606,476.468 751.881,476.468L750.866,476.468C749.706,476.613 748.691,477.193 747.966,478.063C747.241,479.078 746.806,480.238 746.806,481.688L746.806,492.853C746.806,494.303 747.241,495.608 747.966,496.478C748.691,497.493 749.706,497.928 750.866,498.073L760.871,498.073C760.871,502.713 760.726,506.918 760.436,510.688C760.146,510.398 759.856,510.398 759.276,510.398L750.866,510.398C749.706,510.398 748.691,510.978 747.966,512.138C747.241,513.298 747.966,517.213 749.996,524.028C750.866,527.073 752.316,530.118 754.201,533.163C753.766,533.598 753.331,533.743 752.896,533.743L750.866,533.743C749.706,533.888 748.691,534.323 747.966,535.338C747.241,536.208 746.806,537.513 746.806,538.963L746.806,548.823C746.806,550.418 747.241,551.578 747.966,552.593C748.691,553.463 749.706,554.043 750.866,554.188L753.476,554.188C758.841,554.188 763.046,551.723 766.091,546.503C772.036,551.288 778.126,553.898 784.361,554.188L841.781,554.188C842.941,554.043 843.811,553.463 844.681,552.593C845.551,551.578 845.986,550.418 845.986,548.823L845.986,535.048C845.986,533.453 845.551,532.293 844.681,531.278C843.811,530.408 842.941,529.828 841.781,529.828L819.596,529.828L819.596,524.608L841.056,524.608C842.941,524.608 844.246,524.173 844.971,523.158C845.696,522.143 845.986,520.258 845.986,517.503C845.986,514.023 845.696,511.848 844.971,510.978C844.246,510.108 842.941,509.673 841.056,509.673L819.596,509.673L819.596,505.903L837.141,505.903C839.026,505.903 840.186,505.468 840.911,504.453C841.491,503.438 841.926,501.553 841.926,498.798C841.926,495.318 841.491,493.143 840.911,492.273C840.186,491.403 839.026,490.968 837.141,490.968L819.596,490.968L819.596,487.343L835.981,487.343C837.141,487.343 838.156,486.473 839.026,485.023C839.751,483.573 840.186,481.978 840.186,480.528L840.186,468.638L841.056,468.638C842.941,468.638 844.246,468.058 844.971,467.043C845.696,466.173 845.986,464.143 845.986,461.388C845.986,457.908 845.696,455.733 844.971,454.863C844.246,453.993 842.941,453.558 841.056,453.558L840.186,453.558L840.186,440.363C840.186,439.058 839.751,437.753 839.026,436.593C838.156,435.433 837.141,434.853 835.981,434.853L819.596,434.853L819.596,432.968C819.596,431.518 819.306,430.213 818.581,429.053C817.711,427.893 816.696,427.313 815.391,427.313L806.111,427.313C804.661,427.313 803.501,427.893 802.631,429.053C801.761,430.213 801.326,431.518 801.181,432.968L801.181,434.853L788.421,434.853C786.681,434.853 785.521,435.288 784.796,436.158C784.216,437.028 783.781,439.203 783.781,442.683C783.781,445.438 784.216,447.468 784.796,448.483C785.521,449.353 786.681,449.933 788.421,449.933L801.181,449.933L801.181,453.558L779.721,453.558C777.981,453.558 776.676,453.993 776.096,454.863C775.371,455.733 775.081,457.908 775.081,461.388C775.081,464.143 775.371,466.173 776.096,467.043C776.676,468.058 777.981,468.638 779.721,468.638L801.181,468.638L801.181,472.263L788.421,472.263C786.681,472.263 785.521,472.698 784.796,473.568C784.216,474.438 783.781,476.613 783.781,480.093C783.781,482.848 784.216,484.733 784.796,485.748C785.521,486.763 786.681,487.343 788.421,487.343L801.181,487.343L801.181,490.968L783.636,490.968C781.896,490.968 780.736,491.403 780.011,492.273C779.286,493.143 778.996,495.318 778.996,498.798C778.996,501.553 779.286,503.438 780.011,504.453C780.736,505.468 781.896,505.903 783.636,505.903L801.181,505.903L801.181,509.673L779.721,509.673C777.981,509.673 776.676,510.108 776.096,510.978C775.371,511.848 775.081,514.023 775.081,517.503C775.081,520.258 775.371,522.143 776.096,523.158C776.676,524.173 777.981,524.608 779.721,524.608L801.181,524.608L801.181,529.828L782.911,529.828C778.851,529.828 775.371,528.523 772.181,526.058C773.486,518.083 774.066,508.513 774.211,497.638L774.211,483.138C774.211,481.688 773.776,480.383 773.051,479.223C772.181,478.063 771.166,477.483 770.151,477.338L766.816,477.338L773.776,457.763C774.066,456.893 774.211,455.733 774.211,454.428L774.211,441.813C774.211,440.363 773.776,439.058 773.051,437.898C772.181,436.738 771.166,436.158 770.151,436.013Z" style="fill:#004033;fill-rule:nonzero;"/>
                    <path d="M896.736,514.023L896.736,488.938L929.071,488.938L929.071,492.708L906.596,492.708C904.276,492.708 902.681,493.143 901.811,493.868C900.941,494.738 900.506,496.913 900.506,500.393C900.506,503.293 900.941,505.178 901.811,506.193C902.681,507.208 904.276,507.643 906.596,507.643L929.071,507.643L929.071,548.678C929.216,550.273 929.796,551.578 930.956,552.738C932.116,553.898 933.566,554.333 935.451,554.333L949.081,554.333C950.821,554.333 952.271,553.898 953.431,552.738C954.446,551.578 955.026,550.273 955.026,548.678L955.026,507.643L977.791,507.643C979.531,507.643 980.981,507.063 981.996,505.903C983.156,504.888 983.591,503.583 983.591,501.988L983.591,488.938L984.606,488.938C987.216,488.938 988.956,488.503 989.826,487.488C990.696,486.473 991.131,484.588 991.131,481.688C991.131,478.208 990.696,476.033 989.826,475.308C988.956,474.438 987.216,474.003 984.606,474.003L983.591,474.003L983.591,460.808C983.591,459.358 983.156,458.053 981.996,457.038C980.981,455.878 979.531,455.298 977.791,455.298L955.026,455.298L955.026,451.093L982.576,451.093C985.041,451.093 986.781,450.513 987.651,449.498C988.376,448.483 988.811,447.033 988.811,445.003L988.811,440.943C988.811,438.188 988.376,436.448 987.651,435.578C986.781,434.708 985.041,434.273 982.576,434.273L946.471,434.273L946.471,430.793C946.471,429.343 945.891,428.038 944.731,427.023C943.571,425.863 942.121,425.283 940.381,425.283L928.201,425.283C926.316,425.283 924.866,425.863 923.851,427.023C922.691,428.038 922.111,429.343 921.966,430.793L921.966,434.273L881.511,434.273C879.336,434.273 877.741,434.708 876.871,435.578C876.001,436.448 875.566,438.188 875.566,440.943L875.566,510.688C875.566,517.503 874.841,522.433 873.246,525.478C871.651,528.523 869.476,530.118 866.431,530.263C864.836,530.408 863.531,530.988 862.516,531.858C861.501,532.873 861.066,534.033 861.066,535.628L861.066,549.403C861.066,550.998 861.501,552.158 862.516,553.173C863.531,554.043 864.836,554.623 866.431,554.623C875.566,554.768 882.816,551.433 888.471,544.908C893.981,538.238 896.736,527.943 896.736,514.023ZM961.261,470.233L961.261,474.003L955.026,474.003L955.026,470.233L961.261,470.233ZM961.261,488.938L961.261,492.708L955.026,492.708L955.026,488.938L961.261,488.938ZM906.451,553.463L918.921,547.808C921.096,546.648 922.691,545.923 923.851,545.198C924.866,544.618 925.446,543.168 925.446,540.993L925.446,523.448C925.446,521.128 924.866,519.678 923.851,519.098C922.691,518.518 921.096,517.648 918.921,516.633L906.451,510.978C904.711,510.253 903.116,510.398 901.956,511.413C900.651,512.428 900.071,514.168 900.071,516.633L900.071,521.998C899.926,524.173 900.361,525.768 901.231,526.493C902.101,527.218 903.841,528.233 906.451,529.683L911.236,532.148L906.451,534.758C903.841,536.063 902.101,537.078 901.231,537.803C900.361,538.528 899.926,540.123 900.071,542.298L900.071,547.808C900.071,550.273 900.651,551.868 901.956,552.883C903.116,553.898 904.711,554.043 906.451,553.463ZM977.066,553.463C978.806,554.043 980.256,553.898 981.561,552.883C982.866,551.868 983.446,550.273 983.446,547.808L983.446,542.298C983.446,540.123 983.156,538.528 982.286,537.803C981.416,537.078 979.821,536.063 977.066,534.758L972.281,532.148L977.066,529.683C979.821,528.233 981.416,527.218 982.286,526.493C983.156,525.768 983.446,524.173 983.446,521.998L983.446,516.633C983.446,514.168 982.866,512.428 981.561,511.413C980.256,510.398 978.806,510.253 977.066,510.978L964.741,516.633C962.566,517.648 960.971,518.518 959.956,519.098C958.941,519.678 958.361,521.128 958.361,523.448L958.361,540.993C958.361,543.168 958.941,544.618 959.956,545.198C960.971,545.923 962.566,546.648 964.741,547.808L977.066,553.463ZM896.736,451.093L929.071,451.093L929.071,455.298L906.596,455.298C904.276,455.298 902.681,455.733 901.811,456.603C900.941,457.473 900.506,459.648 900.506,463.128C900.506,465.883 900.941,467.768 901.811,468.783C902.681,469.798 904.276,470.233 906.596,470.233L929.071,470.233L929.071,474.003L896.736,474.003L896.736,451.093Z" style="fill:#004033;fill-rule:nonzero;"/>
                    <path d="M737.271,617.758L737.271,615.448C737.271,611.158 739.471,608.958 743.761,608.958L769.501,608.958C773.791,608.958 775.991,611.158 775.991,615.448L775.991,620.728C775.991,625.018 773.791,627.108 769.501,627.108L748.051,627.108C745.191,627.108 743.761,628.428 743.761,631.068L743.761,643.278C743.761,645.918 745.191,647.238 748.051,647.238L769.501,647.238C773.791,647.238 775.991,649.328 775.991,653.618L775.991,658.788C775.991,663.078 773.791,665.278 769.501,665.278L743.761,665.278C739.471,665.278 737.271,663.078 737.271,658.788L737.271,656.478C737.271,653.838 735.841,652.518 732.981,652.518L716.261,652.518C713.401,652.518 711.971,653.838 711.971,656.478L711.971,663.848C711.971,678.148 719.121,685.408 733.421,685.408L779.841,685.408C794.031,685.408 801.181,678.148 801.291,663.848L801.291,652.298C801.181,645.808 799.091,640.858 794.801,637.228C799.091,633.598 801.181,628.648 801.291,622.158L801.291,610.388C801.181,596.088 794.031,588.938 779.841,588.938L733.421,588.938C719.121,588.938 711.971,596.088 711.971,610.388L711.971,617.758C711.971,620.398 713.401,621.718 716.261,621.718L732.981,621.718C735.841,621.718 737.271,620.398 737.271,617.758Z" style="fill:#004033;fill-rule:nonzero;"/>
                    <path d="M830.991,658.788L830.991,653.288C830.991,648.888 833.191,646.798 837.481,646.798L863.221,646.798C867.511,646.798 869.711,648.888 869.711,653.288L869.711,658.788C869.711,663.078 867.511,665.278 863.221,665.278L837.481,665.278C833.191,665.278 830.991,663.078 830.991,658.788ZM805.691,610.388L805.691,663.848C805.691,678.148 812.841,685.408 827.141,685.408L873.561,685.408C887.751,685.408 894.901,678.148 895.011,663.848L895.011,648.228C894.901,633.818 887.751,626.668 873.561,626.668L833.191,626.668C831.761,626.668 830.991,626.008 830.991,624.578L830.991,615.448C830.991,611.158 833.191,608.958 837.481,608.958L863.221,608.958C867.511,608.958 869.711,611.158 869.711,615.448L869.711,615.668C869.711,618.308 871.141,619.628 874.001,619.628L890.721,619.628C893.581,619.628 895.011,618.308 895.011,615.668L895.011,610.388C894.901,596.088 887.751,588.938 873.561,588.938L827.141,588.938C812.841,588.938 805.691,596.088 805.691,610.388Z" style="fill:#004033;fill-rule:nonzero;"/>
                    <path d="M963.431,658.788C963.431,663.078 961.231,665.278 956.941,665.278L931.201,665.278C926.911,665.278 924.711,663.078 924.711,658.788L924.711,615.448C924.711,611.158 926.911,608.958 931.201,608.958L956.941,608.958C961.231,608.958 963.431,611.158 963.431,615.448L963.431,658.788ZM899.411,663.848C899.411,678.148 906.561,685.408 920.861,685.408L967.281,685.408C981.471,685.408 988.621,678.148 988.731,663.848L988.731,610.388C988.621,596.088 981.471,588.938 967.281,588.938L920.861,588.938C906.561,588.938 899.411,596.088 899.411,610.388L899.411,663.848Z" style="fill:#004033;fill-rule:nonzero;"/>
                </g>
            </g>
        </g>
    </g>
</svg>
