<svg width="199" height="205" viewBox="0 0 199 205" fill="none" xmlns="http://www.w3.org/2000/svg">
<path d="M63.18 127.195C63.18 127.195 11.58 158.925 11.58 162.075C11.58 165.225 1 205.075 1 205.075H198.12C198.12 205.075 175.12 152.955 170.77 149.595C166.42 146.235 114.26 120.705 109.88 118.895C105.5 117.085 63.18 127.195 63.18 127.195Z" fill="#97CFAC" stroke="#263238" stroke-linecap="round" stroke-linejoin="round"/>
<path d="M25.5101 204.854L21.6401 176.214" stroke="#263238" stroke-miterlimit="10"/>
<path d="M182.12 204.855L169.74 160.475" stroke="#263238" stroke-miterlimit="10"/>
<path d="M100.59 159.444C100.59 159.444 105.49 187.054 106.27 188.594C107.05 190.134 114.75 188.074 114.75 188.074L112.17 171.074" stroke="#263238" stroke-miterlimit="10"/>
<path d="M63.4401 110.425C63.4401 110.425 56.7301 116.354 55.7001 125.124C54.6701 133.894 59.8301 162.795 64.4701 162.025C69.1101 161.255 76.0801 150.414 80.2101 149.124C84.3401 147.834 106.78 143.444 109.36 142.414C111.94 141.384 120.46 143.705 123.04 145.515C125.62 147.325 129.74 149.124 130.26 146.284C130.78 143.444 125.87 123.285 119.94 111.455C114.01 99.6245 101.36 98.8145 90.5301 100.365C79.7001 101.915 63.4401 110.425 63.4401 110.425Z" fill="white" stroke="#263238" stroke-miterlimit="10"/>
<path d="M55.4399 93.3947C55.4399 93.3947 69.3699 133.125 75.0499 138.545C80.7299 143.965 94.1399 160.735 100.59 159.445C107.04 158.155 110.65 133.385 110.14 123.835C109.63 114.285 102.91 81.2646 102.91 81.2646C102.91 81.2646 101.11 87.2046 88.2099 93.6546C75.3099 100.105 55.4399 93.3947 55.4399 93.3947Z" fill="white" stroke="#263238" stroke-miterlimit="10"/>
<path d="M87.4299 105.774C92.5441 99.0173 97.0865 91.8458 101.01 84.3345C99.0899 86.6645 95.3499 90.0744 88.2099 93.6544C75.3099 100.104 55.4399 93.3945 55.4399 93.3945C55.4399 93.3945 60.7899 108.654 66.2099 121.554C71.5799 119.374 80.8399 114.614 87.4299 105.774Z" fill="#263238" stroke="#263238" stroke-miterlimit="10"/>
<path d="M43.05 69.1445C43.05 69.1445 36.35 69.6545 37.64 75.8445C38.93 82.0345 46.92 89.2645 49.5 89.5245C52.08 89.7845 52.08 87.7145 52.08 87.7145L43.05 69.1445Z" fill="white" stroke="#263238" stroke-miterlimit="10"/>
<path d="M98.5801 57.3946C98.5801 57.3946 104.27 53.7946 106.94 59.5246C109.61 65.2546 107.53 75.8346 105.62 77.5846C103.71 79.3346 102.47 77.6846 102.47 77.6846L98.5801 57.3946Z" fill="white" stroke="#263238" stroke-miterlimit="10"/>
<path d="M39.1799 36.6346C39.1799 36.6346 33.2499 50.5646 34.7999 54.4346C36.3499 58.3046 43.0499 69.1446 43.0499 69.1446C43.0499 69.1446 51.0499 92.3646 56.2099 96.7446C61.3699 101.125 72.2099 107.585 82.2699 106.035C92.3299 104.485 104.46 96.2346 104.72 83.8446C104.98 71.4546 85.3699 22.4446 85.3699 22.4446C81.7532 20.449 77.6018 19.6376 73.4999 20.1246C66.4999 20.8946 49.7599 19.1246 44.8599 22.7046C39.9599 26.2846 38.6699 30.9546 39.1799 36.6346Z" fill="white" stroke="#263238" stroke-miterlimit="10"/>
<path d="M36.8602 32.7645C36.8602 32.7645 29.8602 43.5945 30.6702 49.0145C31.4802 54.4345 43.0502 69.1445 43.0502 69.1445C43.0502 69.1445 37.3802 55.4645 38.9302 50.3045C40.4802 45.1445 43.0502 42.8245 42.5402 38.1845C42.0302 33.5445 39.9602 33.5345 40.9902 30.9545C42.0202 28.3745 39.9902 25.0245 49.2502 27.3445C58.5102 29.6645 68.0802 31.7345 75.8202 28.8945C83.5602 26.0545 93.6202 17.7945 92.5902 9.0245C91.5602 0.254502 83.3002 1.54451 78.4002 4.89451C73.5002 8.24451 74.5302 13.4145 70.1502 9.8045C65.7702 6.1945 66.0202 -1.03549 58.2802 1.54451C50.5402 4.12451 34.0202 13.4145 36.8602 32.7645Z" fill="#263238" stroke="#263238" stroke-miterlimit="10"/>
<path d="M85.3701 22.4443C85.3701 22.4443 94.3701 48.5043 96.2001 52.1143C97.3913 54.5979 98.3423 57.1897 99.0401 59.8543C99.0401 59.8543 102.65 48.2443 100.33 40.5043C98.0101 32.7643 85.3701 22.4443 85.3701 22.4443Z" fill="#263238" stroke="#263238" stroke-miterlimit="10"/>
<path d="M73.6899 38.2847L71.4399 43.3447L74.7899 51.8547" stroke="#263238" stroke-miterlimit="10"/>
<path d="M79.6899 58.8247C79.6899 58.8247 76.0799 63.9847 71.6899 65.2747" stroke="#263238" stroke-miterlimit="10"/>
<path d="M59.3101 69.6545C59.3101 69.6545 65.2401 75.8445 68.8601 75.3345C72.4801 74.8245 83.5601 72.2345 85.8601 68.6245C88.1601 65.0145 88.4401 59.6245 88.4401 59.6245" stroke="#263238" stroke-miterlimit="10"/>
<path d="M68.8599 75.3344C68.8599 75.3344 76.8599 82.5543 79.6899 81.7843C82.5199 81.0143 83.2999 71.4644 83.2999 71.4644L68.8599 75.3344Z" fill="#263238" stroke="#263238" stroke-miterlimit="10"/>
<path d="M54.1498 55.9843C54.1498 55.9843 53.8898 50.3043 60.5998 52.1143" stroke="#263238" stroke-miterlimit="10"/>
<path d="M77.8901 47.9844C77.8901 47.9844 80.9801 42.0544 85.6301 45.4044" stroke="#263238" stroke-miterlimit="10"/>
<path d="M47.4399 46.1743C47.4399 46.1743 49.7599 37.6643 60.0799 39.4743" stroke="#263238" stroke-width="3" stroke-miterlimit="10" stroke-linecap="round"/>
<path d="M76.0801 35.0746C76.0801 35.0746 80.9801 27.8546 86.9201 35.3346" stroke="#263238" stroke-width="3" stroke-miterlimit="10" stroke-linecap="round"/>
</svg>
