<svg width="184" height="231" viewBox="0 0 184 231" fill="none" xmlns="http://www.w3.org/2000/svg">
<path d="M80.77 142.603C80.77 142.603 62.25 154.283 49.72 161.463C37.19 168.643 20.37 170.863 20.09 173.143C19.81 175.423 1 231.463 1 231.463H182.77C182.77 231.463 169.1 202.963 165.96 192.463C162.82 181.963 162.83 175.943 160.26 174.803C157.69 173.663 123.79 156.563 107.84 146.593L80.77 142.603Z" fill="white" stroke="#263238" stroke-miterlimit="10"/>
<path d="M26.9302 170.083L44.1902 231.463H134.93L161.93 176.843C161.667 175.958 161.067 175.211 160.26 174.763C157.7 173.623 123.79 156.523 107.84 146.553L80.7702 142.553C80.7702 142.553 62.2502 154.283 49.7202 161.463C42.1502 165.713 33.0302 168.243 26.9302 170.083Z" fill="#97CFAC" stroke="#263238" stroke-linecap="round" stroke-linejoin="round"/>
<path d="M80.7701 142.603C80.7701 142.603 74.0801 146.823 66.0201 151.743C65.5853 153.724 65.2515 155.727 65.0201 157.743C62.4401 179.323 72.1401 198.223 86.6801 199.963C101.22 201.703 115.1 185.623 117.68 164.043C118.141 160.22 118.214 156.36 117.9 152.523C114.18 150.403 110.74 148.393 107.9 146.603L80.7701 142.603Z" fill="white" stroke="#263238" stroke-miterlimit="10"/>
<path d="M79.9299 118.103L73.0898 152.573C73.0898 152.573 76.2199 190.753 87.9099 191.043C99.5998 191.333 112.68 153.463 112.68 153.463L113.25 123.263L79.9299 118.103Z" fill="#BABABA" stroke="#263238" stroke-linecap="round" stroke-linejoin="round"/>
<path d="M113.24 123.693L105.81 126.313L89.8799 133.553L112.77 149.053L113.24 123.693Z" fill="#263238" stroke="#263238" stroke-miterlimit="10"/>
<path d="M173.66 50.5728C173.66 46.1421 172.458 41.7944 170.183 37.9926C167.908 34.1907 164.644 31.0769 160.74 28.9828C158.643 23.8294 154.843 19.5504 149.973 16.8591C145.104 14.1678 139.459 13.2267 133.98 14.1927C132.204 10.3284 129.376 7.04208 125.82 4.70982C122.264 2.37756 118.123 1.09362 113.871 1.00493C109.619 0.916238 105.428 2.02639 101.778 4.20833C98.1276 6.39026 95.1652 9.55583 93.2299 13.3428C88.82 10.908 83.7513 9.9352 78.7533 10.5645C73.7553 11.1938 69.086 13.3926 65.4172 16.8446C61.7485 20.2965 59.2696 24.8235 58.3375 29.7739C57.4053 34.7244 58.0679 39.8429 60.2299 44.3927C56.3023 43.2627 52.0952 43.6286 48.4217 45.4199C44.7482 47.2111 41.8691 50.3004 40.3407 54.0909C38.8123 57.8813 38.7433 62.1037 40.1468 65.9421C41.5504 69.7805 44.327 72.9623 47.9399 74.8728C46.9209 76.8907 46.3512 79.1055 46.27 81.3647C46.1888 83.6239 46.5979 85.8739 47.4694 87.9598C48.3408 90.0457 49.6538 91.9181 51.3181 93.4481C52.9823 94.9781 54.9582 96.1294 57.1099 96.8227C56.7016 98.718 56.6966 100.678 57.0953 102.575C57.494 104.473 58.2874 106.265 59.4241 107.836C60.5607 109.406 62.0151 110.72 63.6927 111.692C65.3704 112.664 67.2337 113.272 69.1617 113.476C71.0896 113.681 73.0391 113.478 74.8833 112.879C76.7275 112.281 78.4253 111.302 79.8662 110.005C81.3071 108.708 82.459 107.122 83.247 105.35C84.035 103.579 84.4414 101.662 84.4399 99.7228C84.4403 96.2031 83.091 92.8173 80.6699 90.2627L83.8699 62.5427L118.63 65.3927L114.55 103.173C113.965 105.433 113.902 107.798 114.366 110.086C114.83 112.375 115.809 114.528 117.228 116.382C118.647 118.236 120.47 119.743 122.558 120.789C124.646 121.835 126.944 122.391 129.279 122.417C131.614 122.443 133.924 121.937 136.035 120.938C138.146 119.939 140.001 118.472 141.461 116.65C142.921 114.827 143.947 112.696 144.461 110.419C144.976 108.141 144.965 105.776 144.43 103.503C147.963 103.261 151.374 102.113 154.335 100.17C157.295 98.2268 159.705 95.554 161.333 92.409C162.961 89.2641 163.751 85.7529 163.628 82.2138C163.505 78.6747 162.472 75.2269 160.63 72.2027C164.56 70.1192 167.849 67.0053 170.145 63.1949C172.44 59.3844 173.655 55.0212 173.66 50.5728Z" fill="#263238" stroke="#263238" stroke-miterlimit="10"/>
<path d="M71.9299 87.9027C71.9299 87.9027 66.5199 75.9027 62.5299 85.6227C58.5399 95.3427 65.9299 102.463 71.0899 105.283C76.2499 108.103 71.9299 87.9027 71.9299 87.9027Z" fill="#BABABA" stroke="#263238" stroke-linecap="round" stroke-linejoin="round"/>
<path d="M129.93 93.7027C129.93 93.7027 136.66 82.4327 139.53 92.5027C142.4 102.573 134.22 108.823 128.8 111.063C123.38 113.303 129.93 93.7027 129.93 93.7027Z" fill="#BABABA" stroke="#263238" stroke-linecap="round" stroke-linejoin="round"/>
<path d="M70.7998 80.783C70.7998 80.783 70.5197 106.423 74.2197 113.543C77.9197 120.663 91.0298 139.463 99.2898 138.613C107.55 137.763 119.52 125.223 122.66 120.383C124.048 118.388 125.285 116.292 126.36 114.113L132.36 87.333C132.36 87.333 129.8 85.333 130.08 80.213C130.343 76.908 131.315 73.6985 132.93 70.803C131.741 70.2459 130.706 69.409 129.912 68.364C129.117 67.3191 128.588 66.0971 128.37 64.803C128.018 62.0631 127.828 59.3051 127.8 56.543C127.8 56.543 116.41 53.403 110.14 44.543C110.14 44.543 100.45 50.813 92.7598 46.823C92.7598 46.823 85.9198 58.823 79.0798 57.083C79.0598 57.133 82.4798 78.213 70.7998 80.783Z" fill="#BABABA" stroke="#263238" stroke-linecap="round" stroke-linejoin="round"/>
<path d="M84.7598 72.8026C84.7598 72.8026 94.7598 66.5326 99.5798 74.8026" stroke="#263238" stroke-miterlimit="10"/>
<path d="M110.97 78.7827L122.37 79.6427" stroke="#263238" stroke-miterlimit="10"/>
<path d="M91.6002 85.4628C91.6002 87.5828 90.7702 89.3028 89.7502 89.3028C88.7302 89.3028 87.9302 87.6028 87.9302 85.4628C87.9302 83.3228 88.7502 81.6128 89.7802 81.6128C90.8102 81.6128 91.6002 83.3528 91.6002 85.4628Z" fill="#263238" stroke="#263238" stroke-miterlimit="10"/>
<path d="M118.32 89.9527C117.76 92.0027 116.52 93.4527 115.53 93.1827C114.54 92.9127 114.19 91.0426 114.74 88.9826C115.29 86.9226 116.54 85.4927 117.53 85.7527C118.52 86.0127 118.87 87.9027 118.32 89.9527Z" fill="#263238" stroke="#263238" stroke-miterlimit="10"/>
<path d="M95.8702 97.5928L94.1602 103.003L108.12 104.143L107.56 100.153" stroke="#263238" stroke-miterlimit="10"/>
<path d="M96.4399 114.973L102.71 115.823" stroke="#263238" stroke-miterlimit="10"/>
<path d="M75.6402 138.333L69.0901 178.463L24.9302 230.643H59.1202L79.6302 184.203C79.6302 184.203 84.4802 181.643 86.7602 179.363C89.0402 177.083 91.8802 171.363 91.8802 171.363C91.8802 171.363 90.7402 175.923 93.3102 178.483C95.8802 181.043 98.7202 180.193 98.7202 178.773C98.7202 177.353 98.1502 172.503 98.4402 169.363C98.7302 166.223 102.44 153.123 100.44 150.563C98.4402 148.003 83.6302 148.563 83.6302 148.563L83.0602 143.143C83.0602 143.143 100.16 141.143 101.3 138.303C102.44 135.463 103.3 133.743 98.7302 134.033C94.1602 134.323 89.0502 133.463 83.3502 134.883C77.6502 136.303 76.7802 135.763 75.6402 138.333Z" fill="#BABABA" stroke="#263238" stroke-linecap="round" stroke-linejoin="round"/>
<path d="M81.3398 155.143C81.3398 155.143 91.9299 153.463 94.1599 153.463C96.3899 153.463 99.8599 156.023 99.8599 156.023" stroke="#263238" stroke-miterlimit="10"/>
<path d="M81.6299 163.403C81.6299 163.403 91.8799 159.703 95.0199 159.133C98.1599 158.563 99.2899 163.133 99.2899 163.133" stroke="#263238" stroke-miterlimit="10"/>
<path d="M83.6199 148.593L79.6299 150.013" stroke="#263238" stroke-miterlimit="10"/>
</svg>
