<?xml version="1.0" encoding="UTF-8" standalone="no"?>
<!DOCTYPE svg PUBLIC "-//W3C//DTD SVG 1.1//EN" "http://www.w3.org/Graphics/SVG/1.1/DTD/svg11.dtd">
<svg width="100%" height="100%" viewBox="0 0 887 732" version="1.1" xmlns="http://www.w3.org/2000/svg" xmlns:xlink="http://www.w3.org/1999/xlink" xml:space="preserve" xmlns:serif="http://www.serif.com/" style="fill-rule:evenodd;clip-rule:evenodd;stroke-linejoin:round;stroke-miterlimit:2;">
    <g transform="matrix(1,0,0,1,-31080,-588)">
        <g id="Artboard12" transform="matrix(1,0,0,1,-0.491532,-0.314162)">
            <rect x="31080.5" y="588.314" width="886.2" height="731.83" style="fill:none;"/>
            <clipPath id="_clip1">
                <rect x="31080.5" y="588.314" width="886.2" height="731.83"/>
            </clipPath>
            <g clip-path="url(#_clip1)">
                <g transform="matrix(0.984456,0,0,18.6321,2048.12,-7712.5)">
                    <path d="M29516.5,448.196L30366.2,448.196C30380.2,448.196 30391.5,447.598 30391.5,446.862C30391.5,446.126 30380.2,445.529 30366.2,445.529L29516.5,445.529C29502.6,445.529 29491.3,446.126 29491.3,446.862C29491.3,447.598 29502.6,448.196 29516.5,448.196Z" style="fill:#004033;"/>
                </g>
                <g transform="matrix(0.984456,0,0,18.6321,2048.12,-7371.43)">
                    <path d="M29516.5,448.196L30366.2,448.196C30380.2,448.196 30391.5,447.598 30391.5,446.862C30391.5,446.126 30380.2,445.529 30366.2,445.529L29516.5,445.529C29502.6,445.529 29491.3,446.126 29491.3,446.862C29491.3,447.598 29502.6,448.196 29516.5,448.196Z" style="fill:#004033;"/>
                </g>
                <g transform="matrix(0.984456,0,0,18.6321,2048.12,-7030.36)">
                    <path d="M29516.5,448.196L30366.2,448.196C30380.2,448.196 30391.5,447.598 30391.5,446.862C30391.5,446.126 30380.2,445.529 30366.2,445.529L29516.5,445.529C29502.6,445.529 29491.3,446.126 29491.3,446.862C29491.3,447.598 29502.6,448.196 29516.5,448.196Z" style="fill:#004033;"/>
                </g>
            </g>
        </g>
    </g>
</svg>
